<svg id="Layer_1" data-name="Layer 1" xmlns="http://www.w3.org/2000/svg" viewBox="0 0 500 250"><title>illustration_journalism</title><path d="M206.52,227.44H110.89c-.8,0-1.21,0-1.2,1s.4,1,1.14,1q95.64,0,191.27,0c.9,0,1.09-.23,1.12-1.12,0-1.19-.69-.91-1.31-.91Zm65.21-4.71h93.82a5.77,5.77,0,0,1,.72,0c.68.1.85-.18.9-.86.07-1-.29-1.17-1.21-1.17q-25.06,0-50.15,0h-138c-.79,0-1.42-.11-1.39,1.11s.72.9,1.34.9Zm72.84,4.71c-10,0-19.91,0-29.87,0-.93,0-1.2.23-1.2,1.18,0,1.12.7.84,1.27.84h60.45c.2,0,.36,0,.47-.26a1.16,1.16,0,0,0-1.14-1.75Z"/><path d="M258.78,40.12c1.27.5,2.63.24,3.94.43,1.69.25,3.42.31,5.11.57a11.54,11.54,0,0,1,6.71,3.9,42.15,42.15,0,0,1,7.57,12.54,1.47,1.47,0,0,0,1.64,1.11c2.12-.09,4.24-.07,6.36,0,.85,0,1.18-.14,1.13-1.08-.09-1.84.05-3.69-.05-5.52-.06-1.07.35-1.2,1.29-1.2,7.19,0,14.39,0,21.59,0,4.44,0,8.88,0,13.32,0,1.13,0,1.6.16,1.51,1.45-.14,1.91,0,3.84-.06,5.75,0,.84.18,1.06,1,1.05,6.68,0,13.35,0,20,0a21.58,21.58,0,0,1,21.47,19.4,27.45,27.45,0,0,1,.16,2.87v84.34a20.16,20.16,0,0,1-20.36,20.54c-38.31.05-76.62.36-114.93-.11-23.23-.29-46.45-.05-69.68-.31a30.22,30.22,0,0,1-17.49-5.63,4.72,4.72,0,0,0-1.82-.81A49.73,49.73,0,0,1,109.08,139c-.28-1.73-.41-3.49-.6-5.23V128c.11-1.19.16-2.39.34-3.57q3.9-25.53,26.63-37.83a1.78,1.78,0,0,0,1.13-1.48A30.31,30.31,0,0,1,167,58.64q15.3,0,30.59,0a1.4,1.4,0,0,0,1.53-.93c2.28-4.76,4.74-9.42,8.4-13.3,1.76-1.86,3.75-3.38,6.44-3.57,1.48-.11,3-.14,4.43-.32s3,.08,4.42-.42h16.08a8.29,8.29,0,0,0,4.08,0Zm-6,2.12c-.08-.18-.3-.2-.36-.1s.14.18.23.25a21.88,21.88,0,0,1,3.36,2.87,44.7,44.7,0,0,1,7.44,12.47,1.25,1.25,0,0,0,1.38.93c4.08,0,8.16,0,12.23,0h3.33c-2.07-4.73-4.28-9.17-7.89-12.75A8.48,8.48,0,0,0,268,43.2,81.67,81.67,0,0,0,252.82,42.24ZM153.76,180.58a27.44,27.44,0,0,0,13.29,3.26q60.9,0,121.79,0c1.12,0,1.45-.22,1.45-1.41,0-19.51,0-39,0-58.55a29.93,29.93,0,0,1,1.44-9.31c2.22-6.88,6.52-11.65,13.69-13.62a91.45,91.45,0,0,1,13.4-2.53,188.89,188.89,0,0,1,19.61-1.24c.63,0,.94-.1.92-.84-.06-3,.06-5.92-.11-8.86a28.32,28.32,0,0,0-28.48-26.86H265.49c-.57,0-.83.06-.54.73.38.87.62,1.8,1,2.69.27.7-.06.93-.68,1s-1,.57-1.26-.4a30.16,30.16,0,0,0-1.14-3.27c-2-5-4.17-9.93-7.67-14.13a11.33,11.33,0,0,0-7.77-4.45c-4.81-.48-9.64-.72-14.47-.75-5.91,0-11.82.22-17.72.61a8.62,8.62,0,0,0-5.65,2.49A30.5,30.5,0,0,0,205,50.94a88,88,0,0,0-6.76,13.57c-.13.32-.05.85-.65.85-1.12,0-1.58-.66-1.16-1.7l.73-1.77c.52-1.24.52-1.24-.82-1.24-9.91,0-19.83-.08-29.75,0a27.74,27.74,0,0,0-22.69,11.41,27.16,27.16,0,0,0-5.37,13l1.11-.44a48.91,48.91,0,0,1,18.58-3.54c7.91,0,15.82.2,23.74.29q11.44.14,22.9.24c10.39.1,20.79.12,31.18.31a23.35,23.35,0,0,1,17.27,7.61c5.55,6,8.83,13.14,10.68,21a88.5,88.5,0,0,1,0,39.56,45.84,45.84,0,0,1-9.26,19.88c-4.32,5.23-9.57,8.58-16.61,8.65-6.15.06-12.3.3-18.45.46-12.54.32-25.08.71-37.62.93C172.62,180.16,163.21,180.71,153.76,180.58Zm167.48,3.66h2.5c9.52,0,19,.14,28.54-.13A18,18,0,0,0,369.53,166q0-42.59,0-85.17A19.77,19.77,0,0,0,349.7,61.05H323c.57.31.8.46,1,.58,11.15,5.77,17.13,14.95,17.24,27.47.21,22.11.06,44.23.06,66.34a30.44,30.44,0,0,1-18.68,28A2.84,2.84,0,0,0,321.24,184.24Zm-29-31.76v30.36c0,.51-.12,1,.74,1,6.55-.08,13.12.31,19.66-.15,15-1.06,26.44-12.9,26.59-27.75.19-18.63,0-37.27.06-55.9,0-.77-.22-.94-.93-.91-3,.16-6,.21-9,.39a123.63,123.63,0,0,0-21.24,2.75c-4.91,1.16-9.32,3.1-12.1,7.63a24.75,24.75,0,0,0-3.78,12.93C292.21,132.73,292.26,142.61,292.26,152.48ZM208.6,89.61l-.23.35a9.76,9.76,0,0,1,1.13.88q23.15,24.09,14.13,56.27c-.23.84-.11,1,.74,1q7.73,0,15.47,0c.79,0,1.06-.24,1.25-1a66.17,66.17,0,0,0,.6-29.1A60.94,60.94,0,0,0,228,90.32c-.3-.36-.55-.73-1.14-.73C220.74,89.62,214.67,89.61,208.6,89.61Zm-98.18,41.22a47.78,47.78,0,1,0,47.67-47.77A47.66,47.66,0,0,0,110.42,130.83Zm127.17,31.25c5.84,0,11.48-.14,17.1.07,2.3.09,3.32-.67,4.17-2.72a70.65,70.65,0,0,0,4.85-19.92c.1-1-.14-1.13-1-1.12-5.6,0-11.19.06-16.79,0-1.13,0-1.39.38-1.48,1.38a54.75,54.75,0,0,1-1.63,8.69A65.6,65.6,0,0,1,237.59,162.08ZM196,163.24c5.64-.16,11-.34,16.41-.46a1.69,1.69,0,0,0,1.55-.81,53.82,53.82,0,0,0,9.43-22c.24-1.36.26-1.35-1.11-1.29-4.71.2-9.41.42-14.12.58-.69,0-.94.18-1.06.88a47.78,47.78,0,0,1-2.93,9.84A51,51,0,0,1,196,163.24Zm43.62-58.31a62.58,62.58,0,0,1,4.84,17.47c.06.52.32.65.8.65h18c.6,0,.72-.2.68-.78a64.85,64.85,0,0,0-3.36-16.6c-.18-.53-.4-.76-1-.76C252.94,104.93,246.35,104.93,239.59,104.93Zm-26.14,61c.15.11.18.15.2.15,6.43-.23,12.85-.48,19.28-.7.51,0,.67-.34.88-.67a58.65,58.65,0,0,0,3.05-5.69,56.05,56.05,0,0,0,3.39-9H224.68c-2,0-2,0-2.78,1.81A60,60,0,0,1,213.45,165.92ZM202,106.85c0,.15-.07.2-.06.22a49.34,49.34,0,0,1,5.46,16.48c.09.65.39.64.87.62,2.07-.07,4.15-.1,6.22-.17,2.83-.09,5.66-.21,8.49-.31.39,0,.8.08.7-.6a54.06,54.06,0,0,0-5.06-16.37.88.88,0,0,0-.93-.56C212.46,106.4,207.24,106.62,202,106.85Zm30.24-14.44a62.44,62.44,0,0,1,6.14,10c.25.52.62.52,1.07.52,6.35,0,12.71,0,19.06,0,.89,0,.89-.26.58-.94a45,45,0,0,0-5.29-8.94,1.68,1.68,0,0,0-1.5-.71c-4.64,0-9.27,0-13.91,0Zm22.21,32.64c-3,0-5.91,0-8.87,0-.55,0-.84,0-.78.76a66.68,66.68,0,0,1,0,9.69c-.05.75.13.93.88.93q8.63,0,17.25,0c.77,0,1-.19,1.06-1,.06-3.19.22-6.37.09-9.57,0-.71-.29-.83-.92-.83C260.28,125.06,257.37,125.05,254.45,125.05Zm-37.3-20.81a2,2,0,0,0-.11-.41,56,56,0,0,0-7.81-10.43,1.63,1.63,0,0,0-1.3-.44c-3.63-.09-7.27-.22-10.9-.29-2.29,0-4.59,0-6.89,0a39.25,39.25,0,0,1,8.4,9.18c1.47,2.4,3.05,3.29,5.9,3C208.63,104.33,212.88,104.4,217.15,104.24Zm-1.65,32.7v-.3h7.41c.63,0,1-.07,1.07-.88a65,65,0,0,0,.11-8.14c-.14-1.87-.14-1.9-2-1.85-4.51.12-9,.27-13.52.39-.49,0-.83,0-.77.71a47,47,0,0,1-.14,9.56c-.08.7.12.9.81.86C210.79,137.15,213.15,137.05,215.5,136.94Zm40.87,27.15H237.21c-.31,0-.66-.09-.87.25-1,1.7-2.09,3.4-3.21,5.21,6.42-.15,12.67-.3,18.93-.47a1.22,1.22,0,0,0,1.08-.36A34.11,34.11,0,0,0,256.37,164.09Zm46.1-111.24c-2.8,0-5.59,0-8.38,0-.65,0-.91.13-.88.84.05,1.4.05,2.8,0,4.19,0,.65.21.8.82.79q8.37,0,16.76,0c.62,0,.83-.15.8-.79,0-1.4,0-2.8,0-4.19,0-.7-.2-.86-.86-.85C308,52.87,305.22,52.85,302.47,52.85Zm-90.78,112h-1.62c-4.63.13-9.26.31-13.89.37a4,4,0,0,0-3.27,1.26c-1.19,1.29-2.59,2.39-4.07,3.72h.7l17.24-.44c.23,0,.47.06.67-.14A42.49,42.49,0,0,0,211.69,164.81Zm-3.76,7.27,20.73-.72a.75.75,0,0,0,.65-.24c.89-1.19,1.78-2.38,2.79-3.71-.43,0-.59,0-.74,0l-19,.72a1.28,1.28,0,0,0-1,.32Zm17.51-84.44a42.25,42.25,0,0,0-3.31-3.19,2.72,2.72,0,0,0-2-.78c-3.59,0-7.18-.07-10.77-.1-2.77,0-5.53,0-8.61,0a58.27,58.27,0,0,1,5.05,3.82,1.25,1.25,0,0,0,.89.26Zm-23.8,89.8h.86l20.8-.52a1,1,0,0,0,.78-.21,30.18,30.18,0,0,0,3.16-3.23,2,2,0,0,0-.31-.11l-20.44.73a1.9,1.9,0,0,0-1.33.41C204.09,175.46,203,176.34,201.64,177.44Zm26.28-90.23c.83,1,1.51,1.68,2.12,2.47a1.58,1.58,0,0,0,1.41.66c6.27,0,12.55,0,18.83,0,.28,0,.63.17.87-.15-2-2.4-3.38-3-6.34-3H227.92Zm-27.47-1.29a9.32,9.32,0,0,0-6.62-2.54c-4.38.19-8.78,0-13.17-.09-2.41,0-4.81,0-7.39,0,1.86.75,3.58,1.41,5.27,2.14a5.94,5.94,0,0,0,2.42.51c4.39,0,8.78,0,13.18,0Zm6,4.69c-.56-.49-1.27-1.06-1.92-1.69a3.58,3.58,0,0,0-2.77-1.06c-5.63.06-11.27,0-16.91,0h-1.37c.89.58,1.54,1,2.14,1.4A5.11,5.11,0,0,0,189,90.44c2.11-.06,4.23.14,6.34.16C199,90.63,202.72,90.61,206.4,90.61ZM317.7,52.85c-1.11,0-2.23,0-3.35,0-.59,0-.85.11-.82.77.05,1.44,0,2.87,0,4.31,0,.63.15.85.83,1a59.71,59.71,0,0,0,6.68.21c.57,0,.76-.15.75-.73,0-1.6,0-3.19,0-4.78,0-.58-.16-.77-.74-.75C319.93,52.88,318.82,52.85,317.7,52.85ZM174.22,178c.27.25.55.14.81.14,7.18-.17,14.37-.39,21.55-.5,1.61,0,2.54-1,3.9-2H199c-5.7.17-11.41.48-17.12.45A18.75,18.75,0,0,0,174.22,178ZM205,171.77c-.44,0-.86,0-1.29,0-5.34.13-10.68.38-16,.34-2,0-3.17,1.12-4.63,1.95,5.72-.07,11.41-.21,17.1-.39C201.92,173.62,203.85,173.89,205,171.77Zm22,5.17c6.31-.75,12.62.62,18.5-2.07a3.16,3.16,0,0,0-1.13-.14c-4.51,0-9,.15-13.53,0A3.91,3.91,0,0,0,227,176.94Zm3.71-4.22c5.65,0,11.23,0,16.81,0a3.58,3.58,0,0,0,3.21-1.65c-6.21.16-12.25.32-18.28.45A1.71,1.71,0,0,0,230.71,172.72Zm12-87.48c-5.94-2.15-12.06-1.12-18.12-1.38.63.5.88,1.39,1.83,1.39Zm81-29.16c0,.8,0,1.59,0,2.39,0,.34,0,.63.47.62.72,0,1.44,0,2.15,0,.46,0,.5-.25.5-.61,0-1.68,0-3.35,0-5,0-.35,0-.56-.49-.63-2.3-.37-2.63-.11-2.63,2.18Z"/><path d="M132.78,236.92c.1-2,.1-2,2.06-2H324.7c1.85,0,1.85,0,1.52,2Z"/><path d="M336.54,236.92c.31-2,.31-2,2.47-2,5.45,0,10.91,0,16.36,0,1.2,0,1.79.23,1.54,1.52a1.86,1.86,0,0,0,0,.47Z"/><path d="M388.86,222c-3.55,0-7.11,0-10.66.07-.87,0-.75-.48-.74-1s-.21-1,.69-1c3.32,0,6.63,0,10,0a2.13,2.13,0,0,1,.76.25Z"/><path d="M108.3,128h.18v5.77h-.18Z"/><path d="M206.52,227.44h95.39c.62,0,1.36-.28,1.31.91,0,.89-.22,1.12-1.12,1.12q-95.64,0-191.27,0c-.74,0-1.12,0-1.14-1s.4-1,1.2-1Z"/><path d="M266.37,222.73H167.14c-.65,0-1.38.28-1.42-.9s.64-1.11,1.48-1.11H312.92q26.49,0,53,0c1,0,1.36.19,1.28,1.17-.05.68-.23,1-.95.86a6.42,6.42,0,0,0-.76,0Z"/><path d="M344.57,227.44h30a1.16,1.16,0,0,1,1.14,1.75c-.11.25-.27.25-.47.26H314.77c-.57,0-1.27.28-1.27-.84,0-.95.27-1.18,1.2-1.18C324.66,227.45,334.61,227.44,344.57,227.44Z"/><path d="M252.69,42.39c-.09-.07-.33-.09-.23-.25s.28-.08.36.1Z"/><path d="M230.23,63.93H211.88c-3.71,0-5.44-2.84-3.81-6.19a37.92,37.92,0,0,1,5.35-8.61,8.28,8.28,0,0,1,6.13-3,188.14,188.14,0,0,1,19.87-.05,10.91,10.91,0,0,1,9,5,40.51,40.51,0,0,1,4,7.71,3.54,3.54,0,0,1-3.43,5.11C242.78,63.94,236.5,63.93,230.23,63.93Zm0-2h18.59c1.5,0,2.31-.94,1.84-2.17A31.22,31.22,0,0,0,246,51.24a7.75,7.75,0,0,0-5.59-3,158.9,158.9,0,0,0-20.47-.14c-2.67.1-4.36,1.47-5.85,3.4a39.81,39.81,0,0,0-4.19,7.09c-1,2.1-.19,3.4,2.16,3.4Z"/><path d="M273.3,180.57c-4,0-7.91,0-11.87,0-.77,0-1-.18-1-1s.07-1,.94-1q12,.06,24.1,0c.88,0,.91.34.94,1s-.24,1-1,1C281.37,180.55,277.34,180.57,273.3,180.57Z"/><path d="M158.22,66.93c.06.48.07.95-.78,1a8.13,8.13,0,0,0-5.3,2.92,18.6,18.6,0,0,0-4,6.48c-.42,1.17-1,.6-1.64.46-.94-.2-.43-.77-.26-1.17a20.66,20.66,0,0,1,6-8.62,9.59,9.59,0,0,1,4.87-2.08C158.22,65.81,158.22,65.8,158.22,66.93Z"/><path d="M364.58,152.58c0-3.87,0-7.75,0-11.62,0-.82.17-1.08,1-1.07s1,.24,1,1q0,11.69,0,23.36c0,.88-.34.91-1,.94s-1-.22-1-1C364.6,160.33,364.58,156.45,364.58,152.58Z"/><path d="M354.25,179.57c-.32-.78.22-.86.91-1,3.34-.51,6.08-1.93,7.52-5.18.49-1.1,1.05-.14,1.55-.1.75.07.44.59.27,1-1.67,3.68-4.72,5.47-8.52,6.22-.2,0-.4,0-.6.07C354.3,180.75,354.3,180.75,354.25,179.57Z"/><path d="M301,155.66a14,14,0,1,1,14,14.11A14,14,0,0,1,301,155.66Zm26.06,0a12.05,12.05,0,1,0-12,12.11A12.13,12.13,0,0,0,327,155.69Z"/><path d="M301,124a14,14,0,1,1,13.95,14.06A14,14,0,0,1,301,124Zm26,.08a12,12,0,1,0-12.11,12A12.16,12.16,0,0,0,327,124.07Z"/><path d="M308.47,180.65c-1.52,0-3,0-4.55,0-.5,0-1.29.24-1.18-.82.08-.76.09-1.27,1.19-1.2a52.32,52.32,0,0,0,13.34-.71,10.76,10.76,0,0,0,3.79-1.39c.95-.62,1.07.45,1.49.81s-.12.67-.38.85a15.13,15.13,0,0,1-6.67,2.06c-2.33.3-4.68.39-7,.58Z"/><path d="M332.42,170.07c-.14.22-.25.44-.4.63a33.43,33.43,0,0,1-4,4c-.37.33-.63.25-.82-.14s-1.11-.75-.54-1.32a39.17,39.17,0,0,0,3.88-3.85c.29-.37.56-.16.83,0A2.92,2.92,0,0,1,332.42,170.07Z"/><path d="M232.85,119.57c-1.16,0-2.31,0-3.47,0a2.67,2.67,0,0,1-2.86-2.07A64.61,64.61,0,0,0,222,105.32a2.77,2.77,0,0,1,2.5-4c2.43-.11,4.87-.14,7.3-.18a3,3,0,0,1,2.87,1.77,46.6,46.6,0,0,1,4.59,12.27,9.81,9.81,0,0,1,.22,1.3,2.77,2.77,0,0,1-2.76,3.09C235.41,119.59,234.13,119.57,232.85,119.57Zm.1-2h2.88c1.58,0,1.81-.3,1.49-1.85a44.58,44.58,0,0,0-4.41-11.82,1.37,1.37,0,0,0-1.43-.81c-2.19.06-4.38.07-6.57.13-1.1,0-1.47.58-1,1.54a56.3,56.3,0,0,1,4.39,11.83,1.16,1.16,0,0,0,1.28,1C230.72,117.58,231.84,117.6,233,117.6Z"/><path d="M158.26,85.44a45.43,45.43,0,1,1-45.52,44.9A45.29,45.29,0,0,1,158.26,85.44Zm-43.52,45.42a43.45,43.45,0,1,0,44.47-43.47A43.47,43.47,0,0,0,114.74,130.86Z"/><path d="M124.58,130.84c0-18.85,14.94-33.66,34-33.63a33.64,33.64,0,1,1-34,33.63Zm2-.05a31.7,31.7,0,0,0,31.67,31.73c17.26,0,31.64-14.24,31.65-31.29,0-17.69-14-32.06-31.33-32.06A31.63,31.63,0,0,0,126.54,130.79Z"/><path d="M144,109.35c0,.44-.28.43-.46.51-3.2,1.47-5.08,4.14-6.49,7.22a1.34,1.34,0,0,1-2,.25c-.2-.23-.05-.45,0-.66,1.53-3.57,3.67-6.63,7.26-8.42.34-.17.82-.58,1.06-.33A4.59,4.59,0,0,1,144,109.35Z"/><path d="M133.83,124.23c-1.3-.07-1.57-.45-1.19-1.66.13-.41.26-.83.4-1.25.38-1.21.7-1.34,1.82-.79.32.16.42.33.32.65-.29.91-.57,1.82-.86,2.73C134.25,124.12,134.18,124.41,133.83,124.23Z"/></svg>