<svg id="Layer_1" data-name="Layer 1" xmlns="http://www.w3.org/2000/svg" viewBox="0 0 500 250"><title>illustration_professional</title><path d="M107.82,223.28c.52,0,1,0,1.56,0H300.15c.76,0,1.46-.17,1.4,1.08,0,1-.32,1.07-1.15,1.07q-96.3,0-192.58,0Z"/><path d="M131.1,232.88c0-2,0-2,2.06-2H322.61c1.82,0,1.82,0,2,1.76,0,.1.12.19.18.28Z"/><path d="M351.9,25v.17l-1.08,0H141.06l-1.08,0V25Z"/><path d="M334.86,232.88c.32-2,.32-2,2.53-2,5.44,0,10.87,0,16.3,0,1.22,0,1.67.31,1.47,1.51a1.67,1.67,0,0,0,.1.57Z"/><path d="M387.18,218.24a15.76,15.76,0,0,0-3.5-.1c-2.35,0-4.71,0-7.07,0-.87,0-.88-.43-.84-1s-.21-1.11.76-1.09c3.55.06,7.1,0,10.65.06Z"/><path d="M140,25.22l1.08,0H350.82l1.08,0c7.13.76,12.23,5,13.78,11.54a15.74,15.74,0,0,1,.39,3.69q0,66,0,132c0,1.11.18,1.48,1.38,1.44,3.56-.09,7.12,0,10.68-.05.79,0,1,.2,1,1-.06,1.72,0,3.44,0,5.16a8.55,8.55,0,0,1-8.49,8.72H123.74c-4.59,0-8.19-2.66-8.87-6.82-.41-2.48-.09-5-.13-7.55,0-.78.62-.45,1-.46,4,0,8,0,12,0,1,0,1.3-.23,1.3-1.29Q129,105.14,129,37.7c0-6,3.19-10.49,8.54-12C138.32,25.44,139.16,25.37,140,25.22ZM247.51,173.84q57.58,0,115.19,0c1.09,0,1.35-.28,1.34-1.36q0-38,0-76.07c0-18.52-.07-37,0-55.56a13.33,13.33,0,0,0-13.54-13.62q-104.74.15-209.5.06a9.54,9.54,0,0,0-9.91,9.87q0,67.66,0,135.34c0,1.12.31,1.33,1.36,1.33Q190,173.83,247.51,173.84Zm-.6,2.12H119.36a15.69,15.69,0,0,1-1.68,0c-.71-.06-1,.14-1,.92.07,1.11,0,2.24,0,3.35a6.34,6.34,0,0,0,2.65,5.13,7.5,7.5,0,0,0,4.76,1.26H369.42c.48,0,1,0,1.44,0a6.53,6.53,0,0,0,6.05-5.38c.23-1.23,0-2.47.17-3.7s-.3-1.55-1.54-1.54Q311.22,176,246.91,176Z"/><path d="M269.94,218.72q-46.92,0-93.83,0c-1.24,0-1.47-.4-1.35-1.47.05-.47.11-.76.67-.7a5.77,5.77,0,0,0,.72,0h187.9c.57,0,1.37-.39,1.37.84,0,1-.23,1.3-1.29,1.3Q317,218.71,269.94,218.72Z"/><path d="M342.83,225.44h-30c-.33,0-.88.19-1-.17a6,6,0,0,1,0-1.79c0-.06.26-.14.4-.15a7.85,7.85,0,0,1,.84,0h59.59a1.24,1.24,0,0,1,1.26,1.86c-.23.51-.7.25-1.05.25q-12.1,0-24.22,0Z"/><path d="M247.94,167.36H152.31c-8,0-13.87-5.66-13.88-13.64q0-48.78,0-97.55c0-7.91,5.9-13.61,13.81-13.61H343.51c8.09,0,13.87,5.8,13.87,13.9v97.31a13.34,13.34,0,0,1-13.57,13.59Zm-.05-122.68h-96.1A11.25,11.25,0,0,0,140.51,56q0,49.06,0,98.14a10.72,10.72,0,0,0,.81,4.08c1.88,4.59,5.92,7.15,11.28,7.15H343.73a11.34,11.34,0,0,0,11.57-11.74V56.28a11.22,11.22,0,0,0-11.55-11.6Z"/><path d="M249.22,35.3a5,5,0,0,1-5.14,5.14,5.12,5.12,0,1,1,.08-10.24A5,5,0,0,1,249.22,35.3ZM244,38.37a3.16,3.16,0,0,0,3.26-3,3.21,3.21,0,0,0-3-3.16,3.18,3.18,0,0,0-3.19,2.94A3.11,3.11,0,0,0,244,38.37Z"/><path d="M259.38,35.33A2.39,2.39,0,0,1,257,37.76a2.48,2.48,0,0,1-2.46-2.44,2.41,2.41,0,0,1,2.46-2.4A2.35,2.35,0,0,1,259.38,35.33Z"/><path d="M270.47,159.92H197.64c-3.23,0-5.06-1.8-5.06-5V73.16c0-3.15,1.83-5,5-5,.88,0,1.76,0,2.64,0H342.86a5.61,5.61,0,0,1,3.94,1.07,4.57,4.57,0,0,1,1.62,3.59c0,1.2,0,2.4,0,3.6v78.36c0,2.75-1.17,4.5-3.45,5.06a6.67,6.67,0,0,1-1.55.12Zm.06-89.72h-72.7c-2.28,0-3.13.84-3.13,3.09v81.47c0,2.25.85,3.12,3.1,3.12H343.22c2.29,0,3.16-.88,3.16-3.21V73.44c0-2.37-.88-3.24-3.26-3.24Z"/><path d="M146.9,104.62V54.47c0-3.29,1.71-5,5-5H183.6c3.34,0,5.1,1.76,5.1,5.09V154.86c0,3.26-1.79,5.06-5,5.06H151.78c-3.09,0-4.88-1.8-4.88-4.91Zm39.68.17V54.65c0-2.33-.83-3.17-3.17-3.17H152.22c-2.41,0-3.32.91-3.32,3.33v99.81c0,2.38.87,3.26,3.24,3.26h31.31c2.36,0,3.13-.79,3.13-3.18Z"/><path d="M243.54,64H198c-3.63,0-5.37-1.72-5.37-5.34,0-1.32,0-2.64,0-4,0-3.08,1.89-4.9,5-4.9h92.13c3.16,0,5,1.79,5,5q0,2.1,0,4.2c0,3.27-1.79,5-5.05,5Zm.13-2.08h45.94c2.09,0,3-.89,3-3V55.29c0-2.74-.75-3.49-3.47-3.49H198.2c-.36,0-.72,0-1.08,0a2.44,2.44,0,0,0-2.41,2.59c0,1.4,0,2.8,0,4.2,0,2.52.75,3.28,3.27,3.28Z"/><path d="M323.7,64H304c-3.31,0-5.11-1.8-5.12-5.1,0-1.48,0-3,0-4.44a4.49,4.49,0,0,1,4.7-4.66h40.08a4.45,4.45,0,0,1,4.74,4.6c0,1.6,0,3.2,0,4.8a4.5,4.5,0,0,1-4.8,4.8Zm-.11-2.08h19.79c2.09,0,3-.89,3-3,0-1.35,0-2.71,0-4.07,0-2.08-.93-3-3-3H304.15c-2.27,0-3.14.85-3.16,3.08q0,2,0,4c0,2.18.88,3,3.05,3Z"/><path d="M271.14,140.6H205.28a1.39,1.39,0,0,1-1.62-1.5,1.37,1.37,0,0,1,1.6-1.39h131a6.85,6.85,0,0,1,1.2,0,1.28,1.28,0,0,1,1.12,1.46,1.23,1.23,0,0,1-1.1,1.34,6.85,6.85,0,0,1-1.2,0Z"/><path d="M271.14,127.88h65.49c1.4,0,1.93.37,1.95,1.36a1.25,1.25,0,0,1-1.13,1.44,8.16,8.16,0,0,1-1.31.08h-130c-1.77,0-2.52-.46-2.47-1.53s.68-1.35,2.49-1.35Z"/><path d="M271.26,76.2h65.27c1.51,0,2,.35,2.05,1.39a1.29,1.29,0,0,1-1.24,1.47c-.4,0-.8,0-1.2,0h-130c-1.78,0-2.41-.36-2.45-1.39s.66-1.49,2.48-1.49Z"/><path d="M271.13,88.92H205.87a4.52,4.52,0,0,1-1.43-.11,1.29,1.29,0,0,1-.78-1.36,1.34,1.34,0,0,1,.9-1.29,3.19,3.19,0,0,1,1.18-.12H336.52c1.49,0,2.1.45,2.06,1.53a1.22,1.22,0,0,1-1.22,1.34c-.36,0-.72,0-1.08,0Z"/><path d="M271,120.84H206c-.36,0-.72,0-1.08,0a1.29,1.29,0,0,1-1.25-1.36,1.31,1.31,0,0,1,1-1.44,5.22,5.22,0,0,1,1.19-.07H336.4c1.62,0,2.23.42,2.18,1.52a1.24,1.24,0,0,1-1.22,1.35c-.36,0-.72,0-1.08,0Z"/><path d="M271.13,147.64h65.49c.94,0,1.83,0,1.95,1.22a1.36,1.36,0,0,1-1.22,1.63,6.74,6.74,0,0,1-1.19,0h-130a7.1,7.1,0,0,1-1.31-.07,1.31,1.31,0,0,1-1.13-1.58,1.24,1.24,0,0,1,1.35-1.23h66.1Z"/><path d="M271.14,97.28h65.5c1.43,0,2,.44,1.94,1.49a1.31,1.31,0,0,1-1.24,1.37,7.76,7.76,0,0,1-1.08,0H206a6.74,6.74,0,0,1-1.19,0,1.32,1.32,0,0,1-1.12-1.48,1.28,1.28,0,0,1,1.26-1.35c.36,0,.72,0,1.08,0Z"/><path d="M271,110H205.75a2.44,2.44,0,0,1-1.41-.17,1.41,1.41,0,0,1-.67-1.43,1.32,1.32,0,0,1,1.11-1.25,5.11,5.11,0,0,1,1,0H336.51c1.49,0,2.11.45,2.07,1.52a1.24,1.24,0,0,1-1.22,1.35c-.36,0-.72,0-1.08,0Z"/><path d="M181.14,89.12c0,4,0,8,0,12,0,3-1.8,4.84-4.83,4.84q-8.58,0-17.15,0a4.45,4.45,0,0,1-4.77-4.69q0-12.17,0-24.35a4.42,4.42,0,0,1,4.55-4.69q8.82-.12,17.64,0c2.83,0,4.55,2,4.56,4.78C181.15,81,181.14,85.08,181.14,89.12Zm-2,0V77.28c0-2.07-.93-3-3-3H159.55c-2.22,0-3,.83-3,3q0,11.81,0,23.62c0,2.1.89,3,3,3h16.67c2,0,3-1,3-2.94Z"/><path d="M167.8,54.28h8.75a4.38,4.38,0,0,1,4.59,4.48q0,2.58,0,5.16a4.42,4.42,0,0,1-4.44,4.54q-8.94.09-17.88,0a4.39,4.39,0,0,1-4.39-4.22,52.52,52.52,0,0,1,0-5.75,4.36,4.36,0,0,1,4.49-4.21Zm0,12.08c2.88,0,5.76,0,8.63,0a2.44,2.44,0,0,0,2.67-2.57c0-1.63,0-3.27,0-4.91a2.46,2.46,0,0,0-2.56-2.58c-5.84,0-11.67,0-17.51,0a2.42,2.42,0,0,0-2.51,2.6q0,2.4,0,4.8a2.38,2.38,0,0,0,2.65,2.66C162,66.37,164.92,66.36,167.79,66.36Z"/></svg>