<svg id="Layer_1" data-name="Layer 1" xmlns="http://www.w3.org/2000/svg" viewBox="0 0 500 250"><title>wd_email</title><path d="M362.16,56.19c8.55.62,14.79,7.51,16.11,15.65a22.55,22.55,0,0,1,.23,3.67q0,59.91,0,119.82a21.45,21.45,0,0,1-2.19,9.93c-.06.14-.11.29-.17.44a2.09,2.09,0,0,0,1.09.11c5,0,10,0,14.95-.07,8.28-.16,16.56-.11,24.84-.18,1.32,0,2.64-.11,4-.16v2.52l-20.77.17-25.14.2c-.29,0-.6-.09-.82.18a23.8,23.8,0,0,1-4,3.79,27.32,27.32,0,0,0,3.29,0q13.68-.12,27.37-.2c3.17,0,6.34,0,9.51-.07.68,0,1,.17.87.86a2.59,2.59,0,0,0,0,.68c.1.67-.16.88-.84.88-3.66,0-7.31.07-11,.12-6.95.09-13.91,0-20.87.17-6,.13-12,.17-18,.23-13.89.14-27.77,0-41.66,0H137.63a14.62,14.62,0,0,1-6.5-1.35c-7.21-3.52-10.79-9.48-10.8-17.34q-.14-60.58,0-121.18A20.44,20.44,0,0,1,121,69.8a18,18,0,0,1,17.48-13.64q111.24.14,222.47.05ZM196.34,135.82l-.14-.24-.26-.32-.31-.47q-4.44-6.36-8.86-12.73a1.16,1.16,0,0,0-.24.16,3.5,3.5,0,0,0-.24.3c-6.14,7.78-14.13,11.21-24,9.85a24.77,24.77,0,0,1-20.89-28.82c1.64-9.85,7.54-16.43,17-19.77,1.11-.39,1.32-.13.42-1.39-5.28-7.51-10.58-15-15.82-22.56a2.49,2.49,0,0,0-2.43-1.26c-2.56.07-5.11,0-7.58.84-6,2.18-10.32,8.57-10.32,15.49V184.12a2,2,0,0,0,.12,1.08c.23-.14.45-.27.65-.41l12-8.4,37.34-26.18,21.53-15.08c.34-.24.67-.71,1.16-.2a.65.65,0,0,0,.3.46l.24.35.16.23.25.33c.1.49-.34.57-.61.76q-13.05,9.16-26.13,18.32-23.2,16.27-46.41,32.52a1.25,1.25,0,0,0-.61,1.19c0,2.26,0,4.53,0,6.79a18.23,18.23,0,0,0,1,6.09c2.16,6.33,7.78,10.58,14,10.58H361.1a12.9,12.9,0,0,0,2.7-.29A16,16,0,0,0,376,198.09c.25-3.07.06-6.14.15-9.21a1.25,1.25,0,0,0-.66-1.09l-18-14.18Q330,152,302.62,130.32c-.63-.5-.92-.46-1.43.14q-9.42,11-18.88,22-12.07,14.07-24.14,28.14c-4.06,4.72-9.2,7.33-15.47,7.18a19,19,0,0,1-15.57-8.36c-6.89-9.62-13.64-19.35-20.45-29L196.6,136.16ZM145.25,58.65a3.37,3.37,0,0,0,.25.48q8.17,11.64,16.34,23.27a.87.87,0,0,0,1,.4,23.71,23.71,0,0,1,7.52.11,25.08,25.08,0,0,1,18.2,35.9,1.5,1.5,0,0,0,.15,1.8q7.22,10.17,14.36,20.38c8.67,12.33,17.3,24.69,26,37a16.65,16.65,0,0,0,14,7.4A16.82,16.82,0,0,0,256.32,179q16.73-19.47,33.41-39L322,102.5q16.9-19.69,33.8-39.41c1.23-1.43,2.45-2.87,3.79-4.44ZM376.11,185.19v-1.41q0-53.94,0-107.88a25,25,0,0,0-.37-4.24,15.8,15.8,0,0,0-12-12.81,1.42,1.42,0,0,0-1.58.54q-13.42,15.72-26.9,31.39-15.58,18.16-31.18,36.3c-.51.6-.54.89.12,1.4q10.69,8.39,21.34,16.82L368.21,179ZM188.75,107.61a22.64,22.64,0,1,0-23.05,22.64A22.71,22.71,0,0,0,188.75,107.61Z"/><path d="M195.63,134.79l.31.47-.15.13a.65.65,0,0,1-.3-.46Z"/><path d="M195.94,135.26l.26.32-.17.16-.24-.35Z"/><path d="M196.44,136.3c-.08-.11-.17-.22-.25-.34l.15-.14.26.34Z"/><path d="M196.2,135.58c0,.08.09.16.14.24l-.15.14c-.05-.07-.1-.15-.16-.22Z"/><path d="M344.3,64.37h-4.22c-1.72,0-3.43,0-5.14,0-.58,0-.81-.14-.79-.76.06-2.14-.22-1.7,1.65-1.71,4.3,0,8.6,0,12.9,0h1.19c-.51.59-.87,1-1.25,1.43q-9.3,10-18.61,20c-.24.25-.47.82-.87.57a4.15,4.15,0,0,1-1.5-1.47c-.12-.23.29-.46.48-.67q6.36-6.87,12.73-13.72Z"/><path d="M244.45,176.88a8.69,8.69,0,0,1-5.45-1.71c-.49-.35-.57-.63-.07-1a1,1,0,0,0,.2-.22c.58-.84,1.11-.92,2.08-.33,2.3,1.41,4.72,1,7-.1a20.05,20.05,0,0,0,5.6-4.43,118.23,118.23,0,0,0,10-11.32c.24-.32.45-.39.8-.15,1.91,1.38,1.88.75.5,2.49a106.06,106.06,0,0,1-12.32,13.28A12.42,12.42,0,0,1,244.45,176.88Z"/><path d="M302.37,136.38l.56.3c2.27,1.36,4.53,2.74,6.82,4.08.56.32.58.59.26,1.12-.84,1.4-.82,1.42-2.21.59s-2.85-1.67-4.24-2.56c-.53-.34-.83-.34-1.26.18q-9.68,11.57-19.38,23.11c-3,3.57-6,7.12-9,10.71-.52.63-.88.71-1.41.09a1.92,1.92,0,0,0-.52-.42c-.58-.35-.48-.68-.09-1.13,3.16-3.73,6.29-7.47,9.43-11.21q10-11.91,20-23.84A4.4,4.4,0,0,1,302.37,136.38Z"/><path d="M349.39,206c-.84,0-1.68,0-2.52,0-.47,0-.65-.18-.56-.64a.38.38,0,0,1,0-.1c.13-1.68.13-1.64,1.82-1.64a30.4,30.4,0,0,0,9.93-1.31c2.49-.85,4.29-2.32,4.86-5,.22-1,.61-2.05.76-3.09.13-.83.45-1.05,1.26-1,1.47.07,1.47,0,1.18,1.47s-.69,2.61-1,3.92a8.28,8.28,0,0,1-5.17,5.64A26.64,26.64,0,0,1,349.39,206Z"/><path d="M194.28,145.53c-.19.14-.41.27-.62.42-2.5,1.78-5,3.55-7.49,5.36-.57.42-.89.5-1.33-.19-.83-1.29-.88-1.26.42-2.19,3-2.15,6-4.27,9-6.44.63-.47.95-.48,1.4.22,1.79,2.77,3.63,5.5,5.48,8.23.39.56.3.82-.26,1.17-1.36.86-1.34.89-2.23-.45-1.24-1.86-2.47-3.72-3.72-5.57C194.76,145.87,194.68,145.55,194.28,145.53Z"/><path d="M313.36,145.56l.53.4q6.63,5.31,13.28,10.59c.56.45.49.74.09,1.23-1,1.24-1,1.25-2.21.26q-6.26-5-12.5-10c-.24-.19-.77-.34-.49-.79A18,18,0,0,1,313.36,145.56Z"/><path d="M334.94,203.48c1.65,0,3.3,0,4.94,0,.7,0,.88.22.86.88-.06,1.94.2,1.59-1.57,1.6-3,0-6.07,0-9.1,0-.79,0-1-.24-.95-1,.05-1.51,0-1.51,1.57-1.51Z"/><path d="M343.69,91.28c-.14.19-.26.37-.41.54l-21.91,26.07c-2.14,2.55-4.27,5.11-6.43,7.65-.44.51-.51.79.09,1.28,2.15,1.72,4.22,3.53,6.35,5.26.55.44.65.7.14,1.27-1,1.16-1,1.2-2.2.21-2.61-2.16-5.21-4.35-7.84-6.5-.5-.41-.49-.65-.08-1.13q14.88-17.67,29.72-35.35c.78-.94.8-.94,1.75-.11C343.15,90.72,343.53,90.88,343.69,91.28Z"/><path d="M347.13,87.67a11.32,11.32,0,0,1-1.42-1.51c-.27-.4.31-.63.56-.89,1.47-1.5,3-3,4.44-4.47.41-.43.67-.54,1.15,0,1.18,1.23,1.21,1.2,0,2.42s-2.69,2.7-4.05,4C347.63,87.39,347.5,87.64,347.13,87.67Z"/><path d="M179.28,108.15a12.82,12.82,0,0,0-2.7-8.32c-.53-.68-.52-1.08,0-1.68,1-1.05,1-1.08,1.83,0A15.92,15.92,0,0,1,168,123.66a15.69,15.69,0,0,1-12.32-3.49c-.31-.24-.92-.51-.73-.9a6.14,6.14,0,0,1,1.35-1.62c.19-.18.43.19.61.35a13.45,13.45,0,0,0,21.19-4.6A11.79,11.79,0,0,0,179.28,108.15Z"/><path d="M165.09,92c1.18,0,1.06,0,1,1.21s-.51,1.29-1.52,1.34c-6.77.37-12.36,6.65-12.22,13.64a12.73,12.73,0,0,0,1.93,6.61,1.09,1.09,0,0,1-.14,1.57c-1.1,1.21-1.07,1.23-1.93-.18a15.92,15.92,0,0,1,11.52-24Z"/><path d="M163.5,116.06a3.94,3.94,0,0,1-2.88-1.24,13.9,13.9,0,0,1-2.55-3.39c-.25-.42-.1-.58.28-.79,1.53-.83,1.53-.84,2.47.58,1.7,2.59,2.57,2.85,5.66,1.74.29-.1.66-.49.93,0s.58,1.22.84,1.83c0,0-.24.18-.38.25A12.68,12.68,0,0,1,163.5,116.06Z"/><path d="M169.16,92.35a15.65,15.65,0,0,1,6.29,2.86c.24.18.26.33.06.55-.37.41-.74.82-1.08,1.24s-.51.14-.74,0A13,13,0,0,0,169,94.81c-.53-.11-.69-.36-.54-.88a5.3,5.3,0,0,0,.13-1.06C168.58,92.49,168.7,92.24,169.16,92.35Z"/></svg>