<svg id="Layer_1" data-name="Layer 1" xmlns="http://www.w3.org/2000/svg" viewBox="0 0 500 250"><title>wd_email</title><path d="M390.08,22.74C400.65,23.5,408.36,32,410,42.08a27.56,27.56,0,0,1,.29,4.54q0,74,0,148A26.68,26.68,0,0,1,407.6,207a4.33,4.33,0,0,0-.21.54,2.52,2.52,0,0,0,1.34.14c6.15,0,12.31,0,18.47-.08,10.23-.21,20.47-.15,30.7-.23,1.64,0,3.27-.13,4.9-.2v3.12l-25.67.21-31.06.24c-.35,0-.74-.11-1,.22a29.32,29.32,0,0,1-5,4.69,33.85,33.85,0,0,0,4.06,0q16.92-.16,33.83-.26c3.92,0,7.84,0,11.76-.08.83,0,1.19.21,1.07,1.06a3.36,3.36,0,0,0,0,.84c.13.83-.19,1.09-1,1.09-4.51,0-9,.09-13.55.15-8.59.11-17.19,0-25.78.21-7.44.15-14.87.21-22.3.28-17.16.17-34.32.06-51.48.06h-224a18,18,0,0,1-8-1.67c-8.91-4.34-13.33-11.71-13.35-21.42q-.15-74.88,0-149.75A25.06,25.06,0,0,1,92,39.56a22.28,22.28,0,0,1,21.6-16.86q137.46.16,274.91.06Zm-204.9,98.4-.18-.29-.32-.41-.39-.57-10.94-15.73a2.87,2.87,0,0,0-.3.19c-.11.12-.2.25-.3.37-7.58,9.62-17.45,13.86-29.61,12.17a30.6,30.6,0,0,1-25.81-35.61c2-12.16,9.32-20.3,21-24.42,1.37-.49,1.62-.16.52-1.73-6.53-9.28-13.08-18.55-19.55-27.87a3.12,3.12,0,0,0-3-1.56c-3.16.09-6.31-.06-9.36,1-7.47,2.69-12.76,10.59-12.76,19.13q0,67.49,0,135a2.4,2.4,0,0,0,.15,1.35c.28-.19.54-.34.79-.52q7.42-5.18,14.83-10.38l46.14-32.34,26.62-18.64c.41-.29.82-.88,1.42-.25a.85.85,0,0,0,.37.57l.31.43.19.28.31.41c.12.61-.42.71-.75.94l-32.3,22.65q-28.67,20.09-57.35,40.17a1.56,1.56,0,0,0-.75,1.47q0,4.2,0,8.4a22.66,22.66,0,0,0,1.25,7.53C98.07,210.71,105,216,112.69,216H388.77a15.44,15.44,0,0,0,3.33-.36c8.06-1.73,14.35-9.1,15-17.52.31-3.79.08-7.59.19-11.38a1.57,1.57,0,0,0-.82-1.35l-22.23-17.52q-33.9-26.75-67.78-53.49c-.78-.62-1.14-.58-1.77.16q-11.64,13.65-23.33,27.23-14.91,17.38-29.83,34.77c-5,5.84-11.37,9.06-19.12,8.88a23.44,23.44,0,0,1-19.23-10.33c-8.52-11.89-16.86-23.91-25.28-35.87q-6.21-8.82-12.45-17.63ZM122,25.78c.14.27.21.45.31.6q10.1,14.37,20.2,28.75a1.07,1.07,0,0,0,1.2.5,29.3,29.3,0,0,1,9.3.13,31,31,0,0,1,22.49,44.36,1.86,1.86,0,0,0,.18,2.22q8.91,12.57,17.75,25.19c10.71,15.24,21.38,30.51,32.17,45.69A20.56,20.56,0,0,0,243,182.37c6.65,0,12-2.85,16.32-7.84q20.67-24.06,41.29-48.16L340.42,80q20.9-24.34,41.77-48.7c1.52-1.77,3-3.55,4.68-5.49ZM407.32,182.15v-1.74q0-66.66,0-133.31a30.76,30.76,0,0,0-.45-5.25A19.56,19.56,0,0,0,392,26a1.75,1.75,0,0,0-1.94.68q-16.6,19.41-33.25,38.79-19.26,22.44-38.53,44.85c-.63.74-.66,1.1.14,1.73q13.21,10.37,26.38,20.79l52.74,41.58ZM175.79,86.28a28,28,0,0,0-27.92-28c-15.17,0-27.91,12.55-28,27.53a28,28,0,1,0,55.93.43Z"/><path d="M184.29,119.87l.39.57-.19.17a.85.85,0,0,1-.37-.57Z"/><path d="M184.68,120.44l.32.41-.2.19-.31-.43Z"/><path d="M185.3,121.73l-.31-.41.19-.18.32.42Z"/><path d="M185,120.85l.18.29-.19.18-.19-.28Z"/><path d="M368,32.85H362.8c-2.12,0-4.24,0-6.36,0-.71,0-1-.18-1-.93.07-2.65-.27-2.11,2-2.13,5.31,0,10.63,0,15.94,0h1.47c-.64.74-1.07,1.27-1.54,1.78q-11.5,12.38-23,24.75c-.29.32-.58,1-1.07.71a5,5,0,0,1-1.85-1.82c-.15-.29.36-.57.6-.82q7.84-8.49,15.73-17C365.11,36,366.43,34.56,368,32.85Z"/><path d="M244.62,171.88a10.69,10.69,0,0,1-6.72-2.11c-.62-.43-.71-.79-.09-1.25a1.55,1.55,0,0,0,.24-.27c.72-1,1.37-1.14,2.58-.41,2.84,1.74,5.82,1.28,8.7-.12a25,25,0,0,0,6.91-5.48,148,148,0,0,0,12.38-14c.29-.4.55-.5,1-.19,2.37,1.7,2.33.92.63,3.08A131.35,131.35,0,0,1,255,167.55,15.4,15.4,0,0,1,244.62,171.88Z"/><path d="M316.2,121.84c.27.14.49.24.69.36,2.81,1.68,5.6,3.39,8.43,5,.7.4.72.74.32,1.39-1,1.73-1,1.75-2.73.72s-3.52-2-5.23-3.15c-.66-.42-1-.42-1.56.21q-12,14.31-24,28.56c-3.7,4.41-7.42,8.8-11.09,13.23-.64.78-1.09.89-1.74.12a2.7,2.7,0,0,0-.65-.52c-.71-.43-.59-.83-.11-1.4,3.9-4.6,7.78-9.23,11.66-13.84q12.36-14.75,24.74-29.47A5,5,0,0,1,316.2,121.84Z"/><path d="M374.31,207.84c-1,0-2.08,0-3.12,0-.59,0-.8-.23-.7-.79a.49.49,0,0,0,0-.12c.17-2.08.17-2,2.25-2A37.57,37.57,0,0,0,385,203.29c3.07-1,5.3-2.87,6-6.21.27-1.29.75-2.53,1-3.83.15-1,.55-1.29,1.54-1.24,1.82.08,1.82,0,1.47,1.81s-.85,3.24-1.29,4.85a10.24,10.24,0,0,1-6.39,7A33,33,0,0,1,374.31,207.84Z"/><path d="M182.63,133.14l-.77.52c-3.09,2.2-6.19,4.39-9.25,6.63-.71.52-1.11.61-1.65-.24-1-1.6-1.08-1.56.52-2.71,3.7-2.65,7.42-5.27,11.1-8,.78-.57,1.17-.59,1.73.28,2.21,3.41,4.48,6.8,6.78,10.16.47.7.36,1-.33,1.45-1.67,1.07-1.65,1.1-2.76-.56-1.53-2.29-3.05-4.59-4.59-6.88C183.23,133.56,183.12,133.16,182.63,133.14Z"/><path d="M329.78,133.17l.66.5c5.46,4.37,10.92,8.75,16.4,13.09.7.55.61.91.11,1.52-1.24,1.53-1.2,1.54-2.72.32q-7.73-6.18-15.45-12.37c-.29-.23-1-.42-.61-1A23.37,23.37,0,0,1,329.78,133.17Z"/><path d="M356.45,204.75c2,0,4.07,0,6.1,0,.86,0,1.09.27,1.06,1.09-.08,2.4.25,2-1.94,2-3.75,0-7.5,0-11.24,0-1,0-1.2-.3-1.17-1.21.06-1.87,0-1.87,1.93-1.87Z"/><path d="M367.26,66.11c-.17.22-.33.45-.5.66L339.68,99c-2.64,3.15-5.28,6.31-7.95,9.44-.55.64-.63,1,.12,1.59,2.65,2.12,5.21,4.36,7.85,6.5.67.54.79.87.16,1.57-1.28,1.43-1.24,1.48-2.71.26-3.23-2.68-6.44-5.38-9.69-8-.62-.5-.6-.8-.1-1.39q18.38-21.83,36.72-43.69c1-1.15,1-1.16,2.16-.13C366.59,65.41,367.06,65.61,367.26,66.11Z"/><path d="M371.51,61.64a14.12,14.12,0,0,1-1.76-1.86c-.33-.5.39-.79.69-1.1,1.82-1.86,3.68-3.67,5.5-5.53.5-.52.82-.67,1.41-.06,1.47,1.51,1.5,1.48,0,3-1.67,1.66-3.33,3.34-5,5C372.12,61.29,372,61.6,371.51,61.64Z"/><path d="M164.09,87a15.82,15.82,0,0,0-3.34-10.28c-.65-.85-.64-1.34.07-2.08,1.24-1.29,1.2-1.33,2.27.06a19.67,19.67,0,0,1-12.9,31.46,19.43,19.43,0,0,1-15.23-4.3c-.37-.31-1.13-.63-.89-1.12a7.74,7.74,0,0,1,1.66-2c.23-.21.53.24.76.44a16.61,16.61,0,0,0,26.18-5.68A14.55,14.55,0,0,0,164.09,87Z"/><path d="M146.56,67c1.45,0,1.3,0,1.26,1.5s-.63,1.59-1.88,1.66c-8.37.45-15.27,8.21-15.09,16.85a15.76,15.76,0,0,0,2.37,8.17,1.34,1.34,0,0,1-.17,1.94c-1.35,1.49-1.32,1.52-2.39-.23A19.67,19.67,0,0,1,144.9,67.17Z"/><path d="M144.59,96.72A4.86,4.86,0,0,1,141,95.19,17.43,17.43,0,0,1,137.88,91c-.31-.53-.12-.73.35-1,1.89-1,1.89-1,3.05.73,2.1,3.19,3.17,3.51,7,2.15.36-.13.81-.62,1.14,0a22.06,22.06,0,0,1,1,2.26s-.3.21-.47.3A15.45,15.45,0,0,1,144.59,96.72Z"/><path d="M151.58,67.42A19.44,19.44,0,0,1,159.37,71c.29.22.31.41.06.68-.46.5-.91,1-1.33,1.54s-.63.16-.92-.05a15.81,15.81,0,0,0-5.84-2.66c-.66-.15-.85-.45-.66-1.09a6.34,6.34,0,0,0,.15-1.31C150.87,67.6,151,67.29,151.58,67.42Z"/></svg>