<svg id="Layer_1" data-name="Layer 1" xmlns="http://www.w3.org/2000/svg" viewBox="0 0 128 128"><title>wd_journalistic_minimal</title><path d="M120,20.41l-4.29-3.55a3,3,0,0,0-2.24-.68,3.06,3.06,0,0,0-2.06,1.12l-2,2.42L103,27.18a11.15,11.15,0,0,0-10.9-8.85H90.62V15.58a4.4,4.4,0,0,0-4.39-4.39h-.35a4.4,4.4,0,0,0-4.39,4.39v2.75H45V16a4.4,4.4,0,0,0-4.39-4.39h-.35A4.4,4.4,0,0,0,35.88,16v2.29H33A11.16,11.16,0,0,0,21.83,29.47V88.63A11.16,11.16,0,0,0,33,99.78H92.14a11.16,11.16,0,0,0,11.14-11.15V46.83l-2,2.29V83.34a9.39,9.39,0,0,1-9.38,9.38H33.21a9.4,9.4,0,0,1-9.39-9.38V41.62H90.6L78.91,55.19a5.36,5.36,0,0,0-1.07,1.94l-2.41,8.05A1.82,1.82,0,0,0,76,67.1a1.79,1.79,0,0,0,1.19.45,1.9,1.9,0,0,0,.8-.18l8-3.79a3.31,3.31,0,0,0,1.16-.9l30.54-35.31,2.64-3.05a2.73,2.73,0,0,0,.66-2A2.68,2.68,0,0,0,120,20.41ZM101.51,89a9.39,9.39,0,0,1-9.12,9V94.45A11.13,11.13,0,0,0,101.51,89Zm-68.3,5.51H91.32V98H33a9.39,9.39,0,0,1-9.37-9A11.14,11.14,0,0,0,33.21,94.48ZM110,21.79l.66.58-1.2,1.42-.69-.57ZM83.25,25.65h5.61v.41a2.63,2.63,0,0,1-2.63,2.63h-.35a2.63,2.63,0,0,1-2.63-2.63Zm0-8.69h0V15.58A2.63,2.63,0,0,1,85.88,13h.35a2.63,2.63,0,0,1,2.63,2.63v2.75h0v2h0v4.25H83.25V22h0Zm-45.6,3.36h0v-2h0V16a2.63,2.63,0,0,1,2.63-2.63h.35A2.63,2.63,0,0,1,43.25,16v1.14h0v5.73h0v3.61a2.63,2.63,0,0,1-2.63,2.63h-.35a2.63,2.63,0,0,1-2.63-2.63ZM23.82,39.86V29.7a9.4,9.4,0,0,1,9.39-9.38h2.67v6.2a4.4,4.4,0,0,0,4.39,4.39h.35A4.4,4.4,0,0,0,45,26.52v-6.2H81.49v5.74a4.4,4.4,0,0,0,4.39,4.39h.35a4.4,4.4,0,0,0,4.39-4.39V20.32h1.29a9.39,9.39,0,0,1,9.36,8.91L92.11,39.86Zm69.07,1.76h0l1.52-1.76h0l13.2-15.33,3.44,2.86L83.78,59.26l-3.55-2.95ZM77.24,65.8a.09.09,0,0,1-.11,0,.11.11,0,0,1,0-.12l2.34-7.77,5.25,4.38Zm8.88-4.58-1-.85L112.39,28.5l1.18,1Zm28.58-33-3.93-3.27,1.17-1.39,3.86,3.39Zm4.32-5-2.08,2.4-5.84-5.11,1.67-2.08a1.29,1.29,0,0,1,1.83-.19l4.3,3.55a1,1,0,0,1,.36.69A1,1,0,0,1,119,23.18Z"/><path d="M39.75,48.57a3.1,3.1,0,0,0-3.1-3.1H31.74a3.1,3.1,0,0,0-3.1,3.1v4.91a3.1,3.1,0,0,0,3.1,3.1h4.91a3.1,3.1,0,0,0,3.1-3.1Zm-1.08,4.91a2,2,0,0,1-2,2H31.74a2,2,0,0,1-2-2V48.57a2,2,0,0,1,2-2h4.91a2,2,0,0,1,2,2Z"/><path d="M52.92,48.57a3.1,3.1,0,0,0-3.1-3.1H44.91a3.1,3.1,0,0,0-3.1,3.1v4.91a3.1,3.1,0,0,0,3.1,3.1h4.91a3.1,3.1,0,0,0,3.1-3.1Zm-1.08,4.91a2,2,0,0,1-2,2H44.91a2,2,0,0,1-2-2V48.57a2,2,0,0,1,2-2h4.91a2,2,0,0,1,2,2Z"/><path d="M66.09,48.57a3.1,3.1,0,0,0-3.1-3.1H58.08A3.11,3.11,0,0,0,55,48.57v4.91a3.11,3.11,0,0,0,3.11,3.1H63a3.1,3.1,0,0,0,3.1-3.1ZM65,53.48a2,2,0,0,1-2,2H58.08a2,2,0,0,1-2-2V48.57a2,2,0,0,1,2-2H63a2,2,0,0,1,2,2Z"/><path d="M39.75,61.72a3.1,3.1,0,0,0-3.1-3.1H31.74a3.1,3.1,0,0,0-3.1,3.1v4.91a3.1,3.1,0,0,0,3.1,3.1h4.91a3.1,3.1,0,0,0,3.1-3.1Zm-1.08,4.91a2,2,0,0,1-2,2H31.74a2,2,0,0,1-2-2V61.72a2,2,0,0,1,2-2h4.91a2,2,0,0,1,2,2Z"/><path d="M52.92,61.72a3.1,3.1,0,0,0-3.1-3.1H44.91a3.1,3.1,0,0,0-3.1,3.1v4.91a3.1,3.1,0,0,0,3.1,3.1h4.91a3.1,3.1,0,0,0,3.1-3.1Zm-1.08,4.91a2,2,0,0,1-2,2H44.91a2,2,0,0,1-2-2V61.72a2,2,0,0,1,2-2h4.91a2,2,0,0,1,2,2Z"/><path d="M66.09,61.72a3.1,3.1,0,0,0-3.1-3.1H58.08A3.11,3.11,0,0,0,55,61.72v4.91a3.11,3.11,0,0,0,3.11,3.1H63a3.1,3.1,0,0,0,3.1-3.1ZM65,66.63a2,2,0,0,1-2,2H58.08a2,2,0,0,1-2-2V61.72a2,2,0,0,1,2-2H63a2,2,0,0,1,2,2Z"/><path d="M36.65,71.77H31.74a3.11,3.11,0,0,0-3.1,3.1v4.91a3.1,3.1,0,0,0,3.1,3.1h4.91a3.1,3.1,0,0,0,3.1-3.1V74.87A3.11,3.11,0,0,0,36.65,71.77Zm2,8a2,2,0,0,1-2,2H31.74a2,2,0,0,1-2-2V74.87a2,2,0,0,1,2-2h4.91a2,2,0,0,1,2,2Z"/><path d="M49.82,71.77H44.91a3.11,3.11,0,0,0-3.1,3.1v4.91a3.1,3.1,0,0,0,3.1,3.1h4.91a3.1,3.1,0,0,0,3.1-3.1V74.87A3.11,3.11,0,0,0,49.82,71.77Zm2,8a2,2,0,0,1-2,2H44.91a2,2,0,0,1-2-2V74.87a2,2,0,0,1,2-2h4.91a2,2,0,0,1,2,2Z"/><path d="M63,71.77H58.08A3.12,3.12,0,0,0,55,74.87v4.91a3.11,3.11,0,0,0,3.11,3.1H63a3.1,3.1,0,0,0,3.1-3.1V74.87A3.11,3.11,0,0,0,63,71.77Zm2,8a2,2,0,0,1-2,2H58.08a2,2,0,0,1-2-2V74.87a2,2,0,0,1,2-2H63a2,2,0,0,1,2,2Z"/><path d="M28.61,25.31a4.75,4.75,0,0,0-1.52,3.09h1.08a3.7,3.7,0,0,1,1.2-2.32c1.17-1.18,3.65-1.2,3.68-1.2V23.8C32.93,23.8,30.1,23.82,28.61,25.31Z"/><path d="M19,105.48c-.24-.1-.41,0-.54.26l-4.6,12.61a.48.48,0,0,0,.22.64,1,1,0,0,0,.24,0c.13,0,.23-.1.3-.29l4.6-12.61a.59.59,0,0,0,0-.37A.45.45,0,0,0,19,105.48Z"/><path d="M21,109.47a.38.38,0,0,0-.3.15.52.52,0,0,0-.12.34v11.11a.76.76,0,0,1-.19.51.51.51,0,0,1-.39.21.42.42,0,0,0-.32.14.49.49,0,0,0-.12.34.45.45,0,0,0,.12.33.41.41,0,0,0,.29.13,1.31,1.31,0,0,0,1-.48,1.76,1.76,0,0,0,.41-1.18V110a.52.52,0,0,0-.12-.34A.33.33,0,0,0,21,109.47Z"/><path d="M21.08,106.36a.42.42,0,0,0-.3.14.44.44,0,0,0-.13.33v.44a.51.51,0,0,0,.13.35.42.42,0,0,0,.3.14.37.37,0,0,0,.28-.14.55.55,0,0,0,.12-.35v-.44a.48.48,0,0,0-.12-.33A.37.37,0,0,0,21.08,106.36Z"/><path d="M29,109.47a3.47,3.47,0,0,0-2.77,1.41,5.52,5.52,0,0,0,0,6.72,3.42,3.42,0,0,0,5.53,0,5.48,5.48,0,0,0,0-6.72A3.44,3.44,0,0,0,29,109.47ZM31.16,117A2.74,2.74,0,0,1,29,118.08,2.78,2.78,0,0,1,26.79,117a4.19,4.19,0,0,1-.91-2.72,4.15,4.15,0,0,1,.91-2.71A2.75,2.75,0,0,1,29,110.39a2.72,2.72,0,0,1,2.18,1.13,4.16,4.16,0,0,1,.92,2.71A4.2,4.2,0,0,1,31.16,117Z"/><path d="M42.15,109.45a.41.41,0,0,0-.3.14.48.48,0,0,0-.12.33v5.2A3.06,3.06,0,0,1,41,117.2a2.45,2.45,0,0,1-1.82.88,2.37,2.37,0,0,1-1.78-.88,3.06,3.06,0,0,1-.75-2.08v-5.2a.52.52,0,0,0-.11-.33.37.37,0,0,0-.58,0,.48.48,0,0,0-.12.33v5.2a4.1,4.1,0,0,0,1,2.75A3,3,0,0,0,39.18,119a3.06,3.06,0,0,0,2.39-1.14,4.1,4.1,0,0,0,1-2.75v-5.2a.48.48,0,0,0-.12-.33A.37.37,0,0,0,42.15,109.45Z"/><path d="M50.56,109.49c-1.34,0-2.44.78-3.31,2.34a1.69,1.69,0,0,0-.11.23V110a.48.48,0,0,0-.12-.33.38.38,0,0,0-.29-.14.35.35,0,0,0-.28.14.48.48,0,0,0-.12.33v8.58a.48.48,0,0,0,.12.33.35.35,0,0,0,.28.14.38.38,0,0,0,.29-.14.48.48,0,0,0,.12-.33v-4.18a.45.45,0,0,1,0-.16,8.73,8.73,0,0,1,1-2.22,2.92,2.92,0,0,1,2.39-1.55.38.38,0,0,0,.29-.14.55.55,0,0,0,0-.66A.38.38,0,0,0,50.56,109.49Z"/><path d="M57,109.49a3,3,0,0,0-2.47,1.39V110a.47.47,0,0,0-.11-.33.34.34,0,0,0-.28-.14.37.37,0,0,0-.28.14.48.48,0,0,0-.12.33v8.7l0,0a.13.13,0,0,0,0,.06A.44.44,0,0,0,54,119h.1q.32,0,.39-.39v-5.25a3.19,3.19,0,0,1,.78-2.09,2.28,2.28,0,0,1,1.79-.85,2.31,2.31,0,0,1,1.8.86,3.12,3.12,0,0,1,.74,2.08v5.17a.48.48,0,0,0,.12.33A.37.37,0,0,0,60,119a.37.37,0,0,0,.28-.14.48.48,0,0,0,.12-.33v-5.17a4,4,0,0,0-1-2.74A3.1,3.1,0,0,0,57,109.49Z"/><path d="M70.59,109.47a.38.38,0,0,0-.29.14.52.52,0,0,0-.11.33v1.4A4.31,4.31,0,0,0,68.83,110a3.27,3.27,0,0,0-1.75-.51,3.44,3.44,0,0,0-2.76,1.41,5.5,5.5,0,0,0,0,6.73,3.46,3.46,0,0,0,2.76,1.4,3.27,3.27,0,0,0,1.75-.51,4.08,4.08,0,0,0,1.36-1.38v1.42a.52.52,0,0,0,.11.33.37.37,0,0,0,.58,0,.48.48,0,0,0,.12-.33v-8.6a.48.48,0,0,0-.12-.33A.38.38,0,0,0,70.59,109.47ZM69.28,117a2.7,2.7,0,0,1-4.38,0,4.48,4.48,0,0,1,0-5.44,2.69,2.69,0,0,1,4.38,0,4.52,4.52,0,0,1,0,5.44Z"/><path d="M75,105.39a.36.36,0,0,0-.29.13.48.48,0,0,0-.12.33v12.69a.48.48,0,0,0,.12.33A.37.37,0,0,0,75,119a.38.38,0,0,0,.29-.14.49.49,0,0,0,.13-.33V105.85a.49.49,0,0,0-.13-.33A.37.37,0,0,0,75,105.39Z"/><path d="M79.12,106.36a.35.35,0,0,0-.28.14.48.48,0,0,0-.12.33v.44a.52.52,0,0,0,.12.36.33.33,0,0,0,.28.15.4.4,0,0,0,.3-.15.52.52,0,0,0,.12-.36v-.44a.48.48,0,0,0-.12-.33A.42.42,0,0,0,79.12,106.36Z"/><path d="M79.13,109.47a.36.36,0,0,0-.29.14.48.48,0,0,0-.12.33v8.6a.48.48,0,0,0,.12.33.35.35,0,0,0,.28.14.42.42,0,0,0,.3-.14.48.48,0,0,0,.12-.33v-8.6a.52.52,0,0,0-.11-.33A.39.39,0,0,0,79.13,109.47Z"/><path d="M88,114.38a5.43,5.43,0,0,0-2-.78h0a3.83,3.83,0,0,1-1.69-.66,1.33,1.33,0,0,1-.47-1,1.48,1.48,0,0,1,.56-1.08,2.13,2.13,0,0,1,1.53-.52,2.05,2.05,0,0,1,.78.16,3.65,3.65,0,0,1,.61.32c.14.09.36.25.64.47a.33.33,0,0,0,.3.06.35.35,0,0,0,.25-.19.47.47,0,0,0,0-.35.52.52,0,0,0-.16-.32l-.72-.49a4.29,4.29,0,0,0-.76-.35,2.9,2.9,0,0,0-1-.19,3.14,3.14,0,0,0-2,.65A2.33,2.33,0,0,0,83,112a2,2,0,0,0,.89,1.72,4.51,4.51,0,0,0,1.87.74l0,0a3.48,3.48,0,0,1,1.77.74,1.55,1.55,0,0,1,.56,1.15,1.38,1.38,0,0,1-.61,1.14,2.42,2.42,0,0,1-1.71.59A3.86,3.86,0,0,1,83.44,117a.37.37,0,0,0-.31-.12.33.33,0,0,0-.26.17.44.44,0,0,0,0,.63A4.53,4.53,0,0,0,86,119a3.09,3.09,0,0,0,2.08-.79,2.48,2.48,0,0,0,.92-2A2.22,2.22,0,0,0,88,114.38Z"/><path d="M94.21,109.47H93.15v-3.54a.45.45,0,0,0-.13-.32.4.4,0,0,0-.3-.15.38.38,0,0,0-.29.15.49.49,0,0,0-.12.32v3.54h-1q-.34,0-.39.24a1.47,1.47,0,0,0,0,.27.68.68,0,0,0,.07.31c0,.08.16.12.34.12h1v7a1.73,1.73,0,0,0,.41,1.18,1.34,1.34,0,0,0,1,.47.38.38,0,0,0,.28-.15.45.45,0,0,0,.14-.32.53.53,0,0,0-.14-.33.4.4,0,0,0-.3-.15.61.61,0,0,1-.38-.2.66.66,0,0,1-.21-.5v-7h1.06a.36.36,0,0,0,.28-.15.46.46,0,0,0,0-.64A.36.36,0,0,0,94.21,109.47Z"/><path d="M98.91,109.47a.39.39,0,0,0-.3.14.47.47,0,0,0-.11.33v8.6a.47.47,0,0,0,.11.33.37.37,0,0,0,.58,0,.44.44,0,0,0,.13-.33v-8.6a.48.48,0,0,0-.12-.33A.37.37,0,0,0,98.91,109.47Z"/><path d="M98.9,106.36a.38.38,0,0,0-.29.14.47.47,0,0,0-.11.33v.44a.52.52,0,0,0,.11.36.36.36,0,0,0,.58,0,.48.48,0,0,0,.13-.36v-.44a.44.44,0,0,0-.13-.33A.38.38,0,0,0,98.9,106.36Z"/><path d="M109,117.24a3.27,3.27,0,0,1-2.25.84,3.05,3.05,0,0,1-2.31-1.12,4.17,4.17,0,0,1,0-5.44,3,3,0,0,1,2.32-1.13,3.16,3.16,0,0,1,2.24.86.35.35,0,0,0,.56-.08.55.55,0,0,0,.1-.35.41.41,0,0,0-.16-.3,3.94,3.94,0,0,0-2.77-1,3.75,3.75,0,0,0-2.87,1.39,4.88,4.88,0,0,0-1.23,3.37,5,5,0,0,0,1.23,3.39,3.88,3.88,0,0,0,3,1.39,3.8,3.8,0,0,0,2.6-1,.43.43,0,0,0,.09-.66C109.39,117.1,109.2,117.07,109,117.24Z"/></svg>