<svg id="Layer_1" data-name="Layer 1" xmlns="http://www.w3.org/2000/svg" viewBox="0 0 500 250"><title>wd_medium</title><path d="M202.08,221.76c-11.41-5.66-22.56-11.8-33.84-17.68-9.64-5-19.23-10.13-28.85-15.17a6.9,6.9,0,0,1-4-6.63q0-69,0-138a6.81,6.81,0,0,1,10.14-6.14C157.21,44.33,169.1,50.29,181,56.35l25.38,13a6.82,6.82,0,0,1,2.76,2.59l23.22,37.23a2.68,2.68,0,0,0,.23.26c.41-.05.48-.41.63-.66q20.73-34,41.45-68c3-4.85,7.4-6.13,12.52-3.56q30.09,15.13,60.17,30.27c1.8.91,3.41,1.93,3.92,4.08a7.11,7.11,0,0,1,.13,1.66l0,113.39c0,1.75-.21,1.55,1.52,1.55h39.6c.44,0,1.14-.28,1.27.29a4.29,4.29,0,0,1-.06,2.58c-.14.37-.73.17-1.11.17H357c-1.56,0-3.12,0-4.68,0-.75,0-1.09.17-1,1a26.91,26.91,0,0,1,0,3.36c-.05.8.25,1,1,1,4.64,0,9.28,0,13.92,0l11.4,0q29.57-.09,59.14-.19c.47,0,1.23-.32,1.37.28a9.07,9.07,0,0,1,0,2.5c0,.22-.29.23-.49.24H437l-38.16.08c-10.32,0-20.64-.05-30.95.07-5.16.06-10.32,0-15.47.07-.82,0-1.13.2-1.1,1.06.06,1.72.05,3.44,0,5.16,0,.69.23.9.9.88,7.12-.13,14.23,0,21.35-.18,3.4-.1,6.8-.06,10.2-.07q13.42,0,26.87-.07c3.8,0,7.6,0,11.39-.2,1.83-.08,1.12,1.17,1.3,2,.23,1.06-.41,1.12-1.24,1.12-3.6,0-7.2,0-10.8.06q-23.26.12-46.54.24c-4.16,0-8.31.13-12.47.15-.73,0-1,.2-1,.95,0,1.82.24,3.67-.38,5.47-.24.71.38.55.73.54,1.71,0,3.43-.09,5.15-.1l22.67-.13c8.36-.06,16.71-.1,25.07-.24,1.29,0,1.31.56,1.27,1.49s.18,1.63-1.26,1.62c-8.2,0-16.4,0-24.6.11-10.27.18-20.55.14-30.83.22-1.11,0-2.22.08-3.33.09a8.53,8.53,0,0,1-3.74-1.13C322,209.08,301.8,199.65,281.75,190c-17.62-8.45-34.94-17.48-52.43-26.19q-9.12-4.54-18.2-9.15c-1-.48-1.17-.37-1.17.71q0,16.86,0,33.72c0,1,.28,1.19,1.21,1.18,7.28,0,14.56,0,21.84-.05,1.3,0,1.28.57,1.26,1.49s.14,1.55-1.22,1.53c-7.28-.08-14.56,0-21.84-.06-1,0-1.33.29-1.25,1.28a18.33,18.33,0,0,1,0,2.87c-.07.93.21,1.25,1.18,1.23,3.84-.09,7.68-.09,11.52-.11l10.32,0c8.31-.05,16.63-.09,25-.19,1,0,1.51.21,1.32,1.3a3.37,3.37,0,0,0,0,.84c.09.74-.21,1-.95,1-2.11,0-4.23,0-6.35,0-5.44,0-10.88,0-16.32,0-8.2,0-16.39.15-24.59.18-.82,0-1.11.2-1.08,1.06.06,1.92,0,3.84,0,5.76,0,.67.19.9.88.89q14.26-.12,28.55-.2,7.26,0,14.51-.05,13.38,0,26.76-.08c.5,0,.66.1.63.56v.12c0,2.85.39,2.3-2.2,2.31l-66.35.25c-2.76,0-2.79,0-2.75,2.7a9,9,0,0,1-.61,3.16,3,3,0,0,0,1.44.13c18.32,0,36.64,0,55-.1,8.71-.07,17.43,0,26.15-.16,1.07,0,1.46.23,1.39,1.36-.13,2,.24,1.71-1.74,1.71-15,0-30.08,0-45.12.1-13.23.11-26.47.13-39.7.15a3.22,3.22,0,0,0-2,.51ZM274.45,183l.28,0-.09-.26c-.21-.38-.41-.77-.64-1.14L214.8,86.89c-1.53-2.45-3.07-4.9-4.6-7.36l-.23.08v1.27q0,33.53,0,67.07c0,.51.17,1.08-.2,1.51-.68.81-.19,1.09.5,1.43l48,24.07Q266.33,179,274.45,183Zm-67.54-37.79q0-34.78,0-69.59a3.83,3.83,0,0,0-2.27-3.74c-20.17-10.31-40.35-20.58-60.47-31-2.75-1.43-5.85,0-5.85,3.56q.12,68.82,0,137.64a4.2,4.2,0,0,0,2.46,4.13c20.12,10.57,40.25,21.11,60.31,31.8a3.82,3.82,0,0,0,5.84-3.57C206.85,191.39,206.91,168.31,206.91,145.23Zm72.33,39.08c.38-.58.67-1,.94-1.46Q314,128.63,347.72,74.38c1.06-1.7.72-2.87-1.09-3.79q-6.21-3.12-12.41-6.25Q309.76,52,285.31,39.7A5.63,5.63,0,0,0,277.46,42q-21.18,34.75-42.38,69.48a1.8,1.8,0,0,0,0,2.22q17,27.18,34,54.39ZM348.19,79.6c-.42.19-.51.61-.71.93q-12,19.17-23.9,38.36-20.67,33.18-41.32,66.36c-.82,1.32-.81,1.32.54,2l41.37,19.57q9.91,4.68,19.82,9.38c1.11.53,2.17.82,3.25,0a3.12,3.12,0,0,0,1-2.79q0-66.3,0-132.59A1.91,1.91,0,0,0,348.19,79.6Z"/><path d="M155.52,16.56c0,.06.08.15.15.17,2,.66,2,.66,1.54,2.78-.86,3.73-1.75,7.45-2.57,11.19-.17.79-.37,1-1.24.81-1.94-.51-2-.45-1.52-2.37q1.47-6.29,2.92-12.58Z"/><path d="M365.08,62.94c-.57-.13-.71-.64-1-1-1-1.33-.94-1.33.42-2.29q10-7,20-14c.77-.56,1.07-.41,1.54.3,1.06,1.61,1.1,1.58-.48,2.69L365.87,62.41Z"/><path d="M340.8,42.81a15.79,15.79,0,0,1-2-1.69c-.42-.48.26-.84.53-1.17,3.92-4.94,7.88-9.85,11.8-14.8.55-.71,1-.94,1.64-.18a2.75,2.75,0,0,0,.65.52c.71.44.72.83.18,1.5-4.05,5-8.05,10-12.06,15.06C341.3,42.29,341.08,42.51,340.8,42.81Z"/><path d="M365.58,94.8c-.17-.73.32-.7.77-.76l11-1.39c1.62-.21,3.25-.37,4.86-.64.79-.13,1.15,0,1.25.87.24,1.94.28,2-1.7,2.25-5,.66-10.11,1.25-15.17,1.91-.57.07-.81,0-.84-.62S365.64,95.31,365.58,94.8Z"/><path d="M121.47,71.31c.06.53,0,.88-.69,1q-8.18,1-16.35,2.08c-.5.06-.68-.08-.77-.6-.41-2.29-.44-2.33,1.83-2.62,5-.64,10-1.22,14.94-1.86.6-.08.8,0,.83.62S121.4,70.83,121.47,71.31Z"/><path d="M127.38,29.16c-.23.57-.81.78-1.14,1.21-.66.87-1.17.81-1.92,0-3.11-3.53-6.28-7-9.48-10.45-.66-.7-.68-1.14.09-1.66a3.36,3.36,0,0,0,.62-.57c.53-.59.91-.57,1.47.06,3.27,3.66,6.58,7.27,9.88,10.9Z"/><path d="M108.16,44.34,116.25,46c.28,0,.56.09.83.16,2,.5,1.83,0,1.49,2.15-.15,1-.46,1.2-1.46,1-2.92-.66-5.86-1.22-8.81-1.75-.93-.17-1.21-.56-1-1.44a9.32,9.32,0,0,0,.22-1.05C107.66,44.56,107.86,44.26,108.16,44.34Z"/><path d="M274.64,182.8l.09.26-.28,0Z"/><path d="M278.56,174.45a15.39,15.39,0,0,1-2-1.38c-.37-.35.16-.72.36-1q6-9.35,12.13-18.68l.58-.9c1.18-1.79,1.69-1.82,3.3-.34.57.54,0,.8-.18,1.09q-5,7.69-10,15.36-1.73,2.67-3.46,5.32C279.17,174.14,279.09,174.53,278.56,174.45Z"/><path d="M274.81,164c-.73-.46-1.45-.88-2.13-1.36-.23-.16-.06-.44.06-.65q4.41-7.55,8.82-15.08c.25-.42.48-.39.86-.2,2.19,1.05,2.19,1,1,3.11q-3.9,6.66-7.81,13.32C275.39,163.41,275.28,163.82,274.81,164Z"/><path d="M343.47,98l-2.86,5c-1.19,2.13-2.41,4.24-3.56,6.38-.37.68-.65.8-1.35.39-1.79-1.06-1.8-1-.77-2.84l11-19.62a3,3,0,0,1,.81-1v1c0,4.76,0,9.51,0,14.26,0,1-.26,1.4-1.26,1.25a4.87,4.87,0,0,0-1.08,0c-.58,0-.76-.23-.75-.78,0-1.34,0-2.68,0-4Z"/><path d="M341.93,209.81a18.3,18.3,0,0,0-.31-5c-.12-.75.08-1,.8-1.06,2.07-.29,2.13-.33,2.35,1.71a18.67,18.67,0,0,1,.13,5.12c-.36,2.28-1.71,3.1-3.84,2.18a30.37,30.37,0,0,1-6.37-4.22c-.29-.23-.44-.46-.11-.78a.35.35,0,0,0,.07-.09c1.38-1.92,1.37-1.9,3.26-.48A22.69,22.69,0,0,0,341.93,209.81Z"/><path d="M333.69,114.21c-.15.3-.26.55-.4.79-2.27,3.89-4.55,7.77-6.8,11.67-.33.58-.56.79-1.25.38-1.85-1.11-1.87-1.07-.79-2.91,2-3.47,4.09-6.93,6-10.44.56-1,1.07-1.12,1.9-.44C332.81,113.59,333.41,113.68,333.69,114.21Z"/><path d="M320.73,199.2l.57.32c2,1.15,4,2.33,6,3.42.81.43,1,.84.4,1.54a2.25,2.25,0,0,0-.12.21c-.93,1.6-.56,1.59-2.24.65-1.88-1.05-3.71-2.17-5.6-3.19-.71-.38-.81-.71-.35-1.34a13.64,13.64,0,0,0,.72-1.23C320.26,199.37,320.36,199.15,320.73,199.2Z"/><path d="M214.8,93.31c1.27,2.1,2.54,4.19,3.8,6.29,1.63,2.71,3.22,5.43,4.88,8.11.47.76.57,1.26-.38,1.63a2.86,2.86,0,0,0-.71.43c-.65.52-1,.42-1.46-.34a44.55,44.55,0,0,0-3.28-5.07v1.12c0,5,0,10,0,15,0,1-.31,1.28-1.28,1.23-2.11-.1-1.79.26-1.79-1.76q0-12.7,0-25.42V93.38Z"/></svg>