<svg id="Layer_1" data-name="Layer 1" xmlns="http://www.w3.org/2000/svg" viewBox="0 0 128 128"><title>wd_professional_minimal</title><path d="M120,20.41l-4.29-3.55a3,3,0,0,0-2.24-.68,3.06,3.06,0,0,0-2.06,1.12l-2,2.42L103,27.18a11.15,11.15,0,0,0-10.9-8.85H90.62V15.58a4.4,4.4,0,0,0-4.39-4.39h-.35a4.4,4.4,0,0,0-4.39,4.39v2.75H45V16a4.4,4.4,0,0,0-4.39-4.39h-.35A4.4,4.4,0,0,0,35.88,16v2.29H33A11.16,11.16,0,0,0,21.83,29.47V88.63A11.16,11.16,0,0,0,33,99.78H92.14a11.16,11.16,0,0,0,11.14-11.15V46.83l-2,2.29V83.34a9.39,9.39,0,0,1-9.38,9.38H33.21a9.4,9.4,0,0,1-9.39-9.38V41.62H90.6L78.91,55.19a5.36,5.36,0,0,0-1.07,1.94l-2.41,8.05A1.82,1.82,0,0,0,76,67.1a1.79,1.79,0,0,0,1.19.45,1.9,1.9,0,0,0,.8-.18l8-3.79a3.31,3.31,0,0,0,1.16-.9l30.54-35.31,2.64-3.05a2.73,2.73,0,0,0,.66-2A2.68,2.68,0,0,0,120,20.41ZM101.51,89a9.39,9.39,0,0,1-9.12,9V94.45A11.13,11.13,0,0,0,101.51,89Zm-68.3,5.51H91.32V98H33a9.39,9.39,0,0,1-9.37-9A11.14,11.14,0,0,0,33.21,94.48ZM110,21.79l.66.58-1.2,1.42-.69-.57ZM83.25,25.65h5.61v.41a2.63,2.63,0,0,1-2.63,2.63h-.35a2.63,2.63,0,0,1-2.63-2.63Zm0-8.69h0V15.58A2.63,2.63,0,0,1,85.88,13h.35a2.63,2.63,0,0,1,2.63,2.63v2.75h0v2h0v4.25H83.25V22h0Zm-45.6,3.36h0v-2h0V16a2.63,2.63,0,0,1,2.63-2.63h.35A2.63,2.63,0,0,1,43.25,16v1.14h0v5.73h0v3.61a2.63,2.63,0,0,1-2.63,2.63h-.35a2.63,2.63,0,0,1-2.63-2.63ZM23.82,39.86V29.7a9.4,9.4,0,0,1,9.39-9.38h2.67v6.2a4.4,4.4,0,0,0,4.39,4.39h.35A4.4,4.4,0,0,0,45,26.52v-6.2H81.49v5.74a4.4,4.4,0,0,0,4.39,4.39h.35a4.4,4.4,0,0,0,4.39-4.39V20.32h1.29a9.39,9.39,0,0,1,9.36,8.91L92.11,39.86Zm69.07,1.76h0l1.52-1.76h0l13.2-15.33,3.44,2.86L83.78,59.26l-3.55-2.95ZM77.24,65.8a.09.09,0,0,1-.11,0,.11.11,0,0,1,0-.12l2.34-7.77,5.25,4.38Zm8.88-4.58-1-.85L112.39,28.5l1.18,1Zm28.58-33-3.93-3.27,1.17-1.39,3.86,3.39Zm4.32-5-2.08,2.4-5.84-5.11,1.67-2.08a1.29,1.29,0,0,1,1.83-.19l4.3,3.55a1,1,0,0,1,.36.69A1,1,0,0,1,119,23.18Z"/><path d="M39.75,48.57a3.1,3.1,0,0,0-3.1-3.1H31.74a3.1,3.1,0,0,0-3.1,3.1v4.91a3.1,3.1,0,0,0,3.1,3.1h4.91a3.1,3.1,0,0,0,3.1-3.1Zm-1.08,4.91a2,2,0,0,1-2,2H31.74a2,2,0,0,1-2-2V48.57a2,2,0,0,1,2-2h4.91a2,2,0,0,1,2,2Z"/><path d="M52.92,48.57a3.1,3.1,0,0,0-3.1-3.1H44.91a3.1,3.1,0,0,0-3.1,3.1v4.91a3.1,3.1,0,0,0,3.1,3.1h4.91a3.1,3.1,0,0,0,3.1-3.1Zm-1.08,4.91a2,2,0,0,1-2,2H44.91a2,2,0,0,1-2-2V48.57a2,2,0,0,1,2-2h4.91a2,2,0,0,1,2,2Z"/><path d="M66.09,48.57a3.1,3.1,0,0,0-3.1-3.1H58.08A3.11,3.11,0,0,0,55,48.57v4.91a3.11,3.11,0,0,0,3.11,3.1H63a3.1,3.1,0,0,0,3.1-3.1ZM65,53.48a2,2,0,0,1-2,2H58.08a2,2,0,0,1-2-2V48.57a2,2,0,0,1,2-2H63a2,2,0,0,1,2,2Z"/><path d="M39.75,61.72a3.1,3.1,0,0,0-3.1-3.1H31.74a3.1,3.1,0,0,0-3.1,3.1v4.91a3.1,3.1,0,0,0,3.1,3.1h4.91a3.1,3.1,0,0,0,3.1-3.1Zm-1.08,4.91a2,2,0,0,1-2,2H31.74a2,2,0,0,1-2-2V61.72a2,2,0,0,1,2-2h4.91a2,2,0,0,1,2,2Z"/><path d="M52.92,61.72a3.1,3.1,0,0,0-3.1-3.1H44.91a3.1,3.1,0,0,0-3.1,3.1v4.91a3.1,3.1,0,0,0,3.1,3.1h4.91a3.1,3.1,0,0,0,3.1-3.1Zm-1.08,4.91a2,2,0,0,1-2,2H44.91a2,2,0,0,1-2-2V61.72a2,2,0,0,1,2-2h4.91a2,2,0,0,1,2,2Z"/><path d="M66.09,61.72a3.1,3.1,0,0,0-3.1-3.1H58.08A3.11,3.11,0,0,0,55,61.72v4.91a3.11,3.11,0,0,0,3.11,3.1H63a3.1,3.1,0,0,0,3.1-3.1ZM65,66.63a2,2,0,0,1-2,2H58.08a2,2,0,0,1-2-2V61.72a2,2,0,0,1,2-2H63a2,2,0,0,1,2,2Z"/><path d="M36.65,71.77H31.74a3.11,3.11,0,0,0-3.1,3.1v4.91a3.1,3.1,0,0,0,3.1,3.1h4.91a3.1,3.1,0,0,0,3.1-3.1V74.87A3.11,3.11,0,0,0,36.65,71.77Zm2,8a2,2,0,0,1-2,2H31.74a2,2,0,0,1-2-2V74.87a2,2,0,0,1,2-2h4.91a2,2,0,0,1,2,2Z"/><path d="M49.82,71.77H44.91a3.11,3.11,0,0,0-3.1,3.1v4.91a3.1,3.1,0,0,0,3.1,3.1h4.91a3.1,3.1,0,0,0,3.1-3.1V74.87A3.11,3.11,0,0,0,49.82,71.77Zm2,8a2,2,0,0,1-2,2H44.91a2,2,0,0,1-2-2V74.87a2,2,0,0,1,2-2h4.91a2,2,0,0,1,2,2Z"/><path d="M63,71.77H58.08A3.12,3.12,0,0,0,55,74.87v4.91a3.11,3.11,0,0,0,3.11,3.1H63a3.1,3.1,0,0,0,3.1-3.1V74.87A3.11,3.11,0,0,0,63,71.77Zm2,8a2,2,0,0,1-2,2H58.08a2,2,0,0,1-2-2V74.87a2,2,0,0,1,2-2H63a2,2,0,0,1,2,2Z"/><path d="M28.61,25.31a4.75,4.75,0,0,0-1.52,3.09h1.08a3.7,3.7,0,0,1,1.2-2.32c1.17-1.18,3.65-1.2,3.68-1.2V23.8C32.93,23.8,30.1,23.82,28.61,25.31Z"/><path d="M17,105.48c-.24-.1-.41,0-.54.26l-4.6,12.61a.48.48,0,0,0,.22.64,1,1,0,0,0,.24,0c.13,0,.23-.1.3-.29l4.6-12.61a.59.59,0,0,0,0-.37A.45.45,0,0,0,17,105.48Z"/><path d="M23.22,109.47a3.39,3.39,0,0,0-1.77.5,4.11,4.11,0,0,0-1.37,1.35v-1.38a.48.48,0,0,0-.12-.33.42.42,0,0,0-.3-.14.35.35,0,0,0-.28.14.48.48,0,0,0-.12.33v12.59a.48.48,0,0,0,.12.33.35.35,0,0,0,.28.14.42.42,0,0,0,.3-.14.48.48,0,0,0,.12-.33v-5.45a4.27,4.27,0,0,0,1.37,1.37,3.39,3.39,0,0,0,1.77.5,3.56,3.56,0,0,0,2.83-1.4,5,5,0,0,0,1.16-3.36,5,5,0,0,0-1.16-3.33A3.55,3.55,0,0,0,23.22,109.47Zm2.24,7.42a2.76,2.76,0,0,1-4.45,0,4.06,4.06,0,0,1-.93-2.69v-.15a4,4,0,0,1,1-2.57,2.85,2.85,0,0,1,2.2-1,2.78,2.78,0,0,1,2.21,1.1,4,4,0,0,1,.93,2.67A4.06,4.06,0,0,1,25.46,116.89Z"/><path d="M34.62,109.49c-1.34,0-2.44.78-3.31,2.34l-.12.23V110a.52.52,0,0,0-.11-.33.37.37,0,0,0-.58,0,.48.48,0,0,0-.12.33v8.58a.48.48,0,0,0,.12.33.37.37,0,0,0,.58,0,.52.52,0,0,0,.11-.33v-4.18a.47.47,0,0,1,0-.16,9.08,9.08,0,0,1,1-2.22,3,3,0,0,1,2.4-1.55.37.37,0,0,0,.28-.14.51.51,0,0,0,0-.66A.37.37,0,0,0,34.62,109.49Z"/><path d="M41.31,109.47a3.47,3.47,0,0,0-2.77,1.41,5.52,5.52,0,0,0,0,6.72,3.43,3.43,0,0,0,5.54,0,5.52,5.52,0,0,0,0-6.72A3.47,3.47,0,0,0,41.31,109.47ZM43.49,117a2.67,2.67,0,0,1-4.36,0,4.15,4.15,0,0,1-.92-2.72,4.1,4.1,0,0,1,.92-2.71,2.67,2.67,0,0,1,4.36,0,4.1,4.1,0,0,1,.92,2.71A4.15,4.15,0,0,1,43.49,117Z"/><path d="M51.56,105.41a2,2,0,0,0-1.67.68,4,4,0,0,0-.54,2.22v1H48.26a.36.36,0,0,0-.29.13.5.5,0,0,0-.12.34.52.52,0,0,0,.12.34.37.37,0,0,0,.29.14h1.09v8.29a.44.44,0,0,0,.13.33.38.38,0,0,0,.29.14.37.37,0,0,0,.29-.14.48.48,0,0,0,.12-.33v-8.29h1.16a.42.42,0,0,0,.3-.14.52.52,0,0,0,.12-.34.5.5,0,0,0-.12-.34.41.41,0,0,0-.3-.13H50.18v-1a2.76,2.76,0,0,1,.3-1.55,1.26,1.26,0,0,1,1.08-.4.38.38,0,0,0,.29-.14.48.48,0,0,0,.12-.33.52.52,0,0,0-.12-.34A.38.38,0,0,0,51.56,105.41Z"/><path d="M57.81,109.47a3.53,3.53,0,0,0-2.8,1.41,5.44,5.44,0,0,0,0,6.74A3.58,3.58,0,0,0,57.85,119a3.38,3.38,0,0,0,1.91-.58,4.37,4.37,0,0,0,1.43-1.58.48.48,0,0,0-.14-.66q-.33-.24-.54.15a3.24,3.24,0,0,1-1.13,1.27,2.73,2.73,0,0,1-1.53.47A2.84,2.84,0,0,1,55.64,117a4,4,0,0,1-1-2.6h6.77a.38.38,0,0,0,.29-.12.41.41,0,0,0,.12-.31v-.08a5.13,5.13,0,0,0-1.27-3.16A3.54,3.54,0,0,0,57.81,109.47Zm-3.11,4a4,4,0,0,1,1.11-2.23,2.82,2.82,0,0,1,2-.86,2.79,2.79,0,0,1,2,.87A3.83,3.83,0,0,1,61,113.5Z"/><path d="M69.3,114.38a5.47,5.47,0,0,0-2-.78h0a3.83,3.83,0,0,1-1.69-.66,1.33,1.33,0,0,1-.47-1,1.48,1.48,0,0,1,.56-1.08,2.13,2.13,0,0,1,1.53-.52,2.05,2.05,0,0,1,.78.16,3.65,3.65,0,0,1,.61.32c.14.09.35.25.63.47a.35.35,0,0,0,.31.06.37.37,0,0,0,.25-.19.52.52,0,0,0,0-.35.53.53,0,0,0-.17-.32c-.3-.22-.54-.38-.71-.49a4.29,4.29,0,0,0-.76-.35,2.9,2.9,0,0,0-1-.19,3.14,3.14,0,0,0-2,.65,2.34,2.34,0,0,0-.9,1.86,2,2,0,0,0,.9,1.72,4.45,4.45,0,0,0,1.87.74l0,0a3.52,3.52,0,0,1,1.78.74,1.55,1.55,0,0,1,.56,1.15,1.39,1.39,0,0,1-.62,1.14,2.37,2.37,0,0,1-1.7.59A3.86,3.86,0,0,1,64.7,117a.38.38,0,0,0-.31-.12.37.37,0,0,0-.27.17.44.44,0,0,0,0,.63A4.57,4.57,0,0,0,67.23,119a3.11,3.11,0,0,0,2.08-.79,2.48,2.48,0,0,0,.92-2A2.22,2.22,0,0,0,69.3,114.38Z"/><path d="M77.59,114.38a5.36,5.36,0,0,0-2-.78h0a3.74,3.74,0,0,1-1.68-.66,1.3,1.3,0,0,1-.47-1,1.46,1.46,0,0,1,.55-1.08,2.14,2.14,0,0,1,1.54-.52,2,2,0,0,1,.77.16,3.82,3.82,0,0,1,.62.32c.14.09.35.25.63.47a.33.33,0,0,0,.3.06.36.36,0,0,0,.26-.19.58.58,0,0,0-.12-.67c-.3-.22-.54-.38-.72-.49a4,4,0,0,0-.76-.35,2.89,2.89,0,0,0-1-.19,3.17,3.17,0,0,0-2,.65,2.36,2.36,0,0,0-.89,1.86,2,2,0,0,0,.89,1.72,4.5,4.5,0,0,0,1.88.74l0,0a3.56,3.56,0,0,1,1.78.74,1.54,1.54,0,0,1,.55,1.15,1.38,1.38,0,0,1-.61,1.14,2.39,2.39,0,0,1-1.7.59A3.91,3.91,0,0,1,73,117a.35.35,0,0,0-.57,0,.44.44,0,0,0,0,.63,4.55,4.55,0,0,0,3,1.36,3.07,3.07,0,0,0,2.08-.79,2.45,2.45,0,0,0,.92-2A2.22,2.22,0,0,0,77.59,114.38Z"/><path d="M81.72,109.47a.39.39,0,0,0-.3.14.48.48,0,0,0-.12.33v8.6a.48.48,0,0,0,.12.33.37.37,0,0,0,.58,0,.44.44,0,0,0,.13-.33v-8.6a.48.48,0,0,0-.12-.33A.38.38,0,0,0,81.72,109.47Z"/><path d="M81.71,106.36a.38.38,0,0,0-.29.14.48.48,0,0,0-.12.33v.44a.52.52,0,0,0,.12.36.36.36,0,0,0,.58,0,.48.48,0,0,0,.13-.36v-.44a.44.44,0,0,0-.13-.33A.38.38,0,0,0,81.71,106.36Z"/><path d="M89.55,109.47a3.47,3.47,0,0,0-2.77,1.41,5.52,5.52,0,0,0,0,6.72,3.42,3.42,0,0,0,5.53,0,5.48,5.48,0,0,0,0-6.72A3.44,3.44,0,0,0,89.55,109.47ZM91.73,117a2.74,2.74,0,0,1-2.18,1.13A2.78,2.78,0,0,1,87.36,117a4.19,4.19,0,0,1-.91-2.72,4.15,4.15,0,0,1,.91-2.71,2.75,2.75,0,0,1,2.19-1.13,2.72,2.72,0,0,1,2.18,1.13,4.16,4.16,0,0,1,.92,2.71A4.2,4.2,0,0,1,91.73,117Z"/><path d="M99.83,109.49a3,3,0,0,0-2.48,1.39V110a.52.52,0,0,0-.1-.33.37.37,0,0,0-.28-.14.37.37,0,0,0-.29.14.48.48,0,0,0-.12.33v8.7l0,0a.07.07,0,0,0,0,.06.4.4,0,0,0,.27.25H97c.2,0,.33-.13.38-.39v-5.25a3.3,3.3,0,0,1,.78-2.09,2.31,2.31,0,0,1,3.59,0,3.07,3.07,0,0,1,.74,2.08v5.17a.48.48,0,0,0,.12.33.37.37,0,0,0,.58,0,.52.52,0,0,0,.11-.33v-5.17a4.07,4.07,0,0,0-1-2.74A3.13,3.13,0,0,0,99.83,109.49Z"/><path d="M113.42,109.47a.35.35,0,0,0-.28.14.48.48,0,0,0-.12.33v1.4a4.21,4.21,0,0,0-1.36-1.36,3.23,3.23,0,0,0-1.74-.51,3.47,3.47,0,0,0-2.77,1.41,5.5,5.5,0,0,0,0,6.73,3.49,3.49,0,0,0,2.77,1.4,3.23,3.23,0,0,0,1.74-.51,4,4,0,0,0,1.36-1.38v1.42a.48.48,0,0,0,.12.33.35.35,0,0,0,.28.14.37.37,0,0,0,.29-.14.48.48,0,0,0,.12-.33v-8.6a.48.48,0,0,0-.12-.33A.37.37,0,0,0,113.42,109.47ZM112.11,117a2.77,2.77,0,0,1-2.19,1.12,2.8,2.8,0,0,1-2.19-1.12,4.48,4.48,0,0,1,0-5.44,2.75,2.75,0,0,1,2.19-1.13,2.72,2.72,0,0,1,2.19,1.13,4.52,4.52,0,0,1,0,5.44Z"/><path d="M117.86,105.39a.37.37,0,0,0-.29.13.48.48,0,0,0-.12.33v12.69a.48.48,0,0,0,.12.33.37.37,0,0,0,.58,0,.44.44,0,0,0,.13-.33V105.85a.44.44,0,0,0-.13-.33A.37.37,0,0,0,117.86,105.39Z"/></svg>