<svg id="Layer_1" data-name="Layer 1" xmlns="http://www.w3.org/2000/svg" viewBox="0 0 500 250"><title>wd_team</title><path d="M248.64,234.48c-.37-.37-.83-.19-1.25-.2-5.6-.05-11.2,0-16.79-.15-8.16-.28-16.27-1-24.06-3.73-8.66-3-15.51-8.15-19.84-16.36a1.22,1.22,0,0,0-1.32-.73c-3.67.1-7.35.28-11,.18-8.4-.23-16.8,0-25.19-.23s-16.85-.7-25-3c-8.91-2.53-16.37-7.13-21.37-15.17A43.75,43.75,0,0,1,97,178.8c-1.57-9.51-1.19-19,0-28.55.17-1.42.38-2.85.55-4.27.1-.79.25-1.24,1.25-.82,1.82.77,1.84.7,1.55,2.68A118.76,118.76,0,0,0,98.94,167a63.48,63.48,0,0,0,2.66,18.31c3.6,11.36,11.26,18.5,22.59,21.85a77.58,77.58,0,0,0,15.8,2.68c6.7.53,13.42.46,20.13.51,1.13,0,1.46-.24,1.46-1.43q-.06-33.12,0-66.24c0-.5-.37-1.3.32-1.47a9.11,9.11,0,0,1,2.5,0c.2,0,.21.3.21.5,0,.36,0,.72,0,1.08q0,33.06,0,66.12c0,1.12.22,1.47,1.42,1.49,5.24.08,10.47.17,15.71.08.52,0,1,0,1.55-.09,1.58-.15,1.59-.16,1.07-1.6A58.53,58.53,0,0,1,181.18,192a109.18,109.18,0,0,1,2.91-32.22,74.81,74.81,0,0,1,18.47-34.06c.66-.69.94-.71,1.41.17.91,1.73,1,1.73-.32,3.16-10.12,11.1-15.8,24.26-18.17,39a113.67,113.67,0,0,0-1.36,22.94,53.78,53.78,0,0,0,3.93,19c4.15,9.71,11.71,15.42,21.65,18.3a78.49,78.49,0,0,0,16.76,2.65c9.46.62,18.94.36,28.41.5,5,.08,10.08.16,15.12-.08A71.32,71.32,0,0,0,286,229q16.44-4.59,20.48-21.14a67.48,67.48,0,0,0,1.34-20.73,131.35,131.35,0,0,0-3.44-22.47,84.86,84.86,0,0,0-15.12-32.19c-.24-.31-.79-.59-.46-1.1a8.58,8.58,0,0,1,1.53-2c.32-.28.61.37.84.65a73.88,73.88,0,0,1,6.55,9.6,97.86,97.86,0,0,1,11.42,33.11,120.14,120.14,0,0,1,1.9,23.49,53.25,53.25,0,0,1-1.53,11.86c-.29,1.13.07,1.27,1,1.26,7.56-.07,15.12,0,22.68-.16,7.79-.17,15.57-.5,23.2-2.34,6.18-1.48,11.93-3.85,16.72-8.18,5.29-4.8,8.24-10.92,9.88-17.74a76.65,76.65,0,0,0,1.58-22.15,106.68,106.68,0,0,0-1.31-12.87c-.23-1.27.6-1.36,1.34-1.66,1.36-.55,1.4-.55,1.63.9a137.32,137.32,0,0,1,1.42,14.9,81.74,81.74,0,0,1-1.26,19.44,42.24,42.24,0,0,1-6,15.39c-.17.26-.54.5-.37.83s.58.18.88.18l28.3.25c.48,0,1,.08,1.44.05,1-.05,1.28.34,1.22,1.33-.1,1.95.18,1.68-1.78,1.66-4.71-.05-9.43-.06-14.15-.1Q387,199,378.15,199a2,2,0,0,0-1.67.7,30.5,30.5,0,0,1-3.6,3.19c.3.37.68.19,1,.19,13.83,0,27.67,0,41.51.13q7.2.06,14.39.06c.89,0,1.13.31,1,1.11a3.36,3.36,0,0,0,0,.95c.09.78-.29.93-1,.93q-23.22-.09-46.43-.13c-5,0-10.08,0-15.12,0a1.66,1.66,0,0,0-.71.08c-2,.94-4.07,1.76-6.17,2.5l0,.34h6.88c11,0,22,0,33,.14,2.51,0,5,.1,7.55.07.81,0,1.05.25,1,1-.1,1.94-.08,1.95-2.07,1.94-10.32,0-20.64,0-31-.14-9.8-.16-19.59-.26-29.39-.16-12.79.13-25.58.5-38.37.5a1,1,0,0,0-1.13.77,14.13,14.13,0,0,1-.92,2.21c-.47.89-.37,1.23.74,1.21,3.4-.07,6.8-.06,10.2-.07,7.88,0,15.76,0,23.64-.07q20.4-.09,40.79-.19c.45,0,1.2-.26,1.3.22a7.39,7.39,0,0,1,0,2.61c0,.34-.64.19-1,.19l-18.84.09c-7.28,0-14.56-.06-21.84,0-12.11.19-24.23.14-36.34.18a1.46,1.46,0,0,0-1.49.72,14.74,14.74,0,0,1-1,1.45c.25.45.65.26,1,.26,3.2,0,6.4,0,9.6.06q22.92.09,45.83.14c1,0,1.41.24,1.24,1.24a1,1,0,0,0,0,.24c0,1.57,0,1.59-1.52,1.57-3.15,0-6.31-.07-9.47-.08-16.2-.09-32.4-.07-48.59-.12a3.15,3.15,0,0,0-2.18.74,41,41,0,0,1-7.65,4.79c1.84,0,3.69.1,5.52,0,3-.19,5.92-.09,8.87-.13,6.6-.09,13.2,0,19.8-.09,2.88,0,5.76-.07,8.63-.18.91,0,1.18.23,1.13,1.13-.13,2.2.46,1.94-2,2q-21.06.16-42.11.29c-4.4,0-8.8,0-13.19.2a40,40,0,0,0-7.06.72Z"/><path d="M309.12,13.92a15.71,15.71,0,0,0,4.32.44c4.7.32,9.41.57,14.12.78,1,0,1.19.47.94,1.26s-.07,1.1.82,1.19c1.94.21,3.86.62,5.81.82,1,.1,1,.49.76,1.24s-.37,1.65-.67,2.42,0,1.11.72,1.38c2.22.78,4.41,1.66,6.63,2.45.68.24.92.47.66,1.26-.74,2.29-.69,2.29,1.6,3.23.95.39,2.35.59,2.7,1.3s-.56,1.89-.93,2.85c-.57,1.49-1.11,3-1.76,4.45-.33.77-.11,1.1.55,1.5,9.15,5.56,15.81,13.3,19.2,23.44,5.64,16.84,2.67,32.21-9.12,45.57A43,43,0,0,1,327,124a44.49,44.49,0,0,1-29.17-6.86c-1-.62-1.33-1.2-.79-2.27a8.51,8.51,0,0,0,.45-1.58c1.27.79,2.46,1.59,3.69,2.31a42,42,0,0,0,49.06-5.07,41.33,41.33,0,0,0,14-28.66,42,42,0,0,0-35.27-44.22c-.59-.09-1.18-.18-1.78-.25-1.86-.21-1.85-.21-2.12,1.67-.2,1.38-.43,2.76-.6,4.14-.09.8-.39,1.07-1.23.92-2-.35-1.93-.31-1.63-2.28,1.18-7.65,2.32-15.31,3.52-23,.09-.63,0-.84-.66-.87-4.15-.22-8.3-.45-12.44-.73-1-.07-1.21.16-1.1,1.16.74,6.51,1.41,13,2.12,19.53.2,1.91.39,3.82.66,5.71.12.88,0,1.38-1,1.38a5.55,5.55,0,0,0-1.08.08c-.71.13-.89-.22-.95-.85-.12-1.48-.38-2.94-.43-4.41,0-1-.42-.94-1.15-.69a42,42,0,0,0-24.29,20.87,26.66,26.66,0,0,0-1.26,2.71c-.3.79-.62.77-1.17.23-1.93-1.89-1.91-1-.67-3.5a44.5,44.5,0,0,1,26.65-23.2c1.24-.41,1.45-1,1.32-2.12-.74-6.3-1.41-12.62-2.1-18.93,0-.44,0-.88,0-1.32Zm16.74,19.47c-.12.62.1.9.75.91a6.8,6.8,0,0,1,1.42.17c.59.15.77-.15.9-.63q1.59-5.94,3.21-11.88c.21-.75-.1-1-.8-1.06a24.72,24.72,0,0,1-2.72-.38c-.58-.12-.76,0-.85.6C327.15,25.21,326.5,29.3,325.86,33.39Zm6,1.07c-.14.56.2.69.63.8,1.31.35,2.62.68,3.9,1.1.62.21.77-.06.91-.53.73-2.32,1.45-4.63,2.2-6.94.17-.55.1-.88-.51-1.1-1.39-.48-2.75-1-4.13-1.54-.34-.13-.7-.27-.85.27C333.32,29.17,332.6,31.81,331.88,34.46Zm11.91-1c-.2-.55-.82-.47-1.23-.72-.67-.4-1.1-.34-1.31.57a17.68,17.68,0,0,1-1,3.29c-.52,1.16.25,1.34,1,1.67,1,.42.77-.5,1-.87a5.73,5.73,0,0,0,.41-1C343,35.44,343.39,34.48,343.79,33.45Z"/><path d="M49.92,106.32A14.86,14.86,0,0,1,51.69,103c1.93-2.18,4.49-3,7.23-3.36a23.9,23.9,0,0,1,6.81-.05c.92.14,1.23-.23,1.49-1,2-6.47,4.17-12.92,6.19-19.4.36-1.14.81-1.26,1.86-.93,2.55.81,5.13,1.53,7.72,2.2.92.24,1.05.59.79,1.48-1.8,6.22-3.52,12.45-5.31,18.66-.23.81-.21,1.16.72,1.39a223.75,223.75,0,0,1,30.38,10.26c1,.41,1.52.31,2.13-.59a65.56,65.56,0,0,1,5.93-7.06c.54-.58.77-.58,1.17.14,1.07,1.94,1.1,1.92-.41,3.54a64.12,64.12,0,0,0-6,7.62c-.32.48-.55.75-1.22.44a187.19,187.19,0,0,0-20.33-7.8c-4.12-1.4-8.31-2.61-12.52-3.69-.79-.21-1.1,0-1.23.71-.09.43-.21.86-.33,1.28s-.08.58.32.75c3,1.24,5,5.85,3.69,9.69a11.18,11.18,0,0,1-8.46,7.83.9.9,0,0,0-.71.38c1.46.81,2.9,1.64,4.36,2.43,10.31,5.58,21.11,10.08,31.86,14.69,2.39,1,4.76,2.09,7.16,3.06.75.3,1,.57.6,1.37-.82,1.84-.79,1.88-2.63,1.08-11.45-5-23.08-9.61-34.2-15.34-2.84-1.46-5.65-3-8.44-4.56-.67-.37-1-.4-1.27.4s-.73,1.43-1,2.19c-1.76,6.14-6.89,9.61-11.11,14.2-.28-2.14-.53-4-.78-5.88s-.41-3.49-.66-5.23a3.48,3.48,0,0,1,.21-1.64c1-3.36,2-6.72,3.14-10.06a1.54,1.54,0,0,0-.58-2,30.24,30.24,0,0,1-6-6,19,19,0,0,1-2.39-4.9Zm3.08,1.5c0,1.6.77,3.31,2.35,5.26a44,44,0,0,0,8.92,7.76,7.26,7.26,0,0,0,2.82,1.23c4.9,1.05,9.09-1.08,10.68-5.44a4.94,4.94,0,0,0-3.21-6.74q-4.82-1.61-9.64-3.24c-.36-.13-1.12-.11-.94-.64.28-.83.13-2.06,1.13-2.39.53-.18.63-.38.63-.76s-.46-.37-.74-.37c-1.63,0-3.28-.08-4.91,0a10.27,10.27,0,0,0-4.9,1.42A4.31,4.31,0,0,0,53,107.82ZM80.14,83.55c.14-.78-.22-.85-.52-.94-.84-.26-1.71-.42-2.52-.74s-1.38-.17-1.68.85c-.8,2.76-1.72,5.48-2.6,8.21-1.51,4.71-3,9.43-4.56,14.12-.29.86-.09,1.22.75,1.45a22.22,22.22,0,0,1,2.95,1c1,.42,1.41.24,1.71-.87,2-7.2,4-14.37,6-21.55C79.88,84.46,80.06,83.84,80.14,83.55Zm-21,54.87c1.47-1.64,3.2-2.72,4.11-4.46,1.19-2.3,2.12-4.73,3.21-7.08.29-.62.14-.9-.4-1.23-1.19-.73-2.38-1.48-3.49-2.32-.69-.51-.87-.32-1.09.4-.91,3-1.86,6.1-2.82,9.14a2.79,2.79,0,0,0-.1,1.18C58.77,135.39,59,136.73,59.18,138.42Z"/><path d="M246.51,56.14a45.07,45.07,0,0,1,44.83,40.19c.1.91.6.85,1.22.88s1.35-.29,1.58.18a6.67,6.67,0,0,1,.29,2.22c0,.37-.21.47-.53.47a7.76,7.76,0,0,1-1,0c-1.05-.17-1.33.23-1.33,1.3a45.1,45.1,0,0,1-26.14,40.73A46.23,46.23,0,0,1,252.23,146a41.55,41.55,0,0,1-8.39.32,43.89,43.89,0,0,1-20.67-6.48,45.44,45.44,0,0,1-10.06-8.24,44.9,44.9,0,0,1-10.52-20.11,48.39,48.39,0,0,1-1.22-9.36c-.06-1.71,0-1.79-1.74-1.51-.78.13-1,0-.88-.75a3.42,3.42,0,0,0,0-1c-.21-1.06.26-1.35,1.23-1.21,1.13.16,1.56-.13,1.71-1.49a43,43,0,0,1,3.07-12,47.24,47.24,0,0,1,8.46-13.34,44.14,44.14,0,0,1,14-10.4,42,42,0,0,1,13.09-3.8A49.15,49.15,0,0,1,246.51,56.14Zm-.2,87.17A41.12,41.12,0,0,0,262.6,140a41.55,41.55,0,0,0,18-14.25,40,40,0,0,0,7.88-24.36c0-1-.27-1.19-1.21-1.14a42.43,42.43,0,0,1-6.67.23.83.83,0,0,0-1,.76,11.19,11.19,0,0,1-2.52,4.91,11.9,11.9,0,0,1-11.1,4.32c-5.47-.78-9.08-4.05-10.59-9.44-.26-.92-.7-1-1.48-1-4.06.18-8.12.31-12.17.45-.92,0-1.85,0-2.76,0s-1.19.18-1.46,1.08a12.5,12.5,0,0,1-24.12-.43,1,1,0,0,0-1.12-.9c-2.39-.11-4.77.2-7.15.25-.8,0-.66.49-.67,1a34.24,34.24,0,0,0,1.06,9.3,42.2,42.2,0,0,0,40.77,32.5Zm37.32-45.86c1.35-.11,2.7,0,4.06-.17.76-.13.77-.38.69-1A42.33,42.33,0,0,0,283,80.23a42,42,0,0,0-41.76-20.74,40.61,40.61,0,0,0-16,5.38,41.88,41.88,0,0,0-11,9.31A40.94,40.94,0,0,0,207,86.85a41.38,41.38,0,0,0-2.24,9.71c-.06.67.12.87.83.89,2.28,0,4.54-.24,6.81-.24.57,0,.72-.22.78-.77a12.5,12.5,0,0,1,16-10.38c4.63,1.33,7.49,4.55,8.7,9.21.2.76,0,1.78.49,2.27s1.5-.07,2.28-.09c4.48-.06,9-.2,13.43-.27.74,0,1.06-.13,1.2-1a12.47,12.47,0,0,1,11.69-10.66,12.68,12.68,0,0,1,12.69,8.91c.32,1,0,2.45.87,2.91S282.56,97.45,283.63,97.45Zm-58.22,10.1c4.24.39,10.11-4,9.6-10.24a9.7,9.7,0,0,0-9.52-8.75A9.55,9.55,0,0,0,216,97.47C215.63,103,220.51,107.83,225.41,107.55ZM277,98c.28-4.7-4-9.5-9.58-9.48a9.52,9.52,0,0,0,.23,19C272.32,107.59,277.27,103.23,277,98Z"/><path d="M426.58,143.62c-2.8-2.79-5.64-5.54-8.37-8.39a8.45,8.45,0,0,1-1.22-2.46c-.78-1.74-1.56-3.49-2.32-5.26-.26-.61-.46-.87-1.2-.45-12.92,7.42-26.56,13.27-40.48,18.51-.49.18-1.14.75-1.52.25a5,5,0,0,1-.84-2.2c-.09-.52.61-.51,1-.65q8.24-3.14,16.3-6.65a247.52,247.52,0,0,0,23-11.28l1.4-.84a11.59,11.59,0,0,1-7.66-4.54c-3.07-4.17-2.81-9.13.65-12.4.23-.22.48-.51.76-.56,1.12-.23.93-.9.69-1.68-.48-1.61-.45-1.61-2.12-1.17A222.26,222.26,0,0,0,373,115.16c-1,.43-1.39.45-2-.67a38.19,38.19,0,0,0-6.31-8c-.73-.74-.89-1.29-.21-2.07a2.16,2.16,0,0,0,.35-.63c.35-.86.71-.95,1.39-.21a65.51,65.51,0,0,1,5.91,7.09c.66,1,1.22,1,2.23.59A227.46,227.46,0,0,1,401,101.7c1.12-.32,2.23-.67,3.36-.89.94-.19,1.07-.57.8-1.47-1.77-6.1-3.44-12.22-5.22-18.32-.29-1-.2-1.43.91-1.71,2.67-.67,5.31-1.47,7.95-2.27.74-.22,1.09-.15,1.35.68,2.05,6.51,4.19,13,6.21,19.52.34,1.07.84,1.21,1.8,1.11a21.38,21.38,0,0,1,10.16,1c4.9,1.91,6.72,6.63,4.42,11.37-1.65,3.4-4.33,5.93-7.22,8.23a1.74,1.74,0,0,0-.7,2.29c.94,2.76,1.71,5.58,2.64,8.34a9.65,9.65,0,0,1,.49,4.8c-.47,2.8-.72,5.63-1.07,8.44A1,1,0,0,1,426.58,143.62Zm-5.39-42.34c-.88,0-1.75,0-2.63,0-.26,0-.63-.08-.68.31s.1.81.34.83c1.26.08.92,1.2,1.3,1.84s.17,1.09-.64,1.34c-3.3,1.06-6.58,2.18-9.87,3.28a4.82,4.82,0,0,0-3.28,6c1.39,5.6,8.5,8.38,13.28,5.14,1.62-1.09,3.2-2.26,4.72-3.49a22.12,22.12,0,0,0,6.18-6.91c1.73-3.4.55-6.36-3.06-7.61A14.85,14.85,0,0,0,421.19,101.28ZM407.28,80.64c-1,.28-2.06.65-3.19.91-.66.15-.71.45-.53,1,.32,1,.57,2,.85,3q2.67,9.43,5.31,18.88c.21.76.5.92,1.22.64a30.29,30.29,0,0,1,3.29-1.11c.83-.23,1.06-.52.75-1.4-.87-2.49-1.63-5-2.44-7.51q-2.18-6.78-4.37-13.55C408.06,81.16,408.12,80.55,407.28,80.64Zm17.23,56.69c.21-1.94.89-3.69.47-5.37-.81-3.21-1.91-6.34-2.89-9.5-.15-.48-.34-.62-.83-.28-1.25.86-2.51,1.71-3.81,2.49-.6.36-.45.72-.24,1.17.78,1.75,1.69,3.45,2.31,5.25C420.44,133.73,422.59,135.28,424.51,137.33Z"/><path d="M123.1,56.45c-2.18-.12-4.21-.25-6.25-.33-.86,0-1.34-.27-1.15-1.28.43-2.23-.22-1.86,2.49-1.7,7.65.46,15.26.34,22.75-1.54,5.42-1.37,9.95-4.07,13-8.89a2,2,0,0,0,.2-2.18,18.57,18.57,0,0,1-1.55-7.93c0-.8.27-.93,1-.83,2,.27,2,.25,2.09,2.29.42,7.08,5,12.38,12.35,14.42,5.2,1.44,10.29.7,15.37-.6a65.23,65.23,0,0,0,10.7-3.83c.66-.3,1-.35,1.32.44.84,1.93.89,1.91-1,2.76l-1.42.63a51.84,51.84,0,0,1,4.66,5.33,45.06,45.06,0,0,1,8.12,18.24,1.87,1.87,0,0,1-.29,1.56c-.66,1-1.27,2-1.9,3,0,0-.08,0-.19,0a42.28,42.28,0,0,0-3-11.87,43,43,0,0,0-9.87-14.46,1.44,1.44,0,0,0-1.7-.35c-5.24,1.78-10.58,3.19-16.18,2.87-6.06-.34-11.46-2.37-15.65-7-.27-.3-.49-.94-1-.16-3.88,5.73-9.59,8.47-16.13,9.88a69.11,69.11,0,0,1-12.24,1.38,1.37,1.37,0,0,0-1.26.69,42.1,42.1,0,0,0,6.57,54,40.84,40.84,0,0,0,32.49,11c13.23-1.25,23.59-7.66,31.13-18.6l.68-1,.44,4.39c0,.4-.29.64-.5.92a44.7,44.7,0,0,1-27.39,16.75,39.14,39.14,0,0,1-4,.52c-.89.08-1.2.41-1.17,1.33.08,2.28,0,4.56,0,6.84,0,.87-.19,1.19-1.12,1.16-2,0-2,0-2-2s0-4.16,0-6.23c0-.67-.18-.89-.87-.9a45.06,45.06,0,0,1-43.82-38.68,44.48,44.48,0,0,1,5.88-29.49C122.86,56.93,122.94,56.76,123.1,56.45Z"/><path d="M102.16,82a54.68,54.68,0,0,0,1.06,11.56c.66,3,1.7,3.89,4.8,4.12a16.63,16.63,0,0,0,5.36-.34c.84-.21,1.12,0,1.33.78.53,2,.57,2-1.44,2.33-3.31.54-6.6.6-9.73-.94A4.78,4.78,0,0,1,101,96.66a31.07,31.07,0,0,1-1.53-7.73,74.31,74.31,0,0,1,4.33-33.34C110.79,37.15,124.1,26,143.4,22a79.28,79.28,0,0,1,40.95,2c16.8,5.49,28.58,16.48,34.87,33.13.17.45.66,1,.23,1.43a7.85,7.85,0,0,1-2.13,1.53c-.48.23-.44-.46-.52-.72a45.81,45.81,0,0,0-4.41-9.69C205,37.37,194.1,29.57,180.28,26c-14.37-3.72-28.81-3.75-43,.82-14.86,4.77-24.8,14.87-30.44,29.29A71.09,71.09,0,0,0,102.16,82Z"/><path d="M252.56,226l-2.95-5.23q-6.51-11.61-13-23.21a3,3,0,0,1-.33-2.16q3-15.33,5.94-30.67c.13-.67.07-1.44,1.25-1.15,2,.48,2,.41,1.74,1.72q-2.89,15-5.81,30a1.86,1.86,0,0,0,.16,1.37q6.13,10.92,12.24,21.84c.08.13.2.24.37.46,1.53-3.82,3-7.55,4.53-11.28,1.39-3.48,2.77-7,4.18-10.45a3.27,3.27,0,0,0,.17-2.09c-2.25-9.59-4.47-19.19-6.75-28.78-.22-.94-.14-1.46.92-1.52a2,2,0,0,0,.7-.15c.88-.41,1.15,0,1.33.82.93,4.13,1.92,8.24,2.88,12.36q2,8.63,4,17.25a3.87,3.87,0,0,1-.16,2.53q-5.44,13.5-10.83,27C253,225,252.81,225.38,252.56,226Z"/><path d="M247.64,161a12.54,12.54,0,0,1-12.32-10.07c-.18-.88,0-1.12.85-.81a3.34,3.34,0,0,0,.94.19,1.74,1.74,0,0,1,1.62,1.41,9.31,9.31,0,0,0,8.56,6.22,9.52,9.52,0,0,0,9.21-6c.16-.39.12-1,.56-1.13a8.22,8.22,0,0,1,2.57-.48c.6,0,.28.7.19,1.06A12.55,12.55,0,0,1,247.64,161Z"/><path d="M301.73,200.46c1.4-.41,1.51.35,1.41,1.45a26.22,26.22,0,0,1-5.09,14c-2.84,3.68-6.92,5.39-11.28,6.56l-.7.16c-2.1.49-2.07.49-2.35-1.61-.1-.82.14-1.05,1-1.22,4.21-.86,8.2-2.29,11-5.78,2.61-3.27,3.76-7.17,4.34-11.26a6,6,0,0,0,.09-1C300.09,200.65,300.51,200.05,301.73,200.46Z"/><path d="M376.05,177.32c1.78,0,1.82,0,1.67,1.54a28.6,28.6,0,0,1-4,12.32c-2.72,4.45-7,6.62-11.81,8-.46.13-.93.22-1.4.32-2,.46-2.55-.11-2.27-2.17.07-.52.39-.5.74-.58a28.63,28.63,0,0,0,5.48-1.67,14.48,14.48,0,0,0,8.05-8.11,24.7,24.7,0,0,0,2.07-8.2C374.69,177.57,375,177.05,376.05,177.32Z"/><path d="M317,176.76a6.11,6.11,0,0,1,6.28-6.15,6.22,6.22,0,0,1,6.17,6.29,6.3,6.3,0,0,1-6.32,6.19A6.23,6.23,0,0,1,317,176.76Zm6.24,3.27a3.17,3.17,0,0,0,3.15-3.22,3.33,3.33,0,0,0-3.17-3.24,3.36,3.36,0,0,0-3.25,3.32A3.27,3.27,0,0,0,323.28,180Z"/><path d="M321.49,105.37a21.89,21.89,0,0,1-12.6-3.87c-.85-.61-.92-1.06-.09-1.69a2.75,2.75,0,0,0,.59-.59c.46-.62.85-.52,1.46-.12a18.26,18.26,0,0,0,17.8,1.71,11.53,11.53,0,0,0,3.77-2.51c.51-.52.86-.66,1.45-.12,1.67,1.52,2.17,1,.05,2.85A18.72,18.72,0,0,1,321.49,105.37Z"/><path d="M161.32,99.08a19.39,19.39,0,0,1-13.26-4.9c-.78-.7-.83-1.06.05-1.8s1.55-.89,2.61,0c5.43,4.61,14.71,4.91,20.68.68,1-.7,1.47-.63,2.22.21,1.1,1.23,1.15,1.18-.21,2.14A21.71,21.71,0,0,1,161.32,99.08Z"/><path d="M265.84,154.52c-.47.08-.56-.16-.68-.44-.89-2.06-.81-2.22,1.28-3A62,62,0,0,0,282.79,143a11.68,11.68,0,0,0,3-2.86,1.58,1.58,0,0,1,2.26-.7c1.57.62,1.62.58.62,2a24.33,24.33,0,0,1-7.77,6.45,73,73,0,0,1-14.64,6.47Z"/><path d="M230.6,151.26c-.08.28-.14.51-.21.74-.46,1.62-.47,1.65-2.1,1.1a68.59,68.59,0,0,1-16.49-7.85,20.07,20.07,0,0,1-5.33-4.94c-.88-1.25-.81-1.28.59-1.85a1.72,1.72,0,0,1,2.41.7,23.16,23.16,0,0,0,7.27,5.59,72.67,72.67,0,0,0,12.93,5.62C230.68,150.7,230.68,150.7,230.6,151.26Z"/><path d="M110.16,83.26A34.26,34.26,0,0,1,111,75c.15-.77.45-1,1.21-.75,1.9.49,2,.47,1.55,2.36-1.08,4.66-.34,9.28.12,13.92,0,.2.08.39.1.59.24,2,.23,2-1.8,2.33-.82.14-1-.06-1.09-.85C110.66,89.11,110.25,85.63,110.16,83.26Z"/><path d="M148.64,72c.72-.1.61.49.71.87.49,2,.49,2-1.47,2.4-5,1-9.93,2-14.88,3.06-.92.2-1.29.06-1.42-.89-.29-2.16-.84-1.74,1.48-2.23,5-1.06,10-2.07,15-3.09Z"/><path d="M172.07,72c2.71.47,5.19.89,7.66,1.33,3,.53,6,1.1,9,1.58.82.13,1,.4.79,1.17-.43,2-.39,2-2.42,1.65-4.92-.87-9.83-1.75-14.74-2.59-.86-.14-1.32-.45-.94-1.35C171.63,73.13,171.22,72.17,172.07,72Z"/><path d="M316.2,77.79a6.57,6.57,0,0,1,6.53,5.43c.09.5,0,.77-.55.78a2.38,2.38,0,0,0-.71.07c-1.09.35-1.71.15-2.08-1.1a2.89,2.89,0,0,0-2.78-2.11A4.86,4.86,0,0,0,312,82.92c-.21.3-.32.65-.52,1s0,1.2-.65,1.3a7.8,7.8,0,0,1-2.26-.1c-.7-.11-.4-.64-.31-1A7.91,7.91,0,0,1,316.2,77.79Z"/><path d="M161,80.14c2.44,0,4.62,1.51,6.2,4,.31.5.34.86-.33,1a2.21,2.21,0,0,0-.55.23c-.93.55-1.58.61-2.33-.48-1.26-1.82-3.22-2.1-5.27-1.58a3.24,3.24,0,0,0-2.56,3.33c0,.4.24,1-.33,1.15a5.33,5.33,0,0,1-2.45.39c-.37-.06-.24-.54-.25-.84C153,83,155.79,80.12,161,80.14Z"/><path d="M211.69,65.2c.1.44-.2.52-.52.65-2.16.86-2.24.85-2.84-1.4a35,35,0,0,0-3-7.06c-.37-.71-.38-1,.42-1.43,1.83-.88,1.79-.91,2.71.87a35.13,35.13,0,0,1,3,7.68C211.54,64.74,211.62,65,211.69,65.2Z"/><path d="M375.21,172.31c-.36.08-.48-.21-.54-.62q-.42-3.09-.87-6.16c-.05-.37,0-.55.41-.68,2.22-.68,2.55-.48,2.83,1.79.17,1.39.32,2.78.61,4.14.19.95,0,1.34-1,1.32A8.67,8.67,0,0,0,375.21,172.31Z"/><path d="M108.2,156.49H108c-2.09-.13-2.17-.25-1.84-2.27.24-1.46.47-2.91.62-4.38.08-.79.31-1.12,1.18-1,1.93.31,2,.27,1.7,2.28-.2,1.54-.47,3.07-.66,4.61C109,156.32,108.79,156.65,108.2,156.49Z"/><path d="M303.13,194.48c.08.4-.14.57-.64.66-2.19.42-2.19.44-2.54-1.78-.23-1.42-.42-2.84-.65-4.26-.13-.74,0-1.27.9-1.21a1.86,1.86,0,0,0,.47-.09c1.5-.25,1.51-.24,1.71,1.25C302.61,190.82,302.87,192.6,303.13,194.48Z"/><path d="M132.58,128.88a11,11,0,0,1-2-1.7c-.34-.45.37-.87.66-1.26.87-1.14,1.82-2.22,2.67-3.38.5-.69.88-.67,1.51-.14,1.52,1.29,1.54,1.25.26,2.84-.83,1-1.64,2.06-2.47,3.09A1.2,1.2,0,0,1,132.58,128.88Z"/><path d="M188.39,128.07c.05.24-.12.35-.26.49-1.52,1.43-2.16,1.34-3.22-.46-.46-.8-.89-1.62-1.42-2.36s-.27-.92.35-1.28c1.81-1,1.79-1.07,2.87.71l1.58,2.68A2.14,2.14,0,0,1,188.39,128.07Z"/><path d="M299.08,67.68a6.24,6.24,0,1,0,6.23,6.21A6.16,6.16,0,0,0,299.08,67.68Zm0,9.39a3.11,3.11,0,0,1-3.18-3.16,3.27,3.27,0,0,1,3.28-3.25A3.39,3.39,0,0,1,302.33,74,3.21,3.21,0,0,1,299.07,77.07Z"/><path d="M323.23,131.76A6.09,6.09,0,0,0,317,138a6.18,6.18,0,0,0,6.21,6.23,6.23,6.23,0,1,0,0-12.45Zm0,9.39A3.25,3.25,0,0,1,320,138a3.34,3.34,0,0,1,3.27-3.28,3.26,3.26,0,0,1,3.15,3.25A3.12,3.12,0,0,1,323.26,141.15Z"/><path d="M323.33,151.68a6.24,6.24,0,1,0,6.16,6.24A6.2,6.2,0,0,0,323.33,151.68Zm-.07,9.48a3.32,3.32,0,0,1-3.25-3.3,3.23,3.23,0,0,1,3.26-3.13,3.14,3.14,0,0,1,3.16,3.2A3.25,3.25,0,0,1,323.26,161.16Z"/><path d="M335.93,69.8A6.22,6.22,0,1,0,342,76.12,6.08,6.08,0,0,0,335.93,69.8Zm-.12,9.4a3.17,3.17,0,0,1-3.17-3.2,3.22,3.22,0,1,1,3.17,3.2Z"/><path d="M247.14,127.43a18.88,18.88,0,0,1-13-5c-.66-.62-.87-1.08.06-1.6a6.11,6.11,0,0,0,.93-.75c.36-.33.63-.32,1,0,5.27,4.79,11.35,5.11,17.82,3.13a11.59,11.59,0,0,0,4-2.1c.62-.52,1-.38,1.46.13,1.54,1.56,1.57,1.55-.24,2.75A22.08,22.08,0,0,1,247.14,127.43Z"/><path d="M240.25,112.92a6.59,6.59,0,0,1,6-6.43,8.08,8.08,0,0,1,7.72,3.32c.87,1.13.81,1.31-.53,1.82a3.14,3.14,0,0,0-.64.3c-.62.45-1,.22-1.38-.34a4.76,4.76,0,0,0-5.37-2,3.24,3.24,0,0,0-2.66,3.3c0,1-.26,1.34-1.29,1.48C240.2,114.59,240.22,114.69,240.25,112.92Z"/></svg>