<svg id="Layer_1" data-name="Layer 1" xmlns="http://www.w3.org/2000/svg" viewBox="0 0 500 250"><title>wd_team</title><path d="M250.79,230.78c-.33-.35-.77-.18-1.15-.18-5.16,0-10.33,0-15.49-.15-7.53-.26-15-1-22.2-3.44-8-2.75-14.31-7.52-18.31-15.09a1.11,1.11,0,0,0-1.21-.67c-3.39.08-6.78.25-10.17.16-7.75-.21-15.49,0-23.24-.21s-15.54-.65-23.09-2.79c-8.22-2.34-15.1-6.58-19.71-14a40.47,40.47,0,0,1-5.35-15c-1.45-8.77-1.1-17.56-.05-26.34.15-1.32.35-2.63.51-3.94.09-.73.23-1.15,1.15-.76,1.68.71,1.7.65,1.43,2.48a110.58,110.58,0,0,0-1.23,17.62,59,59,0,0,0,2.46,16.9c3.32,10.47,10.39,17.06,20.84,20.15A71.28,71.28,0,0,0,150.55,208c6.19.49,12.38.42,18.58.47,1,0,1.35-.22,1.35-1.32q-.06-30.56,0-61.11c0-.46-.34-1.2.3-1.36a8.13,8.13,0,0,1,2.31,0c.18,0,.19.28.19.47s0,.66,0,1q0,30.51,0,61c0,1,.2,1.36,1.31,1.37,4.83.07,9.67.15,14.5.08.47,0,.95,0,1.43-.09,1.46-.14,1.46-.14,1-1.47a54.14,54.14,0,0,1-2.91-15.48,100.8,100.8,0,0,1,2.69-29.73,69.2,69.2,0,0,1,17-31.43c.61-.63.87-.64,1.3.16.84,1.6.91,1.6-.3,2.92-9.33,10.24-14.57,22.39-16.75,36a104.12,104.12,0,0,0-1.26,21.16,49.89,49.89,0,0,0,3.62,17.55c3.84,9,10.81,14.22,20,16.88a72.39,72.39,0,0,0,15.47,2.44c8.73.58,17.48.33,26.22.46,4.64.07,9.29.15,13.94-.07a65.53,65.53,0,0,0,14.73-2.11q15.18-4.23,18.9-19.51a62,62,0,0,0,1.23-19.12,119.92,119.92,0,0,0-3.17-20.73,78,78,0,0,0-13.95-29.69c-.22-.29-.73-.55-.42-1a8.43,8.43,0,0,1,1.41-1.82c.29-.26.56.34.77.6a68.08,68.08,0,0,1,6,8.85,90.16,90.16,0,0,1,10.54,30.55,111,111,0,0,1,1.76,21.68,50.38,50.38,0,0,1-1.41,10.94c-.27,1,.06,1.17,1,1.16,7-.06,13.95,0,20.92-.15,7.19-.15,14.37-.46,21.41-2.15,5.7-1.37,11-3.56,15.42-7.56,4.89-4.42,7.61-10.07,9.12-16.36A70.49,70.49,0,0,0,376.21,161,100.27,100.27,0,0,0,375,149.09c-.21-1.18.56-1.25,1.24-1.53,1.25-.51,1.29-.51,1.5.83a126.23,126.23,0,0,1,1.31,13.74,75.42,75.42,0,0,1-1.16,17.94,38.85,38.85,0,0,1-5.58,14.2c-.15.24-.49.46-.33.76s.53.17.8.17l26.12.23c.44,0,.88.08,1.32,0,.9,0,1.18.31,1.13,1.23-.1,1.8.16,1.54-1.64,1.52-4.35,0-8.71,0-13.06-.08q-8.19-.06-16.38-.16a1.86,1.86,0,0,0-1.53.65,27.63,27.63,0,0,1-3.33,3c.28.34.63.17.92.17,12.77,0,25.54,0,38.3.12l13.28.06c.82,0,1,.28.94,1a3.7,3.7,0,0,0,0,.88c.08.71-.26.85-.9.85q-21.42-.08-42.84-.12H361.14a1.6,1.6,0,0,0-.66.08,60.76,60.76,0,0,1-5.68,2.3l0,.32h6.35c10.15,0,20.3,0,30.44.14,2.32,0,4.65.09,7,.06.75,0,1,.24.92.95-.09,1.8-.07,1.8-1.91,1.8-9.52,0-19,0-28.56-.14-9-.14-18.08-.24-27.11-.15-11.8.12-23.6.47-35.4.46a.92.92,0,0,0-1,.71,13.55,13.55,0,0,1-.86,2c-.43.82-.34,1.14.69,1.12,3.14-.06,6.27,0,9.41-.06,7.27,0,14.54,0,21.81-.07l37.63-.17c.41,0,1.1-.24,1.2.2a7,7,0,0,1,0,2.41c-.05.31-.59.17-.9.17l-17.38.09c-6.72,0-13.44-.06-20.15,0-11.18.17-22.36.12-33.54.16a1.33,1.33,0,0,0-1.36.67,13.67,13.67,0,0,1-1,1.33c.23.42.61.24.9.24,2.95,0,5.91.05,8.86.06q21.13.07,42.28.12c.91,0,1.3.23,1.14,1.15a1.62,1.62,0,0,0,0,.22c0,1.45,0,1.46-1.4,1.45l-8.74-.08c-14.94-.08-29.88-.06-44.83-.1a2.76,2.76,0,0,0-2,.68,38.65,38.65,0,0,1-7.06,4.42c1.69,0,3.4.09,5.09,0,2.73-.18,5.46-.08,8.19-.12,6.08-.08,12.17-.05,18.26-.09,2.65,0,5.31-.06,8-.16.84,0,1.09.21,1,1-.12,2,.43,1.79-1.83,1.81l-38.84.27c-4.06,0-8.12,0-12.17.18a36.79,36.79,0,0,0-6.52.67Z"/><path d="M306.59,27.29a14.51,14.51,0,0,0,4,.4c4.34.31,8.68.53,13,.73.91,0,1.1.43.87,1.16s-.07,1,.76,1.1c1.79.19,3.56.57,5.35.75.89.1.93.46.7,1.15s-.33,1.52-.61,2.23,0,1,.67,1.27c2,.73,4.06,1.53,6.11,2.26.63.23.85.44.61,1.17-.69,2.11-.64,2.11,1.47,3,.88.35,2.17.54,2.5,1.2s-.52,1.74-.86,2.63c-.53,1.37-1,2.76-1.62,4.11-.31.7-.11,1,.5,1.38,8.44,5.13,14.59,12.27,17.72,21.62,5.2,15.53,2.46,29.72-8.42,42.05a39.64,39.64,0,0,1-26.29,13.36,41,41,0,0,1-26.91-6.33c-.91-.57-1.23-1.11-.73-2.09a8.49,8.49,0,0,0,.41-1.46c1.17.73,2.27,1.46,3.41,2.13a38.75,38.75,0,0,0,45.26-4.68A38.14,38.14,0,0,0,357.37,90a38.78,38.78,0,0,0-32.54-40.8c-.54-.08-1.09-.16-1.64-.22-1.71-.2-1.71-.19-2,1.53-.18,1.28-.4,2.55-.55,3.83-.09.73-.36,1-1.14.85-1.8-.33-1.78-.29-1.5-2.11,1.09-7.06,2.14-14.13,3.24-21.19.09-.59,0-.77-.6-.81-3.83-.2-7.65-.41-11.48-.67-.89-.06-1.12.15-1,1.07.68,6,1.3,12,1.95,18,.19,1.76.36,3.52.61,5.27.11.81,0,1.28-.94,1.27a5.55,5.55,0,0,0-1,.08c-.65.11-.82-.21-.87-.79-.11-1.36-.35-2.71-.4-4.07,0-.93-.39-.87-1.06-.64a38.84,38.84,0,0,0-22.41,19.26,25.73,25.73,0,0,0-1.16,2.5c-.28.73-.57.71-1.08.22-1.78-1.75-1.77-.94-.62-3.24a41.07,41.07,0,0,1,24.59-21.4c1.14-.38,1.34-.88,1.21-2-.67-5.82-1.3-11.65-1.93-17.47,0-.4,0-.81,0-1.22Zm15.44,18c-.11.57.1.83.7.84a6.5,6.5,0,0,1,1.31.15c.54.14.71-.13.83-.58q1.47-5.49,3-11c.19-.69-.09-.92-.74-1a23.64,23.64,0,0,1-2.51-.34c-.54-.12-.7,0-.78.54C323.22,37.71,322.62,41.48,322,45.26Zm5.55,1c-.12.51.2.64.59.74,1.21.32,2.42.62,3.6,1,.57.19.7-.06.84-.5.67-2.13,1.34-4.27,2-6.4.17-.5.1-.81-.46-1-1.28-.45-2.54-1-3.82-1.43-.31-.11-.64-.24-.77.26Q328.59,42.58,327.58,46.24Zm11-.93c-.19-.5-.76-.44-1.14-.66-.61-.38-1-.32-1.2.52a17,17,0,0,1-.95,3c-.48,1.07.23,1.24.91,1.54.89.39.71-.46.93-.81a4.59,4.59,0,0,0,.38-.91Z"/><path d="M67.46,112.54a13.61,13.61,0,0,1,1.64-3.08,10.22,10.22,0,0,1,6.66-3.1,22,22,0,0,1,6.28,0c.85.13,1.14-.21,1.38-1,1.89-6,3.85-11.92,5.71-17.89.33-1,.75-1.17,1.72-.86,2.35.74,4.73,1.4,7.12,2,.85.23,1,.55.73,1.37-1.66,5.73-3.25,11.49-4.9,17.22-.22.74-.19,1.07.66,1.28a206.69,206.69,0,0,1,28,9.47,1.35,1.35,0,0,0,2-.55,60.71,60.71,0,0,1,5.47-6.52c.49-.53.71-.52,1.08.14,1,1.78,1,1.76-.38,3.26a58.64,58.64,0,0,0-5.54,7c-.3.44-.52.7-1.13.4a175.12,175.12,0,0,0-18.76-7.19c-3.8-1.29-7.66-2.4-11.55-3.41-.73-.18-1,0-1.14.66a9.71,9.71,0,0,1-.3,1.18c-.09.32-.07.54.3.69,2.77,1.15,4.58,5.4,3.4,8.94a10.32,10.32,0,0,1-7.81,7.23.86.86,0,0,0-.65.35c1.35.75,2.68,1.51,4,2.24,9.51,5.14,19.48,9.3,29.4,13.56,2.2.94,4.39,1.92,6.6,2.82.7.28.89.53.56,1.26-.76,1.7-.73,1.74-2.43,1C115,146.44,104.31,142.18,94,136.89c-2.62-1.35-5.2-2.76-7.78-4.2-.61-.35-.92-.37-1.17.37s-.67,1.32-.87,2c-1.63,5.66-6.36,8.86-10.25,13.1-.27-2-.5-3.7-.72-5.43s-.38-3.22-.62-4.82a3.19,3.19,0,0,1,.2-1.51c1-3.1,1.89-6.21,2.9-9.29a1.42,1.42,0,0,0-.54-1.86,28.23,28.23,0,0,1-5.53-5.55,17.52,17.52,0,0,1-2.2-4.52Zm2.84,1.38a8.06,8.06,0,0,0,2.17,4.85,40.51,40.51,0,0,0,8.23,7.17,6.79,6.79,0,0,0,2.6,1.13c4.52,1,8.39-1,9.85-5a4.55,4.55,0,0,0-3-6.22c-3-1-5.93-2-8.89-3-.34-.11-1-.1-.87-.58.26-.78.12-1.9,1-2.21.5-.17.58-.36.58-.7s-.42-.34-.67-.34c-1.52,0-3-.08-4.54,0a9.54,9.54,0,0,0-4.52,1.31A4,4,0,0,0,70.3,113.92Zm25-22.39c.12-.72-.21-.79-.48-.87-.77-.23-1.58-.38-2.33-.68s-1.27-.15-1.54.79c-.75,2.54-1.59,5-2.4,7.57-1.4,4.35-2.78,8.7-4.21,13-.27.79-.08,1.12.69,1.33a21.7,21.7,0,0,1,2.72.91c.91.39,1.3.23,1.58-.8,1.82-6.64,3.7-13.25,5.57-19.88ZM76,142.15c1.36-1.51,3-2.51,3.79-4.11,1.1-2.12,2-4.36,3-6.53.26-.57.13-.84-.37-1.14-1.1-.67-2.2-1.37-3.23-2.13-.63-.48-.8-.3-1,.36-.84,2.82-1.72,5.62-2.6,8.43a2.53,2.53,0,0,0-.09,1.09C75.63,139.36,75.8,140.59,76,142.15Z"/><path d="M248.83,66.25a41.27,41.27,0,0,1,23.38,7.17,41.59,41.59,0,0,1,18,29.9c.1.84.56.79,1.13.81s1.24-.27,1.46.17a6.2,6.2,0,0,1,.27,2c0,.34-.2.43-.49.43a5.33,5.33,0,0,1-.89,0c-1-.16-1.22.21-1.23,1.2a41.57,41.57,0,0,1-24.11,37.58,42.71,42.71,0,0,1-12.21,3.53,38.12,38.12,0,0,1-7.75.3,40.57,40.57,0,0,1-19.06-6,42.09,42.09,0,0,1-9.29-7.6,41.52,41.52,0,0,1-9.7-18.56,44.85,44.85,0,0,1-1.13-8.63c-.06-1.59,0-1.65-1.6-1.39-.73.11-.9,0-.82-.7a2.66,2.66,0,0,0,0-.89c-.2-1,.24-1.24,1.13-1.12,1,.15,1.44-.11,1.58-1.37a39,39,0,0,1,2.84-11.1,43.18,43.18,0,0,1,7.8-12.31,40.73,40.73,0,0,1,13-9.6,38.75,38.75,0,0,1,12.08-3.5A43.48,43.48,0,0,1,248.83,66.25Zm-.18,80.42A39.19,39.19,0,0,0,280.3,130.5,36.93,36.93,0,0,0,287.57,108c0-.89-.25-1.1-1.11-1a39.61,39.61,0,0,1-6.16.21.77.77,0,0,0-.93.7,10.37,10.37,0,0,1-2.32,4.53,10.94,10.94,0,0,1-10.24,4c-5.05-.71-8.38-3.74-9.77-8.7-.24-.85-.65-.92-1.37-.89-3.74.16-7.48.29-11.23.41a23.9,23.9,0,0,1-2.54,0c-.78,0-1.1.17-1.35,1a11.54,11.54,0,0,1-22.25-.4c-.17-.64-.42-.79-1-.82-2.21-.11-4.4.18-6.6.22-.73,0-.6.46-.62.89a31.76,31.76,0,0,0,1,8.58,38.93,38.93,0,0,0,37.62,30Zm34.43-42.32c1.24-.09,2.48.05,3.74-.16.7-.11.71-.34.63-.9a39.22,39.22,0,0,0-5-14.82A38.76,38.76,0,0,0,244,69.33a37.62,37.62,0,0,0-14.75,5,38.77,38.77,0,0,0-10.15,8.59,38.5,38.5,0,0,0-8.78,20.65c-.06.63.11.81.76.82,2.1.05,4.19-.21,6.28-.22.53,0,.66-.2.73-.7a10.93,10.93,0,0,1,3.42-6.83,11.6,11.6,0,0,1,19.32,5.74c.19.71,0,1.64.46,2.1s1.37-.07,2.1-.08c4.13-.06,8.26-.19,12.38-.25.69,0,1-.12,1.11-.92a11.51,11.51,0,0,1,10.79-9.83,11.7,11.7,0,0,1,11.71,8.22c.29.92,0,2.26.8,2.69S282.08,104.35,283.08,104.35Zm-53.72,9.33c3.92.36,9.33-3.72,8.86-9.46a9,9,0,0,0-8.79-8.07,8.81,8.81,0,0,0-8.75,8.23C220.33,109.49,224.85,113.93,229.36,113.68Zm47.56-8.79c.26-4.34-3.72-8.76-8.84-8.74a8.78,8.78,0,0,0,.21,17.55C272.64,113.71,277.21,109.69,276.92,104.89Z"/><path d="M415,147c-2.58-2.57-5.2-5.11-7.72-7.74a8,8,0,0,1-1.12-2.27c-.72-1.61-1.44-3.22-2.14-4.85-.24-.56-.43-.81-1.1-.42a255.36,255.36,0,0,1-37.36,17.08c-.45.17-1.05.69-1.4.23a4.61,4.61,0,0,1-.78-2c-.07-.48.57-.47.92-.6q7.59-2.9,15-6.13a229.11,229.11,0,0,0,21.23-10.41c.38-.21.75-.44,1.3-.77a10.72,10.72,0,0,1-7.07-4.2c-2.83-3.84-2.6-8.42.6-11.43.22-.2.45-.47.7-.52,1-.22.86-.83.64-1.56-.44-1.47-.42-1.48-2-1.07a205.51,205.51,0,0,0-29.21,10.43c-.91.4-1.28.42-1.87-.62a35.48,35.48,0,0,0-5.82-7.35c-.67-.68-.82-1.19-.19-1.91a1.92,1.92,0,0,0,.32-.58c.32-.79.66-.88,1.28-.19a59.78,59.78,0,0,1,5.45,6.54c.62.9,1.13.94,2.06.54a210.63,210.63,0,0,1,24.63-8.85c1-.29,2.05-.61,3.09-.82.87-.17,1-.52.75-1.35-1.64-5.63-3.18-11.28-4.82-16.9-.27-.93-.19-1.32.84-1.58,2.46-.62,4.9-1.35,7.33-2.09.69-.21,1-.15,1.25.62,1.89,6,3.86,12,5.73,18,.31,1,.77,1.12,1.66,1a19.76,19.76,0,0,1,9.37.94c4.52,1.76,6.2,6.11,4.07,10.49A22.39,22.39,0,0,1,414,124.2a1.62,1.62,0,0,0-.64,2.12c.87,2.54,1.58,5.14,2.43,7.69a8.88,8.88,0,0,1,.45,4.43c-.43,2.57-.66,5.19-1,7.78A.93.93,0,0,1,415,147Zm-5-39.06c-.81,0-1.63,0-2.44,0-.23,0-.58-.07-.62.28s.09.75.32.77c1.15.07.84,1.11,1.19,1.7s.16,1-.59,1.24c-3,1-6.07,2-9.1,3a4.45,4.45,0,0,0-3,5.53A8.24,8.24,0,0,0,408,125.19c1.49-1,2.94-2.09,4.35-3.22a20.35,20.35,0,0,0,5.69-6.38c1.61-3.14.51-5.86-2.81-7A13.79,13.79,0,0,0,410,107.89Zm-12.84-19c-.89.26-1.9.6-2.94.84-.62.15-.66.42-.49.95.29.91.53,1.83.79,2.75,1.63,5.81,3.28,11.61,4.89,17.43.19.69.46.84,1.13.58a27,27,0,0,1,3-1c.76-.21,1-.48.7-1.3-.81-2.29-1.51-4.61-2.25-6.92q-2-6.25-4-12.5C397.87,89.33,397.93,88.76,397.15,88.84Zm15.9,52.31c.19-1.79.82-3.4.43-5-.74-3-1.76-5.84-2.67-8.76-.13-.45-.31-.58-.77-.26-1.14.8-2.31,1.58-3.51,2.29-.55.34-.41.67-.22,1.09.72,1.61,1.56,3.18,2.14,4.84C409.29,137.83,411.27,139.25,413.05,141.15Z"/><path d="M135,66.53c-2-.11-3.89-.23-5.77-.3-.79,0-1.24-.25-1.06-1.18.39-2.06-.21-1.72,2.3-1.57,7.05.42,14.07.31,21-1.43,5-1.26,9.18-3.75,12-8.19a1.85,1.85,0,0,0,.17-2,17.34,17.34,0,0,1-1.42-7.33c0-.73.25-.86.91-.76,1.81.25,1.81.23,1.93,2.11.38,6.54,4.6,11.42,11.39,13.3,4.8,1.33,9.5.65,14.19-.55a60.75,60.75,0,0,0,9.87-3.53c.6-.27.9-.32,1.22.4.76,1.78.81,1.77-1,2.55l-1.32.58a47.33,47.33,0,0,1,4.3,4.92,41.54,41.54,0,0,1,7.49,16.83,1.74,1.74,0,0,1-.26,1.44c-.61.92-1.18,1.86-1.76,2.8,0,0-.07,0-.17,0a39,39,0,0,0-2.74-10.95,39.49,39.49,0,0,0-9.1-13.34,1.3,1.3,0,0,0-1.56-.32c-4.84,1.64-9.77,2.93-14.93,2.64-5.6-.31-10.58-2.18-14.44-6.47-.25-.27-.46-.86-.94-.14-3.59,5.28-8.86,7.81-14.89,9.11a63.9,63.9,0,0,1-11.29,1.28,1.26,1.26,0,0,0-1.16.63,38.84,38.84,0,0,0,6.06,49.85,37.69,37.69,0,0,0,30,10.15c12.21-1.16,21.77-7.07,28.73-17.17l.62-.9c.15,1.47.28,2.76.4,4,0,.38-.25.6-.45.85A41.16,41.16,0,0,1,178,129.34a35.36,35.36,0,0,1-3.72.49c-.82.07-1.1.37-1.07,1.23.06,2.1,0,4.2,0,6.3,0,.81-.17,1.1-1,1.08-1.8-.05-1.8,0-1.8-1.84s0-3.83,0-5.75c0-.61-.16-.82-.8-.83a41.56,41.56,0,0,1-40.42-35.68,41,41,0,0,1,5.42-27.21Z"/><path d="M115.66,90.1a50.12,50.12,0,0,0,1,10.66c.61,2.77,1.57,3.6,4.43,3.81a15.53,15.53,0,0,0,5-.31c.77-.2,1,0,1.22.71.49,1.83.53,1.86-1.32,2.16-3.06.49-6.09.54-9-.87a4.49,4.49,0,0,1-2.37-2.63,28.69,28.69,0,0,1-1.41-7.14,68.8,68.8,0,0,1,4-30.76c6.47-17,18.75-27.33,36.55-30.94a73.08,73.08,0,0,1,37.78,1.84c15.5,5.07,26.37,15.2,32.17,30.56.16.42.61.94.22,1.33a7.59,7.59,0,0,1-2,1.4c-.45.22-.41-.42-.49-.66a42.12,42.12,0,0,0-4.06-8.94c-6.84-11.39-16.87-18.59-29.62-21.89a70.12,70.12,0,0,0-39.7.75c-13.7,4.4-22.87,13.72-28.07,27A65.47,65.47,0,0,0,115.66,90.1Z"/><path d="M254.41,222.91l-2.73-4.83q-6-10.71-12-21.41a2.72,2.72,0,0,1-.31-2q2.76-14.15,5.48-28.3c.12-.62.06-1.33,1.16-1.06,1.81.44,1.84.38,1.6,1.59q-2.67,13.82-5.36,27.64a1.7,1.7,0,0,0,.15,1.27q5.66,10.06,11.29,20.15a4.83,4.83,0,0,0,.34.42c1.42-3.52,2.8-7,4.18-10.4,1.28-3.22,2.55-6.44,3.86-9.64a3,3,0,0,0,.15-1.93c-2.08-8.85-4.13-17.71-6.22-26.56-.21-.86-.13-1.34.84-1.4a1.8,1.8,0,0,0,.65-.14c.81-.37,1.06,0,1.23.76.86,3.81,1.76,7.6,2.65,11.4,1.24,5.31,2.46,10.62,3.72,15.92a3.7,3.7,0,0,1-.15,2.34q-5,12.45-10,24.92C254.81,222,254.64,222.38,254.41,222.91Z"/><path d="M249.87,163a11.58,11.58,0,0,1-11.36-9.29c-.17-.82,0-1,.78-.75a3.2,3.2,0,0,0,.86.17,1.6,1.6,0,0,1,1.5,1.3,8.59,8.59,0,0,0,7.9,5.74,8.74,8.74,0,0,0,8.49-5.55c.15-.37.11-.91.52-1a7.53,7.53,0,0,1,2.37-.45c.56,0,.26.65.18,1a11.39,11.39,0,0,1-5.64,7.43A11.55,11.55,0,0,1,249.87,163Z"/><path d="M299.77,199.39c1.29-.38,1.4.32,1.3,1.34a24.18,24.18,0,0,1-4.69,12.89c-2.63,3.4-6.39,5-10.41,6l-.64.16c-1.94.45-1.91.44-2.17-1.49-.1-.76.13-1,.88-1.12,3.89-.8,7.57-2.12,10.14-5.34a20.8,20.8,0,0,0,4-10.38,5.36,5.36,0,0,0,.09-.88C298.26,199.57,298.64,199,299.77,199.39Z"/><path d="M368.33,178c1.65,0,1.68,0,1.55,1.42a26.35,26.35,0,0,1-3.65,11.37c-2.51,4.1-6.46,6.1-10.89,7.38-.42.12-.86.2-1.29.3-1.82.42-2.36-.11-2.1-2,.06-.48.36-.46.68-.53a26.47,26.47,0,0,0,5.07-1.54,13.43,13.43,0,0,0,7.42-7.48,23,23,0,0,0,1.91-7.57C367.09,178.28,367.38,177.79,368.33,178Z"/><path d="M313.9,177.52a5.64,5.64,0,0,1,5.79-5.67,5.74,5.74,0,0,1,5.69,5.8,5.74,5.74,0,1,1-11.48-.13Zm5.75,3a2.93,2.93,0,0,0,2.91-3,3,3,0,1,0-5.92.08A3,3,0,0,0,319.65,180.54Z"/><path d="M318,111.66a20.2,20.2,0,0,1-11.63-3.57c-.78-.56-.85-1-.09-1.55a2.61,2.61,0,0,0,.55-.55c.42-.58.78-.48,1.35-.11a16.83,16.83,0,0,0,16.42,1.57,10.42,10.42,0,0,0,3.47-2.32c.48-.47.8-.6,1.35-.1,1.54,1.41,2,.94,0,2.62A17.22,17.22,0,0,1,318,111.66Z"/><path d="M170.23,105.86A17.93,17.93,0,0,1,158,101.34c-.71-.65-.76-1,0-1.66s1.43-.82,2.41,0c5,4.26,13.57,4.53,19.09.63.91-.64,1.35-.57,2,.2,1,1.13,1.06,1.09-.19,2A20.06,20.06,0,0,1,170.23,105.86Z"/><path d="M266.67,157c-.45.07-.52-.15-.63-.41-.83-1.9-.76-2,1.17-2.72a57.12,57.12,0,0,0,15.09-7.47,10.68,10.68,0,0,0,2.8-2.64,1.46,1.46,0,0,1,2.09-.64c1.45.57,1.49.53.57,1.8a22.41,22.41,0,0,1-7.17,6,67.24,67.24,0,0,1-13.5,6A3.53,3.53,0,0,0,266.67,157Z"/><path d="M234.15,154l-.19.68c-.43,1.49-.44,1.53-1.94,1a63.41,63.41,0,0,1-15.21-7.24,18.47,18.47,0,0,1-4.92-4.57c-.81-1.15-.75-1.17.54-1.7a1.57,1.57,0,0,1,2.22.65,21.42,21.42,0,0,0,6.71,5.15,67.83,67.83,0,0,0,11.93,5.19C234.22,153.49,234.22,153.49,234.15,154Z"/><path d="M123,91.27a32.56,32.56,0,0,1,.75-7.63c.14-.71.42-.88,1.12-.69,1.75.45,1.83.43,1.43,2.18-1,4.29-.31,8.56.11,12.84,0,.18.07.36.09.54.22,1.88.21,1.83-1.66,2.16-.75.13-.92-.06-1-.79C123.49,96.66,123.12,93.45,123,91.27Z"/><path d="M158.54,80.87c.66-.09.56.44.65.8.46,1.82.45,1.84-1.36,2.21-4.57.94-9.16,1.85-13.72,2.83-.85.18-1.2.05-1.31-.82-.27-2-.77-1.61,1.37-2.06,4.6-1,9.22-1.91,13.83-2.86Z"/><path d="M180.16,80.83c2.49.43,4.78.82,7.06,1.23,2.76.48,5.51,1,8.27,1.45.76.12.88.38.73,1.08-.4,1.87-.36,1.86-2.24,1.53-4.53-.81-9.07-1.62-13.6-2.39-.79-.14-1.22-.42-.87-1.25C179.75,81.92,179.37,81,180.16,80.83Z"/><path d="M313.12,86.22a6.05,6.05,0,0,1,6,5c.08.46,0,.71-.51.72A2.09,2.09,0,0,0,318,92c-1,.33-1.57.14-1.91-1a2.67,2.67,0,0,0-2.57-1.94,4.5,4.5,0,0,0-4.22,1.9c-.19.27-.29.6-.48.87s0,1.12-.6,1.2a6.94,6.94,0,0,1-2.08-.09c-.65-.1-.37-.59-.29-1A7.3,7.3,0,0,1,313.12,86.22Z"/><path d="M169.93,88.38c2.25.05,4.26,1.4,5.72,3.71.29.47.31.8-.3,1a2.28,2.28,0,0,0-.51.21c-.86.51-1.46.57-2.15-.44-1.17-1.68-3-1.94-4.86-1.45a3,3,0,0,0-2.37,3.07c0,.37.23.9-.3,1.06a4.93,4.93,0,0,1-2.27.36c-.33-.06-.21-.5-.22-.78C162.51,91,165.14,88.37,169.93,88.38Z"/><path d="M216.7,74.6c.09.4-.18.48-.48.6-2,.79-2.07.79-2.62-1.29a32.37,32.37,0,0,0-2.73-6.51c-.34-.66-.35-1,.39-1.33,1.69-.8,1.65-.83,2.5.81A32.57,32.57,0,0,1,216.51,74C216.57,74.18,216.64,74.39,216.7,74.6Z"/><path d="M367.56,173.42c-.33.07-.44-.2-.5-.58-.25-1.89-.52-3.78-.79-5.68,0-.34,0-.5.37-.62,2.05-.63,2.35-.45,2.61,1.65.16,1.28.3,2.56.56,3.82.18.87,0,1.23-.93,1.21A8.33,8.33,0,0,0,367.56,173.42Z"/><path d="M121.23,158.82h-.17c-1.93-.12-2-.22-1.69-2.09.22-1.34.42-2.69.56-4,.08-.73.29-1,1.09-.91,1.78.29,1.8.26,1.57,2.11-.18,1.42-.43,2.83-.6,4.25C121.92,158.67,121.77,159,121.23,158.82Z"/><path d="M301.06,193.87c.08.38-.12.52-.59.61-2,.39-2,.41-2.34-1.65-.21-1.3-.39-2.61-.6-3.92-.11-.69,0-1.17.83-1.12a1.7,1.7,0,0,0,.44-.08c1.38-.23,1.38-.22,1.57,1.15C300.59,190.5,300.82,192.14,301.06,193.87Z"/><path d="M143.72,133.35a10.09,10.09,0,0,1-1.8-1.57c-.31-.41.34-.8.61-1.16.8-1.05,1.68-2.05,2.46-3.12.47-.64.82-.62,1.4-.13,1.4,1.19,1.42,1.16.23,2.62l-2.27,2.85A1.1,1.1,0,0,1,143.72,133.35Z"/><path d="M195.21,132.6c0,.22-.11.33-.25.46-1.4,1.32-2,1.23-3-.43-.43-.73-.82-1.49-1.31-2.18s-.25-.84.32-1.17c1.67-1,1.65-1,2.65.65l1.46,2.47C195.16,132.47,195.18,132.54,195.21,132.6Z"/><path d="M297.33,76.89a5.75,5.75,0,1,0,5.74,5.73A5.68,5.68,0,0,0,297.33,76.89Zm0,8.66a2.86,2.86,0,0,1-2.93-2.91,3,3,0,0,1,3-3,3.14,3.14,0,0,1,2.92,3A3,3,0,0,1,297.32,85.55Z"/><path d="M319.61,136a5.61,5.61,0,0,0-5.71,5.74,5.69,5.69,0,0,0,5.73,5.74,5.74,5.74,0,1,0,0-11.48Zm0,8.66a3,3,0,0,1-3-2.89,3.08,3.08,0,0,1,3-3,3,3,0,0,1,2.9,3A2.86,2.86,0,0,1,319.64,144.67Z"/><path d="M319.7,154.39a5.76,5.76,0,1,0,5.68,5.75A5.71,5.71,0,0,0,319.7,154.39Zm-.06,8.75a3.07,3.07,0,0,1-3-3,3,3,0,0,1,3-2.89,2.9,2.9,0,0,1,2.91,3A3,3,0,0,1,319.64,163.14Z"/><path d="M331.32,78.85A5.74,5.74,0,1,0,337,84.68,5.6,5.6,0,0,0,331.32,78.85Zm-.11,8.67a2.93,2.93,0,0,1-2.92-3,3,3,0,1,1,2.92,3Z"/><path d="M249.41,132a17.38,17.38,0,0,1-12-4.6c-.61-.57-.81-1,.05-1.48a4.73,4.73,0,0,0,.86-.69c.33-.3.58-.29.93,0,4.87,4.42,10.48,4.71,16.44,2.89a10.68,10.68,0,0,0,3.7-1.94c.57-.48.89-.35,1.35.12,1.42,1.43,1.44,1.43-.22,2.53A20.32,20.32,0,0,1,249.41,132Z"/><path d="M243.06,118.63a6.08,6.08,0,0,1,5.49-5.94,7.46,7.46,0,0,1,7.12,3.07c.8,1,.75,1.2-.49,1.68a2.46,2.46,0,0,0-.59.28c-.56.41-.9.2-1.27-.32a4.4,4.4,0,0,0-5-1.86,3,3,0,0,0-2.45,3c0,.9-.24,1.24-1.19,1.37C243,120.17,243,120.26,243.06,118.63Z"/></svg>