<svg id="Layer_1" data-name="Layer 1" xmlns="http://www.w3.org/2000/svg" viewBox="0 0 500 250"><title>wd_writing</title><path d="M274,19.2a27.82,27.82,0,0,1,3.4,1,13.16,13.16,0,0,1,8.36,11.48c.07.75.35.91,1,.91q3.66,0,7.32,0a13.52,13.52,0,0,1,13.7,13.68c0,.64,0,1.28,0,1.92,0,1.7-.19,1.47,1.56,1.5,3.8.09,7.6-.21,11.39.17a12.36,12.36,0,0,1,6.83,2.94c.59.49.84.43,1.3-.15,2-2.54,4.08-5,6.1-7.56.41-.52.66-.72,1.29-.22q6.68,5.19,13.4,10.31c.56.43.65.7.17,1.3-5.53,6.84-11,13.72-16.55,20.56a3.19,3.19,0,0,0-.75,2.16q0,57.6,0,115.19a13.52,13.52,0,0,1-13.86,13.88H210.84A13.58,13.58,0,0,1,197,194.39c0-.8-.05-1.6,0-2.4s-.25-.93-1-.93c-3.72,0-7.44.06-11.16,0a13.39,13.39,0,0,1-12.58-12.12c-.06-.95-.37-1.17-1.28-1.18a80.16,80.16,0,0,1-8.63-.1,13.52,13.52,0,0,1-12.17-13.34V33.63c0-7.53,4.06-12.57,11.46-14.23.1,0,.18-.13.27-.2Zm31.63,62.16H216.37c-.36,0-.72,0-1.08,0-.18,0-.51-.1-.52-.17a10,10,0,0,1,0-2.5c.14-.67.89-.34,1.35-.34q37,0,74,0h16.92a1.71,1.71,0,0,0,1.56-.62q8.56-10.65,17.22-21.23c.48-.6.4-.89-.15-1.33a11.23,11.23,0,0,0-7.36-2.39H211.18a13.71,13.71,0,0,0-2.39.15A10.84,10.84,0,0,0,200,64q.1,65,0,130.07c0,.36,0,.72,0,1.08a10.45,10.45,0,0,0,10.56,10.11q54.16,0,108.35,0a10.43,10.43,0,0,0,10.59-10.67q0-55.62,0-111.23a1.68,1.68,0,0,0-.23-1.26l-18.46,23h1.54c2.06,0,2,0,2,2,0,.77-.28.95-1,.93-1.31,0-2.64,0-3.95,0a1.77,1.77,0,0,0-1.61.77c-4.76,6-9.56,11.91-14.33,17.87a21.86,21.86,0,0,0-2.41,3.21h1.44c6.68,0,13.36,0,20,0,1.17,0,1.52.32,1.46,1.47-.06,1,0,1.66-1.41,1.65-7.36-.09-14.72,0-22.08-.06-1.29,0-2.47,0-3.13,1.34a1,1,0,0,1-.56.42c-4.13,1.61-8.24,3.29-12.41,4.77a4.09,4.09,0,0,1-5.28-3.83,13.37,13.37,0,0,1,.47-2.68h-53c-2.27,0-1.92.45-2-2,0-.79.21-1,1-1,1.72,0,3.44,0,5.16,0q24.3,0,48.59,0a1.43,1.43,0,0,0,1.66-1.23c.61-2.15,1.31-4.27,2-6.4a5.29,5.29,0,0,1,1-1.91c2.56-3.12,5.12-6.25,7.64-9.4a17.25,17.25,0,0,0,2.19-2.92h-68c-.23,0-.57,0-.59-.27a7.51,7.51,0,0,1,0-2.37c.19-.64,1-.29,1.5-.29q34.26,0,68.52,0a2.17,2.17,0,0,0,1.9-.91c4.6-5.74,9.25-11.44,13.88-17.15C302.53,85.22,304,83.4,305.63,81.36ZM240,35.56H186.53a12.84,12.84,0,0,0-3.44.39,10.61,10.61,0,0,0-7.93,10.69V155.7q0,10.74,0,21.47A10.48,10.48,0,0,0,184.77,188c3.82.39,7.67.06,11.5.15.65,0,.69-.33.69-.83,0-6.71,0-13.43,0-20.15,0-.7-.22-.9-.89-.88-1.28,0-2.56,0-3.84,0-2.07,0-1.88.46-1.93-2,0-.77.21-1.07,1-1,1.6.05,3.2,0,4.8,0,.59,0,.84-.14.84-.8q0-9.58,0-19.19c0-.68-.3-.79-.87-.78q-1.92,0-3.84,0c-2.16,0-1.88.36-1.95-2,0-.89.32-1.06,1.11-1,1.56.06,3.12,0,4.68,0,.68,0,.87-.2.87-.88q0-11,0-22c0-.78-.3-.92-1-.91-1.72,0-3.44,0-5.16,0-.82,0-1.07-.27-1-1a3.37,3.37,0,0,0,0-.84c-.15-.94.29-1.15,1.15-1.11,1.68.06,3.36,0,5,0,.75,0,.95-.23.94-1q0-10,0-20c0-.69-.22-.9-.89-.88-1.28,0-2.56,0-3.84,0-2.07,0-1.88.46-1.93-2,0-.76.2-1.07,1-1,1.55,0,3.12,0,4.67,0,.71,0,1-.16,1-.92q0-10.92,0-21.84c0-.8-.32-.92-1-.91-1.4,0-2.8,0-4.2,0-2.16,0-1.88.36-1.95-2,0-.89.31-1.06,1.1-1,1.8,0,3.6,0,5.4,0,.59,0,.79-.18.95-.76,1.9-7,6.86-10.74,14.12-10.74H302c2.77,0,2.65,0,2.8-2.81.32-5.95-4.26-11.4-11.35-11.37C275.64,35.61,257.84,35.56,240,35.56Zm-86.79,63v59.76c0,2.12,0,4.24,0,6.36a10.4,10.4,0,0,0,8.57,9.87c3,.5,6.07.07,9.1.23,1,0,1.29-.21,1.28-1.24,0-6.08,0-12.15,0-18.23,0-2.35,0-2.42-2.31-2.33-1.16.05-1.63-.19-1.52-1.47.15-1.71-.19-1.48,1.58-1.5a6.49,6.49,0,0,1,1.08,0c1,.15,1.2-.3,1.19-1.22,0-5.8,0-11.6,0-17.39,0-2.27,0-2.26-2.25-2.28-1.76,0-1.55.22-1.55-1.5s-.21-1.53,1.52-1.55a6.14,6.14,0,0,1,1,0c1,.15,1.39-.17,1.35-1.28-.09-2.56,0-5.12,0-7.68,0-4.52,0-9,0-13.56,0-.9-.25-1.22-1.15-1.14a23.82,23.82,0,0,1-2.39,0c-.31,0-.73.08-.74-.39,0-.83-.28-1.76.13-2.46.27-.47,1.11-.13,1.7-.17a5.83,5.83,0,0,1,1.32,0c.9.12,1.14-.22,1.14-1.12,0-6.12,0-12.24,0-18.36,0-2.33,0-2.4-2.32-2.31-1.19.06-1.56-.25-1.53-1.49s.24-1.73,1.5-1.49c.27.05.56,0,.84,0,1.16.18,1.56-.2,1.55-1.47-.07-6.68,0-13.36,0-20,0-2.22,0-2.22-2.16-2.22s-2.23,0-2.14-2.25c0-.66.28-.82.86-.79.76,0,1.53-.06,2.28,0,1,.11,1.24-.32,1.18-1.23a11.05,11.05,0,0,1,.15-2.87A13.44,13.44,0,0,1,186,32.61h95c.32,0,.64,0,1,0,.68,0,.88-.18.79-.91a10.49,10.49,0,0,0-10.49-9.41H163.81a9.35,9.35,0,0,0-1.91.14,10.52,10.52,0,0,0-8.65,10.82Q153.24,65.88,153.25,98.52ZM346,56.46c0-.43-.35-.54-.59-.73-2.75-2.13-5.53-4.21-8.24-6.38-.82-.66-1.22-.58-1.87.22q-17.7,21.93-35.46,43.82-11.21,13.83-22.43,27.66c-.47.58-.43.88.08,1.36,1.14,1.06,2.22,2.19,3.32,3.29s1.08,1.08,2.05-.09q10.29-12.42,20.59-24.83c.57-.69,1-.91,1.68-.18a3,3,0,0,0,.64.54c.74.45.67.85.13,1.49-4.09,4.86-8.14,9.76-12.2,14.65q-4.56,5.49-9.11,11c-.23.27-.62.47-.24,1,1.33,1.85,1.74,1.87,3.13.14l30.92-38.53L345.52,57Zm-70.47,68.23c-1.09,3.45-2.12,6.72-3.16,10a1.33,1.33,0,0,0,.2,1.55,1.37,1.37,0,0,0,1.65.15c2.49-1,5-1.94,7.48-2.91,1.86-.73,1.86-.73.45-2.14Z"/><path d="M347.7,224.11c.05-2.87.05-2.87,3-2.87h8.86a1.92,1.92,0,0,1,1.36.28v2.64C356.49,224.19,352.09,224.28,347.7,224.11Z"/><path d="M342.65,224.21H137.91c-2.19,0-2.19,0-2.19-2.21,0-.24,0-.48,0-.72l1.43,0H340.94c.32,0,.64,0,1,0,.62-.06.88.2.83.82S342.68,223.5,342.65,224.21Z"/><path d="M264.77,159.6H216.68c-.49,0-1.28.28-1.41-.24a8,8,0,0,1,0-2.49c0-.2.3-.21.5-.22h97c.5,0,1.23-.27,1.45.22a5.18,5.18,0,0,1,.07,2.48c0,.24-.27.25-.47.25H264.77Z"/><path d="M264.88,180.44q24.06,0,48.12,0c.44,0,1.13-.29,1.27.27a5.12,5.12,0,0,1,0,2.49c0,.09-.34.15-.52.17s-.64,0-1,0q-48,0-96,0c-.51,0-1.32.34-1.5-.28a7.56,7.56,0,0,1,0-2.38c0-.23.26-.26.46-.27h49.2Z"/><path d="M309.18,97.93a13.68,13.68,0,0,1-1.92-1.67c-.39-.48.3-.81.57-1.14Q319.9,80.32,332,65.51c.63-.78,1-.83,1.77-.15,1.3,1.18,1.35,1.13.24,2.49l-24,29.4C309.77,97.49,309.63,97.8,309.18,97.93Z"/></svg>