<svg id="Layer_1" data-name="Layer 1" xmlns="http://www.w3.org/2000/svg" xmlns:xlink="http://www.w3.org/1999/xlink" viewBox="0 0 128 128"><defs><style>.cls-1{fill:url(#linear-gradient);}.cls-2{opacity:0.86;}.cls-3{fill:#fff;}</style><linearGradient id="linear-gradient" x1="25.29" y1="140.75" x2="102.71" y2="-12.75" gradientUnits="userSpaceOnUse"><stop offset="0" stop-color="#0093e9"/><stop offset="1" stop-color="#80d0c7"/></linearGradient></defs><title>github</title><rect class="cls-1" width="128" height="128"/><g class="cls-2"><path class="cls-3" d="M67.09,55.57a3.1,3.1,0,0,0-3.1-3.1H59.08A3.11,3.11,0,0,0,56,55.57v4.91a3.11,3.11,0,0,0,3.11,3.1H64a3.1,3.1,0,0,0,3.1-3.1Z"/><path class="cls-3" d="M67.09,68.72a3.1,3.1,0,0,0-3.1-3.1H59.08A3.11,3.11,0,0,0,56,68.72v4.91a3.11,3.11,0,0,0,3.11,3.1H64a3.1,3.1,0,0,0,3.1-3.1Z"/><path class="cls-3" d="M64,78.77H59.08A3.12,3.12,0,0,0,56,81.87v4.91a3.11,3.11,0,0,0,3.11,3.1H64a3.1,3.1,0,0,0,3.1-3.1V81.87A3.11,3.11,0,0,0,64,78.77Z"/><rect class="cls-3" x="42.81" y="52.47" width="11.11" height="11.11" rx="3.1" ry="3.1"/><rect class="cls-3" x="42.81" y="65.62" width="11.11" height="11.11" rx="3.1" ry="3.1"/><rect class="cls-3" x="42.81" y="78.77" width="11.11" height="11.11" rx="3.1" ry="3.1"/><rect class="cls-3" x="29.64" y="52.47" width="11.11" height="11.11" rx="3.1" ry="3.1"/><rect class="cls-3" x="29.64" y="65.62" width="11.11" height="11.11" rx="3.1" ry="3.1"/><rect class="cls-3" x="29.64" y="78.77" width="11.11" height="11.11" rx="3.1" ry="3.1"/><path class="cls-3" d="M121,27.41l-4.29-3.55a3,3,0,0,0-2.24-.68,3.06,3.06,0,0,0-2.06,1.12l-2,2.42L104,34.18a11.15,11.15,0,0,0-10.9-8.85H91.62V22.58a4.4,4.4,0,0,0-4.39-4.39h-.35a4.4,4.4,0,0,0-4.39,4.39v2.75H46V23a4.4,4.4,0,0,0-4.39-4.39h-.35A4.4,4.4,0,0,0,36.88,23v2.29H34A11.16,11.16,0,0,0,22.83,36.47V95.63A11.16,11.16,0,0,0,34,106.78H93.14a11.16,11.16,0,0,0,11.14-11.15V53.83l-2,2.29V90.34a9.39,9.39,0,0,1-9.38,9.38H34.21a9.4,9.4,0,0,1-9.39-9.38V48.62H91.6L79.91,62.19a5.36,5.36,0,0,0-1.07,1.94l-2.41,8.05A1.82,1.82,0,0,0,77,74.1a1.79,1.79,0,0,0,1.19.45,1.9,1.9,0,0,0,.8-.18l8-3.79a3.31,3.31,0,0,0,1.16-.9l12.76-14.75,17.78-20.56,2.64-3a2.73,2.73,0,0,0,.66-2A2.68,2.68,0,0,0,121,27.41Zm-27.61,74A11.13,11.13,0,0,0,102.51,96a9.39,9.39,0,0,1-9.12,9Zm-59.18,0H92.32V105H34a9.39,9.39,0,0,1-9.37-9A11.14,11.14,0,0,0,34.21,101.48Zm-.16-69.6s-2.51,0-3.68,1.2a3.7,3.7,0,0,0-1.2,2.32H28.09a4.75,4.75,0,0,1,1.52-3.09c1.49-1.49,4.32-1.51,4.44-1.51Zm10.22-2h0v3.61a2.63,2.63,0,0,1-2.63,2.63h-.35a2.63,2.63,0,0,1-2.63-2.63v-6.2h0v-2h0V23a2.63,2.63,0,0,1,2.63-2.63h.35A2.63,2.63,0,0,1,44.25,23v1.14h0Zm45.59,3.15a2.63,2.63,0,0,1-2.63,2.63h-.35a2.63,2.63,0,0,1-2.63-2.63v-.41h5.61Zm0-7.73v6.24H84.25V29h0V24h0V22.58A2.63,2.63,0,0,1,86.88,20h.35a2.63,2.63,0,0,1,2.63,2.63ZM111,28.79l.66.58-1.2,1.42-.69-.57Zm-32.73,44a.09.09,0,0,1-.11,0,.11.11,0,0,1,0-.12l2.34-7.77,5.25,4.38Zm6.54-6.54-3.55-3L93.89,48.62l1.52-1.76,13.2-15.33,3.44,2.86ZM120,30.18l-2.08,2.4-5.84-5.11,1.67-2.08a1.29,1.29,0,0,1,1.83-.19l4.3,3.55a1,1,0,0,1,.36.69A1,1,0,0,1,120,30.18Z"/></g></svg>