<svg id="Layer_1" data-name="Layer 1" xmlns="http://www.w3.org/2000/svg" viewBox="0 0 500 250"><title>illustration_creative</title><path d="M227.12,233.52q-47.76,0-95.5,0c-.9,0-1.33.06-1.31,1.16,0,1.27.86.81,1.4.81H322.47a5.77,5.77,0,0,1,.72,0c.53.07.63-.17.67-.68.09-1-.12-1.33-1.25-1.32Q274.86,233.55,227.12,233.52ZM203.84,228q47.81,0,95.61,0c.95,0,1.3-.15,1.27-1.2s-.8-.77-1.32-.77H108.53a2.17,2.17,0,0,1-.36,0c-.71-.11-.91.15-1,.9-.09,1.1.47,1.08,1.26,1.08Zm65.46-6.72h94.18c.73,0,1.26.07,1.21-1s-.4-1-1.13-1q-94.24,0-188.49,0c-.86,0-1.13.16-1.15,1.09,0,1.2.72.89,1.32.89ZM342.22,226q-15,0-30.1,0c-.81,0-1,.17-1.09,1-.06,1.13.58,1,1.26,1h60.55a.39.39,0,0,0,.4-.33c.33-1.07-.06-1.63-1.16-1.63Zm2.14,7.48c-3.11,0-6.22,0-9.34,0-.8,0-.9.27-.88.95s0,1.07.91,1.06q9.22-.07,18.44,0c1,0,.84-.47.89-1.08s-.16-.94-.91-.93C350.43,233.54,347.4,233.52,344.36,233.52Z"/><path d="M386.24,220.8c-2.26-.26-4.53-.06-6.8-.11a28.79,28.79,0,0,0-3.35,0c-1,.08-1.19-.3-1.16-1.2,0-.7.24-.85.89-.85,3.48,0,6.95,0,10.42,0Z"/><path d="M306.32,10.26v-.18h5.28v.18Z"/><path d="M306.32,11.26h5.28a87.79,87.79,0,0,1,19.87,2.89c12.93,3.7,21.8,11.89,26.69,24.4A53.65,53.65,0,0,1,361.75,58a7.81,7.81,0,0,0,.49,2.79c2.16,5.85,2.71,12,2.93,18.12.2,5.44.05,10.87,0,16.3-.06,6.76.24,13.52-.11,20.27-.33,6.53-1.09,13-4,18.95a21.45,21.45,0,0,1-3.09,4.83,27.37,27.37,0,0,0-2.73,4.05.94.94,0,0,0,.12,1.32,8.5,8.5,0,0,1,2.15,5.21,5,5,0,0,1-1.59,3.86,41.29,41.29,0,0,1-11,7.37,89.2,89.2,0,0,1-30.26,8.48c-19,2-37.44-.54-55.56-6.14-1.49-.46-2.62,0-3.88.42-.42.12-.43.52-.46.89-.41,3.89-.87,7.78-1.21,11.68-.51,5.72-4,9.49-9.67,10.36l-51.63,7.92q-18.23,2.79-36.47,5.54a1.64,1.64,0,0,0-1.29,1.07c-2,3.8-4,7.59-6.24,11.7-.19-1.77-.37-3.23-.5-4.69-.68-7.12-1.32-14.24-2-21.36-.09-.89.16-1.24,1-1.31.27,0,.55-.11.82-.14.77-.06,1.05-.4,1-1.22-.06-2.84,0-5.68,0-8.52v-1.16l.23-.06,5.7,8.36V172.68l.27-.13c2,2.93,4,5.86,6.14,9v-9.78l.28-.08,6.18,9.07v-9.63l.22-.07c1.87,2.75,3.73,5.5,5.78,8.5V169.25l.22-.05,6,8.88v-9.86l.24-.12c.31.43.63.84.92,1.28q2.46,3.62,4.9,7.24c.24.36.43.71,1,.58,3.47-.75,6.94-1.46,10.47-2.2-2.3-5-1.13-9.67,1.23-14.17.45-.86.28-1.08-.51-1.4q-9.36-3.81-18.68-7.69a1.21,1.21,0,0,0-1.55.29c-2.53,2.42-5.11,4.79-7.87,7.37V149l-7.65,7.11v-10l-7.62,7.08v-11l-8.23,7.66V139.47l-7.62,7.09v-10L131,143.64v-10l-7.09,6.59V129.83l-7.57,7v-10l-7.51,7c-.38-.25-.2-.6-.2-.88,0-3,0-6.08,0-9.12,0-.83-.17-1.38-1-1.56s-1-.65-.75-1.53c2.52-9,5-18,7.45-27a17.33,17.33,0,0,1,33.92,2.93c0,.07.06.12.15.28.37-.44.7-.87,1.07-1.26,5-5.37,11.14-7.29,18.17-5.13,6.88,2.11,10.84,7,12,14.12a13.25,13.25,0,0,1,0,4.53c-.11.58,0,.84.64,1q6.54,1.75,13,3.58a2.67,2.67,0,0,0,1.51-.07c10.48-2.93,21-5.88,31.45-8.78.84-.23.88-.47.51-1.2a13.52,13.52,0,0,1,.46-14,3.43,3.43,0,0,0,.45-1.7,130.48,130.48,0,0,1,3-21.09A59.73,59.73,0,0,1,239,47.21c5.74-8.5,13.74-14,23.32-17.34A3.8,3.8,0,0,0,263.7,29a60.87,60.87,0,0,1,36.53-17.27C302.26,11.54,304.29,11.43,306.32,11.26ZM293.1,150.5a7.16,7.16,0,0,0-.8.19l-14,5.05-4.45,1.58,4.59,1.08a1.61,1.61,0,0,0,1.26-.17q6.75-3.81,13.54-7.59c.11-.11.45,0,.31-.29S293.2,150.3,293.1,150.5Zm-63-63.86a3.09,3.09,0,0,1,.37-.43,15.48,15.48,0,0,1,11.2-3.33c.71.06.88-.1.81-.8-.13-1.35-.2-2.71-.23-4.07-.18-8,.55-15.84,3.68-23.25a81.76,81.76,0,0,1,13-20.6c.23-.28.6-.49.64-1-.23.09-.37.13-.5.19C247.61,38.25,240,46.71,235.51,58.2c-3.28,8.5-4.69,17.39-5.49,26.4-.06.67-.44,1.38,0,2.05l-.11-.26-.08.07Zm-80.53,119.2.24,0c1.14-2.14,2.31-4.27,3.41-6.43a1.73,1.73,0,0,1,1.44-1c1.66-.22,3.31-.5,5-.75L198,191.74q22.62-3.45,45.23-6.93c4.89-.74,7.7-3.4,8.29-8.17.53-4.24.93-8.5,1.32-12.76.09-1,.39-1.66,1.49-1.91a34.85,34.85,0,0,0,3.4-1.15c22.36-7.77,44.67-15.69,66.66-24.47a22.68,22.68,0,0,0,9.09-6c4.31-5,5-10.88,4.18-17.11-1.1-7.88-4.29-15-8.25-21.79a1.19,1.19,0,0,0-1.33-.69q-4.35.43-8.72.77c-.65,0-.76.23-.65.88a41.1,41.1,0,0,1-.31,14.29,9.9,9.9,0,0,1-7,8.06,29.6,29.6,0,0,1-8.69,1.56,34.92,34.92,0,0,1-10.85-.62c-12.36-3.31-24.71-6.67-37-10.2-7.16-2-14.26-2.52-21.48-.49q-19.29,5.43-38.59,10.83a2.48,2.48,0,0,1-1.4.08l-15.46-4.25c-.54-.14-.7-.34-.54-.91a12.71,12.71,0,0,0,.47-3.67A15.34,15.34,0,0,0,148,102.25c-.21.63-.27,1.14-1.24.83s-.95-.56-.78-1.4a15.34,15.34,0,0,0-11-18.09,15.11,15.11,0,0,0-18.51,10.17c-2.58,8.47-4.76,17-7.17,25.57-.3,1-.15,1.46.91,1.89q57,23.43,113.94,46.95a5.56,5.56,0,0,0,4.13.27c.76-.26,1-.08,1.2.69s.09,1.12-.79,1.31c-6.84,1.4-13.66,2.86-20.49,4.29q-29.76,6.26-59.51,12.49c-.71.15-.9.38-.82,1.1.32,3.06.57,6.13.86,9.19C149,200.29,149.26,203.06,149.54,205.84Zm166.55-116c4.44-.41,8.84-.8,13.25-1.24.7-.07.89.41,1.15.83a69.4,69.4,0,0,1,7.63,16.69c1.51,5.1,2.38,10.3,1.46,15.61-1.29,7.51-5.74,12.59-12.56,15.64-3.48,1.57-7.08,2.89-10.64,4.29s-7.2,2.77-10.83,4.16c.11.11.15.19.21.21a7.51,7.51,0,0,0,.82.19,61.62,61.62,0,0,0,14.67.83,71.69,71.69,0,0,0,18.18-2.75c9.78-3,15.78-9.37,17.58-19.58a93.91,93.91,0,0,0,1.09-15.52c0-4.19-.07-8.39,0-12.59.07-7.35.3-14.71-.9-22-.79-4.78-2.28-9.3-5.53-13.05-4-4.65-9.39-6.77-15.27-7.72a74.84,74.84,0,0,0-28.45,1c-11.48,2.53-21.65,7.66-29.68,16.44-9,9.84-12.72,21.46-11.11,34.75a1.1,1.1,0,0,0,1,1.08c4.31,1.16,8.59,2.46,12.92,3.53,5.82,1.43,11.44,3.83,17.6,3.75,4.29-.06,8.55-.13,12.6-1.76a7.57,7.57,0,0,0,5-5.75A36.63,36.63,0,0,0,316.09,89.83Zm38.2-40.59c.79-2.91,1.55-5.75,2.34-8.59a1.51,1.51,0,0,0-.2-1c-4.5-11.68-12.56-19.7-24.64-23.26A79,79,0,0,0,301,13.68a59,59,0,0,0-27.91,10.2c-8.83,6.13-15.49,14.21-21,23.34a49.8,49.8,0,0,0-6.65,15.92c-.19.93,0,1.37.9,1.78,4.06,1.75,8.08,3.59,12.1,5.44.72.33,1.06.25,1.51-.43a48.93,48.93,0,0,1,6-7.31c8.68-8.75,19.17-14.35,30.92-17.7a100.57,100.57,0,0,1,33-3.36C338.58,42,347,43.66,354.29,49.24ZM322.52,43.4a112.91,112.91,0,0,0-18.35,1.77c-.92.17-1.32.45-1.19,1.51.26,2.06.37,4.13.48,6.21,0,.7.12,1,1,.73a81.44,81.44,0,0,1,29.45-2.19c6,.63,11.75,2.26,16.58,6.17.49.4.71.26,1-.16,1-1.31,2-2.63,3-3.87.53-.63.5-1-.1-1.53a27.19,27.19,0,0,0-8.25-5.21C338.56,43.77,330.57,43.35,322.52,43.4Zm-49.44,31c-.07-.36-.42-.42-.68-.55-2.78-1.47-5.59-2.89-8.34-4.42-.83-.46-1.19-.22-1.67.44a47,47,0,0,0-8.51,20.31A2.09,2.09,0,0,0,254,91.4a13.44,13.44,0,0,1,.2,11c-.29.7-.08.85.52,1,3,.8,6,1.63,9,2.44,1.38.38,1.39.38,1.25-1.09A43.9,43.9,0,0,1,272.68,75Zm29.66,93.88c2.29,0,5.48-.15,8.67-.41a92.37,92.37,0,0,0,29.17-7c.94-.4,2.36-.58,2.62-1.41s-.73-1.75-1-2.69-.66-.8-1.36-.45c-6.64,3.35-13.77,4.94-21.1,5.77a139.46,139.46,0,0,1-22,.53,110,110,0,0,1-25.77-3.72c-2.34-.68-3.58,0-4.22,2.23a10.25,10.25,0,0,1-.43,1.49c-.4.87,0,1.14.79,1.33A149.31,149.31,0,0,0,302.74,168.24ZM363.2,97.59c-.05-8.54.45-17.1-.49-25.62a41.81,41.81,0,0,0-2.8-11.71c-.22-.54-.36-.79-1-.46-1.24.63-2.53,1.18-3.81,1.72-.55.23-.61.45-.27.94A20.51,20.51,0,0,1,356.77,66c2.48,5.63,3.16,11.62,3.23,17.66.14,11.38.32,22.78-.18,34.16a37.79,37.79,0,0,1-3.55,15.52c-.09.17-.25.45-.19.52a5.13,5.13,0,0,0,2,1.19c.48.22.55-.46.71-.77,2.82-5.25,3.72-11,4.15-16.83C363.43,110.86,363.18,104.22,363.2,97.59Zm-123-8.87a9.55,9.55,0,0,0-2.71.39,8.26,8.26,0,0,0-4.44,13.1,1.05,1.05,0,0,0,1.19.52,36.22,36.22,0,0,1,12.7-.92.93.93,0,0,0,1.07-.5,7.8,7.8,0,0,0,1.07-5.39A8.8,8.8,0,0,0,240.19,88.72Zm110.94,56.67a47.23,47.23,0,0,1-13.36,5.14,103.22,103.22,0,0,1-22.09,2.33c-.85,0-1.17.19-1.25,1.09-.16,1.91-.43,3.81-.76,5.7-.13.76,0,1,.78.91A92.71,92.71,0,0,0,329,158.42c7.05-1.74,13.61-4.49,19.05-9.48A15.88,15.88,0,0,0,351.13,145.39ZM283.57,63.7c-2.81-2-5.55-3.89-8.27-5.84-.39-.29-.62-.16-.93.07a58.63,58.63,0,0,0-9.47,8.76c-.41.47-.46.69.17,1q4.35,2.24,8.66,4.55c.51.27.79.27,1.19-.23A49.26,49.26,0,0,1,283.57,63.7Zm18-10.4c-.18-2.3-.38-4.36-.47-6.43,0-.79-.16-1-1-.78a88,88,0,0,0-12.76,4.35c-.69.3-.74.6-.5,1.26.84,2.36,1.66,4.73,2.4,7.12.25.81.49.87,1.19.47a51.38,51.38,0,0,1,9.92-4.39C301.35,54.57,301.84,54.16,301.54,53.3ZM208.4,168.18h0a2.4,2.4,0,0,0,0,.6c.21.87-.28.95-1,1s-1-.14-1-.94a9.69,9.69,0,0,1,.81-4.67c.29-.57.18-.82-.43-1-.9-.31-1.75-.79-2.66-1.07-1.18-.38-2.43-1.68-3.45-1.09s-1.32,2.2-1.78,3.43c-1,2.83-1.51,5.71-.4,8.64.61,1.61.85,1.7,2.46,1.16.45-.15.55-.31.32-.76a7.13,7.13,0,0,1-.11-5.91c.23-.61.44-.78,1.08-.68,1,.16,1.23.63.82,1.49a5.1,5.1,0,0,0,.16,4.61c.22.46.44.69,1,.57q3.86-.84,7.72-1.64c.37-.08.64-.15.43-.6-.74-1.69-.24-3.28.34-4.88.09-.24.49-.59,0-.8-1.09-.45-2.33-1.38-3.25-1.13s-1,1.85-1.06,3C208.39,167.7,208.4,167.94,208.4,168.18Zm87.36-7.84a2.2,2.2,0,0,0,.36.14c4.91.29,9.82.42,14.73.24.56,0,.72-.26.78-.8.26-2.1.55-4.2.89-6.29.1-.65-.15-.73-.68-.74a67.66,67.66,0,0,1-10.73-1,.72.72,0,0,0-.93.44C298.73,155,297.26,157.63,295.76,160.34ZM297,149c1.47.32,2.62.58,3.77.8a78.7,78.7,0,0,0,18.14,1c7.4-.31,14.73-1,21.86-3.15A33.7,33.7,0,0,0,353.57,141c.46-.39.78-.75.11-1.17-.5-.31-.7-1.53-1.7-.48a24.79,24.79,0,0,1-8.65,5.68,55.86,55.86,0,0,1-17.12,3.74c-8,.65-16,.73-23.79-1.38a1.19,1.19,0,0,0-.81-.09C300.17,147.8,298.72,148.33,297,149Zm-65.56-45.56a9.89,9.89,0,0,1-2-8.06,11,11,0,0,1,15.06-7.81,10.26,10.26,0,0,1,5.84,13.69c-.13.29-.81.8-.1,1s1.52,1,2-.24a11.16,11.16,0,0,0,.88-6.78C251.36,86.1,240.6,81.8,232.72,87a11.88,11.88,0,0,0-4.39,15.33C229.27,104.23,229.3,104.25,231.41,103.42Zm13.45-37c-.32,2-.46,4-.59,5.92,0,.46.21.63.54.79,3.3,1.58,6.6,3.16,9.89,4.77.5.25.7.1.89-.34A38.42,38.42,0,0,1,257.93,73c.24-.4.21-.61-.25-.81Zm37.39,92.64a100.06,100.06,0,0,0,10.54,1.23c.34,0,.66.09.9-.36,1.55-2.86,3.13-5.7,4.82-8.75-.86.2-1.41-.4-2.16,0C291.75,153.83,287.11,156.38,282.25,159.08ZM276.64,56.34l6.86,4.85c1.85,1.31,1.83,1.29,3.69,0a.78.78,0,0,0,.38-1.07q-1.33-3.9-2.64-7.8c-.15-.46-.31-.63-.82-.37A72.93,72.93,0,0,0,276.64,56.34Zm77,89.36a33.52,33.52,0,0,1-5.23,5.6c-.32.27-.31.46-.1.8.69,1.11,1.35,2.25,2.05,3.42a22.12,22.12,0,0,0,3.7-2.86c1.63-1.51,1.88-2.77,1-4.82A7.24,7.24,0,0,0,353.63,145.7ZM244.16,75c0,1,0,1.84,0,2.66,0,.53.25.76.69,1q3.61,1.72,7.18,3.52a.78.78,0,0,0,1.18-.25c1.44-1.84,1.46-1.83-.66-2.89l-.85-.42ZM222.4,169.68a4.22,4.22,0,0,0-.38-.24l-5.05-2.1c-2.34-1-2.45-.91-3,1.62a3.75,3.75,0,0,0,.25,1.63c.13.57.41.73,1,.6C217.6,170.66,219.93,170.2,222.4,169.68ZM357.78,44.06c-.58,2.11-1.13,4.15-1.69,6.18-.07.28-.15.52.1.77a29.45,29.45,0,0,1,3.35,4.12A39.59,39.59,0,0,0,357.78,44.06ZM133,132.74V139l4.67-4.37ZM244.4,80.69c0,.53,0,.93,0,1.32a1.56,1.56,0,0,0,1.37,1.83,9.42,9.42,0,0,1,3.36,1.76c.68.55,1.1.6,1.5-.23a3.55,3.55,0,0,1,.49-.68c.28-.33.33-.57-.15-.8C248.8,82.85,246.64,81.79,244.4,80.69ZM346.32,153a1.32,1.32,0,0,0-.2.12,9.45,9.45,0,0,0-2.44,1.81c-.24.33.51,1.38.82,2.1.13.29.29.56.4.86.19.57.45.75,1,.38a20.24,20.24,0,0,1,2.17-1.24c.56-.27.51-.55.22-1-.53-.83-1-1.7-1.53-2.55C346.66,153.29,346.62,153,346.32,153Zm12.26-95.44c-.06-.12-.12-.27-.2-.4-.5-.76-1-1.52-1.51-2.29-.31-.5-.56-.4-.87,0-1,1.36-2.1,2.71-3.15,4.06-.19.24-.45.45-.12.81a.74.74,0,0,0,1,.24c1.43-.69,2.89-1.33,4.33-2C358.25,57.9,358.56,57.9,358.58,57.55ZM161,144.32a43.13,43.13,0,0,0-4.61-1.82v6.12Zm-15.91-6.57c-1.39-.58-2.63-1.09-3.87-1.62-.41-.17-.66-.2-.65.39,0,1.74,0,3.48,0,5.46Zm3.08,7.52,4.65-4.33c-1.44-.6-2.71-1.14-4-1.66-.37-.15-.67-.21-.67.39C148.22,141.44,148.2,143.22,148.2,145.27Zm28.05,5.3-4-1.65c-.25-.1-.58-.27-.58.23,0,1.83,0,3.66,0,5.7ZM115,125.33l-3.79-1.57c-.27-.11-.57-.26-.57.23,0,1.72,0,3.43,0,5.41Zm49,26.29c1.61-1.51,3-2.83,4.49-4.24-1.39-.58-2.6-1.07-3.8-1.59-.5-.21-.71-.15-.7.46C164,148,164,149.65,164,151.62Zm-38.14-16,4.31-4-4.31-1.77Zm-3.42-7.23c-1.3-.53-2.44-1-3.55-1.47-.5-.21-.71-.19-.7.43,0,1.57,0,3.15,0,5Zm138.39,33.47,3.5,1c.33.09.74.29.86-.24a7.76,7.76,0,0,0,.54-2.52ZM156.75,179.11l-.23.06v2.36c0,2.17,0,2.14,2.11,1.6.69-.18.59-.43.28-.87C158.17,181.22,157.46,180.16,156.75,179.11Zm8.72,2.52-2.33-3.39-.22.1v1.41C162.92,182.24,162.92,182.24,165.47,181.63Zm191.71-44.72c-.6-.32-1.18-.58-1.72-.92s-.7-.16-.86.23-.81.6-.44,1.21c.89,1.5,1.51,1.55,2.53.19C356.85,137.4,357,137.17,357.18,136.91ZM175.56,175.74l-.24.06v1.63c0,2.34,0,2.34,2.24,1.64,0,0,.06-.11.11-.21Zm6.31-1.1-.23.06v1.39c0,2.15,0,2.15,2.07,1.73,0,0,.08-.11.16-.22ZM153,184.29l-2.39-3.52v4Zm16.59-6.66-.24,0V179c0,1.85,0,1.85,1.79,1.48,0,0,.09-.09.21-.22Zm83-91.19c-.36.51-1.53.9-.4,1.82C252.32,87.56,252.45,87,252.57,86.44Z"/><path d="M227.12,233.52q47.75,0,95.49,0c1.13,0,1.34.34,1.25,1.32,0,.51-.14.75-.67.68a5.77,5.77,0,0,0-.72,0H131.71c-.54,0-1.36.46-1.4-.81,0-1.1.41-1.16,1.31-1.16Q179.36,233.53,227.12,233.52Z"/><path d="M203.84,228H108.46c-.79,0-1.35,0-1.26-1.08.06-.75.26-1,1-.9a2.17,2.17,0,0,0,.36,0H299.4c.52,0,1.28-.39,1.32.77s-.32,1.2-1.27,1.2Q251.65,228,203.84,228Z"/><path d="M269.3,221.28H175.24c-.6,0-1.35.31-1.32-.89,0-.93.29-1.09,1.15-1.09q94.25,0,188.49,0c.73,0,1.09,0,1.13,1s-.48,1-1.21,1Z"/><path d="M342.22,226h29.86c1.1,0,1.49.56,1.16,1.63a.39.39,0,0,1-.4.33H312.29c-.68,0-1.32.17-1.26-1,.05-.85.28-1,1.09-1Q327.16,226.07,342.22,226Z"/><path d="M344.36,233.52c3,0,6.07,0,9.11,0,.75,0,1,.19.91.93s.07,1.09-.89,1.08q-9.23-.07-18.44,0c-.92,0-.89-.4-.91-1.06s.08-1,.88-.95C338.14,233.55,341.25,233.52,344.36,233.52Z"/><path d="M293.1,150.5c.1-.2.33-.32.42-.15s-.2.18-.31.29A1.71,1.71,0,0,0,293.1,150.5Z"/><path d="M230.07,86.64l-.2-.18.08-.07c0,.08.07.17.11.26Z"/><path d="M216.15,148.37c-5.36,0-9.37-2.66-12.82-6.44a.9.9,0,0,1-.15-.19c-1.12-2.45-3-2.47-5.19-1.68-.74.27-1.12.17-1.31-.71s.07-1.1.84-1.26q21.91-4.47,43.82-9c.81-.17,1,0,1.17.75s.07,1.1-.81,1.25c-2.47.42-4.92,1-7.38,1.48-.5.1-.93.15-.94.92-.13,8.37-5.47,13.42-13.76,14.6A16,16,0,0,1,216.15,148.37Zm15.23-15.17c-2.64.54-5.21,1.1-7.79,1.58-.77.14-1.18.41-1.32,1.22a5.85,5.85,0,0,1-1,2.16c-2.13,3.2-6.09,3.07-8.11-.25-.23-.36-.26-.95-1-.8-2.83.62-5.67,1.2-8.58,1.81.12.23.17.37.25.49,4.54,6.17,10.53,8.25,17.89,6.23C228,143.94,231.55,139.35,231.38,133.2Z"/><path d="M317.12,137.43c-.05.34-.53.28-.87.4q-8.69,3-17.38,6l-40,13.88c-.54.19-1,.6-1.38-.38s-.23-1.21.69-1.53q23.67-8.16,47.31-16.38c3.32-1.14,6.62-2.3,9.93-3.45C316.5,135.64,317.15,136.12,317.12,137.43Z"/><path d="M131.74,87.12a9.16,9.16,0,1,1-9.22,9.19A9.2,9.2,0,0,1,131.74,87.12Zm7.15,9a7.18,7.18,0,1,0-7,7.37A7.26,7.26,0,0,0,138.89,96.11Z"/><path d="M163,113.6a9.14,9.14,0,1,1,9.18-9.22A9.13,9.13,0,0,1,163,113.6Zm0-16.32a7.18,7.18,0,1,0,0,14.36,7.18,7.18,0,1,0,0-14.36Z"/><path d="M195.68,133.73c.23-4.79,2.37-8.33,6.89-10.14a79.16,79.16,0,0,1,16.4-4.27c.69-.11,1,0,1,.8,0,.6.26,1-.71,1.2a82.52,82.52,0,0,0-15.17,3.78c-4.32,1.54-6.59,4.76-6.44,9.3,0,1.26-.88.76-1.36.93-.85.28-.56-.5-.63-.89A3.36,3.36,0,0,1,195.68,133.73Z"/><path d="M218.29,152.63c-5.3-.2-9.93-2.5-14.09-5.95-.47-.4-.43-.69,0-1s.61-1.16,1.47-.41A22.75,22.75,0,0,0,214,149.9a11.83,11.83,0,0,0,4.94.68c1.31-.16,1,.67,1.11,1.26.22.88-.48.71-.94.79A6.84,6.84,0,0,1,218.29,152.63Z"/><path d="M249.67,177.09c.06,2.58-1.27,4.26-3.46,5.41a12.93,12.93,0,0,1-2.3,1c-1.36.41-1.66.16-1.6-1.26,0-.49.35-.44.63-.53a11,11,0,0,0,3.23-1.53,3.2,3.2,0,0,0,1.48-3.42c-.31-1.41.65-1.38,1.36-1.46s.49.77.65,1.22A1.93,1.93,0,0,1,249.67,177.09Z"/><path d="M234,185.22c-.67.16-.63-.38-.6-.72s-.62-1.08.3-1.25c1.92-.36,3.85-.7,5.78-1,.72-.11.53.55.59.92s.39,1-.41,1.09C237.76,184.57,235.88,184.9,234,185.22Z"/><path d="M235.63,145.21c-.11.18-.36.68-.68,1.13a9.63,9.63,0,0,1-2,2c-1.14.86-1.19.82-1.83-.46-.2-.42-.13-.64.22-.87a8.08,8.08,0,0,0,2.55-2.62c.39-.69,1,0,1.45,0C235.5,144.37,235.89,144.45,235.63,145.21Z"/><path d="M224.73,120.45c-1,.26-.8-.5-.9-.92s-.33-1,.49-1,1.73-.27,2.59-.39c1.42-.18,1.45-.12,1.52,1.24,0,.44-.14.58-.5.64Z"/><path d="M351.8,82.61c-.95.28-.95-.39-1-1a42.51,42.51,0,0,0-2.39-11.08c-2.14-5.77-6.53-8.86-12.29-10.24-1.21-.28-.9-1-.84-1.68.08-.89.76-.41,1.17-.31,7.34,1.73,12.35,6,14.5,13.38a61.55,61.55,0,0,1,1.91,10C353,82.62,352.52,82.71,351.8,82.61Z"/><path d="M353.56,89.69c0,.92,0,1.84,0,2.75s-.44.72-.92.67-1.11.3-1.1-.62c0-1.91,0-3.82,0-5.73,0-.89.58-.66,1-.68s1-.09,1,.75S353.56,88.74,353.56,89.69Z"/></svg>