<svg id="Layer_1" data-name="Layer 1" xmlns="http://www.w3.org/2000/svg" viewBox="0 0 128 128"><title>wd_creative_minimal</title><path d="M120,20.41l-4.29-3.55a3,3,0,0,0-2.24-.68,3.06,3.06,0,0,0-2.06,1.12l-2,2.42L103,27.18a11.15,11.15,0,0,0-10.9-8.85H90.62V15.58a4.4,4.4,0,0,0-4.39-4.39h-.35a4.4,4.4,0,0,0-4.39,4.39v2.75H45V16a4.4,4.4,0,0,0-4.39-4.39h-.35A4.4,4.4,0,0,0,35.88,16v2.29H33A11.16,11.16,0,0,0,21.83,29.47V88.63A11.16,11.16,0,0,0,33,99.78H92.14a11.16,11.16,0,0,0,11.14-11.15V46.83l-2,2.29V83.34a9.39,9.39,0,0,1-9.38,9.38H33.21a9.4,9.4,0,0,1-9.39-9.38V41.62H90.6L78.91,55.19a5.36,5.36,0,0,0-1.07,1.94l-2.41,8.05A1.82,1.82,0,0,0,76,67.1a1.79,1.79,0,0,0,1.19.45,1.9,1.9,0,0,0,.8-.18l8-3.79a3.31,3.31,0,0,0,1.16-.9l30.54-35.31,2.64-3.05a2.73,2.73,0,0,0,.66-2A2.68,2.68,0,0,0,120,20.41ZM101.51,89a9.39,9.39,0,0,1-9.12,9V94.45A11.13,11.13,0,0,0,101.51,89Zm-68.3,5.51H91.32V98H33a9.39,9.39,0,0,1-9.37-9A11.14,11.14,0,0,0,33.21,94.48ZM110,21.79l.66.58-1.2,1.42-.69-.57ZM83.25,25.65h5.61v.41a2.63,2.63,0,0,1-2.63,2.63h-.35a2.63,2.63,0,0,1-2.63-2.63Zm0-8.69h0V15.58A2.63,2.63,0,0,1,85.88,13h.35a2.63,2.63,0,0,1,2.63,2.63v2.75h0v2h0v4.25H83.25V22h0Zm-45.6,3.36h0v-2h0V16a2.63,2.63,0,0,1,2.63-2.63h.35A2.63,2.63,0,0,1,43.25,16v1.14h0v5.73h0v3.61a2.63,2.63,0,0,1-2.63,2.63h-.35a2.63,2.63,0,0,1-2.63-2.63ZM23.82,39.86V29.7a9.4,9.4,0,0,1,9.39-9.38h2.67v6.2a4.4,4.4,0,0,0,4.39,4.39h.35A4.4,4.4,0,0,0,45,26.52v-6.2H81.49v5.74a4.4,4.4,0,0,0,4.39,4.39h.35a4.4,4.4,0,0,0,4.39-4.39V20.32h1.29a9.39,9.39,0,0,1,9.36,8.91L92.11,39.86Zm69.07,1.76h0l1.52-1.76h0l13.2-15.33,3.44,2.86L83.78,59.26l-3.55-2.95ZM77.24,65.8a.09.09,0,0,1-.11,0,.11.11,0,0,1,0-.12l2.34-7.77,5.25,4.38Zm8.88-4.58-1-.85L112.39,28.5l1.18,1Zm28.58-33-3.93-3.27,1.17-1.39,3.86,3.39Zm4.32-5-2.08,2.4-5.84-5.11,1.67-2.08a1.29,1.29,0,0,1,1.83-.19l4.3,3.55a1,1,0,0,1,.36.69A1,1,0,0,1,119,23.18Z"/><path d="M39.75,48.57a3.1,3.1,0,0,0-3.1-3.1H31.74a3.1,3.1,0,0,0-3.1,3.1v4.91a3.1,3.1,0,0,0,3.1,3.1h4.91a3.1,3.1,0,0,0,3.1-3.1Zm-1.08,4.91a2,2,0,0,1-2,2H31.74a2,2,0,0,1-2-2V48.57a2,2,0,0,1,2-2h4.91a2,2,0,0,1,2,2Z"/><path d="M52.92,48.57a3.1,3.1,0,0,0-3.1-3.1H44.91a3.1,3.1,0,0,0-3.1,3.1v4.91a3.1,3.1,0,0,0,3.1,3.1h4.91a3.1,3.1,0,0,0,3.1-3.1Zm-1.08,4.91a2,2,0,0,1-2,2H44.91a2,2,0,0,1-2-2V48.57a2,2,0,0,1,2-2h4.91a2,2,0,0,1,2,2Z"/><path d="M66.09,48.57a3.1,3.1,0,0,0-3.1-3.1H58.08A3.11,3.11,0,0,0,55,48.57v4.91a3.11,3.11,0,0,0,3.11,3.1H63a3.1,3.1,0,0,0,3.1-3.1ZM65,53.48a2,2,0,0,1-2,2H58.08a2,2,0,0,1-2-2V48.57a2,2,0,0,1,2-2H63a2,2,0,0,1,2,2Z"/><path d="M39.75,61.72a3.1,3.1,0,0,0-3.1-3.1H31.74a3.1,3.1,0,0,0-3.1,3.1v4.91a3.1,3.1,0,0,0,3.1,3.1h4.91a3.1,3.1,0,0,0,3.1-3.1Zm-1.08,4.91a2,2,0,0,1-2,2H31.74a2,2,0,0,1-2-2V61.72a2,2,0,0,1,2-2h4.91a2,2,0,0,1,2,2Z"/><path d="M52.92,61.72a3.1,3.1,0,0,0-3.1-3.1H44.91a3.1,3.1,0,0,0-3.1,3.1v4.91a3.1,3.1,0,0,0,3.1,3.1h4.91a3.1,3.1,0,0,0,3.1-3.1Zm-1.08,4.91a2,2,0,0,1-2,2H44.91a2,2,0,0,1-2-2V61.72a2,2,0,0,1,2-2h4.91a2,2,0,0,1,2,2Z"/><path d="M66.09,61.72a3.1,3.1,0,0,0-3.1-3.1H58.08A3.11,3.11,0,0,0,55,61.72v4.91a3.11,3.11,0,0,0,3.11,3.1H63a3.1,3.1,0,0,0,3.1-3.1ZM65,66.63a2,2,0,0,1-2,2H58.08a2,2,0,0,1-2-2V61.72a2,2,0,0,1,2-2H63a2,2,0,0,1,2,2Z"/><path d="M36.65,71.77H31.74a3.11,3.11,0,0,0-3.1,3.1v4.91a3.1,3.1,0,0,0,3.1,3.1h4.91a3.1,3.1,0,0,0,3.1-3.1V74.87A3.11,3.11,0,0,0,36.65,71.77Zm2,8a2,2,0,0,1-2,2H31.74a2,2,0,0,1-2-2V74.87a2,2,0,0,1,2-2h4.91a2,2,0,0,1,2,2Z"/><path d="M49.82,71.77H44.91a3.11,3.11,0,0,0-3.1,3.1v4.91a3.1,3.1,0,0,0,3.1,3.1h4.91a3.1,3.1,0,0,0,3.1-3.1V74.87A3.11,3.11,0,0,0,49.82,71.77Zm2,8a2,2,0,0,1-2,2H44.91a2,2,0,0,1-2-2V74.87a2,2,0,0,1,2-2h4.91a2,2,0,0,1,2,2Z"/><path d="M63,71.77H58.08A3.12,3.12,0,0,0,55,74.87v4.91a3.11,3.11,0,0,0,3.11,3.1H63a3.1,3.1,0,0,0,3.1-3.1V74.87A3.11,3.11,0,0,0,63,71.77Zm2,8a2,2,0,0,1-2,2H58.08a2,2,0,0,1-2-2V74.87a2,2,0,0,1,2-2H63a2,2,0,0,1,2,2Z"/><path d="M28.61,25.31a4.75,4.75,0,0,0-1.52,3.09h1.08a3.7,3.7,0,0,1,1.2-2.32c1.17-1.18,3.65-1.2,3.68-1.2V23.8C32.93,23.8,30.1,23.82,28.61,25.31Z"/><path d="M30,105.48c-.24-.1-.41,0-.54.26l-4.6,12.61a.48.48,0,0,0,.22.64,1,1,0,0,0,.24,0c.13,0,.23-.1.3-.29l4.6-12.61a.59.59,0,0,0,0-.37A.45.45,0,0,0,30,105.48Z"/><path d="M38,117.24a3.27,3.27,0,0,1-2.25.84A3.05,3.05,0,0,1,33.48,117a4.2,4.2,0,0,1,0-5.44,3,3,0,0,1,2.32-1.13,3.16,3.16,0,0,1,2.24.86.35.35,0,0,0,.56-.08.55.55,0,0,0,.1-.35.4.4,0,0,0-.15-.3,4,4,0,0,0-2.78-1,3.72,3.72,0,0,0-2.86,1.39,4.84,4.84,0,0,0-1.24,3.37,4.91,4.91,0,0,0,1.24,3.39,3.87,3.87,0,0,0,3,1.39,3.79,3.79,0,0,0,2.59-1,.43.43,0,0,0,.09-.66C38.43,117.1,38.24,117.07,38,117.24Z"/><path d="M46.12,109.49c-1.34,0-2.44.78-3.31,2.34l-.12.23V110a.52.52,0,0,0-.11-.33.37.37,0,0,0-.58,0,.48.48,0,0,0-.12.33v8.58a.48.48,0,0,0,.12.33.37.37,0,0,0,.58,0,.52.52,0,0,0,.11-.33v-4.18a.47.47,0,0,1,0-.16,9.08,9.08,0,0,1,1-2.22,3,3,0,0,1,2.4-1.55.37.37,0,0,0,.28-.14.51.51,0,0,0,0-.66A.37.37,0,0,0,46.12,109.49Z"/><path d="M52.67,109.47a3.53,3.53,0,0,0-2.8,1.41,5.44,5.44,0,0,0,0,6.74A3.58,3.58,0,0,0,52.71,119a3.4,3.4,0,0,0,1.91-.58,4.37,4.37,0,0,0,1.43-1.58.48.48,0,0,0-.14-.66q-.33-.24-.54.15a3.32,3.32,0,0,1-1.13,1.27,2.73,2.73,0,0,1-1.53.47A2.83,2.83,0,0,1,50.5,117a4.07,4.07,0,0,1-1-2.6h6.78a.38.38,0,0,0,.29-.12.41.41,0,0,0,.12-.31v-.08a5.13,5.13,0,0,0-1.27-3.16A3.54,3.54,0,0,0,52.67,109.47Zm-3.11,4a3.92,3.92,0,0,1,1.11-2.23,2.82,2.82,0,0,1,2-.86,2.79,2.79,0,0,1,2,.87,3.83,3.83,0,0,1,1.08,2.22Z"/><path d="M66.08,109.47a.38.38,0,0,0-.29.14.48.48,0,0,0-.12.33v1.4A4.18,4.18,0,0,0,64.32,110a3.27,3.27,0,0,0-1.75-.51,3.44,3.44,0,0,0-2.76,1.41,5.5,5.5,0,0,0,0,6.73,3.46,3.46,0,0,0,2.76,1.4,3.27,3.27,0,0,0,1.75-.51,4,4,0,0,0,1.35-1.38v1.42a.48.48,0,0,0,.12.33.37.37,0,0,0,.58,0,.52.52,0,0,0,.11-.33v-8.6a.52.52,0,0,0-.11-.33A.38.38,0,0,0,66.08,109.47ZM64.76,117a2.73,2.73,0,0,1-2.18,1.12A2.77,2.77,0,0,1,60.39,117a4.48,4.48,0,0,1,0-5.44,2.72,2.72,0,0,1,2.19-1.13,2.69,2.69,0,0,1,2.18,1.13,4.52,4.52,0,0,1,0,5.44Z"/><path d="M72.47,109.47H71.41v-3.54a.47.47,0,0,0-.14-.32.4.4,0,0,0-.29-.15.38.38,0,0,0-.29.15.5.5,0,0,0-.13.32v3.54h-1q-.35,0-.39.24a1.47,1.47,0,0,0,0,.27.57.57,0,0,0,.07.31c0,.08.16.12.34.12h1v7a1.69,1.69,0,0,0,.42,1.18,1.32,1.32,0,0,0,1,.47.38.38,0,0,0,.29-.15.45.45,0,0,0,.14-.32.53.53,0,0,0-.14-.33.4.4,0,0,0-.3-.15.59.59,0,0,1-.38-.2.66.66,0,0,1-.21-.5v-7h1.06a.38.38,0,0,0,.28-.15.49.49,0,0,0,0-.64A.38.38,0,0,0,72.47,109.47Z"/><path d="M77.17,109.47a.39.39,0,0,0-.3.14.48.48,0,0,0-.12.33v8.6a.48.48,0,0,0,.12.33.37.37,0,0,0,.29.14.38.38,0,0,0,.29-.14.44.44,0,0,0,.13-.33v-8.6a.48.48,0,0,0-.12-.33A.38.38,0,0,0,77.17,109.47Z"/><path d="M77.16,106.36a.37.37,0,0,0-.29.14.48.48,0,0,0-.12.33v.44a.52.52,0,0,0,.12.36.35.35,0,0,0,.29.15.36.36,0,0,0,.29-.15.48.48,0,0,0,.13-.36v-.44a.44.44,0,0,0-.13-.33A.38.38,0,0,0,77.16,106.36Z"/><path d="M87.63,109.59a.36.36,0,0,0-.32,0,.44.44,0,0,0-.21.25l-2.74,7.52-2.75-7.52a.42.42,0,0,0-.22-.25c-.23-.12-.4,0-.51.25a.53.53,0,0,0,0,.35l3.1,8.53a1,1,0,0,0,.14.21.57.57,0,0,0,.28.08.27.27,0,0,0,.23-.13.43.43,0,0,0,.11-.24l3.09-8.45A.43.43,0,0,0,87.63,109.59Z"/><path d="M94.67,109.47a3.53,3.53,0,0,0-2.8,1.41,5.44,5.44,0,0,0,0,6.74A3.58,3.58,0,0,0,94.71,119a3.4,3.4,0,0,0,1.91-.58,4.37,4.37,0,0,0,1.43-1.58.48.48,0,0,0-.14-.66q-.33-.24-.54.15a3.32,3.32,0,0,1-1.13,1.27,2.73,2.73,0,0,1-1.53.47A2.83,2.83,0,0,1,92.5,117a4.07,4.07,0,0,1-1-2.6h6.78a.38.38,0,0,0,.29-.12.41.41,0,0,0,.12-.31v-.08a5.13,5.13,0,0,0-1.27-3.16A3.54,3.54,0,0,0,94.67,109.47Zm-3.11,4a3.92,3.92,0,0,1,1.11-2.23,2.82,2.82,0,0,1,2-.86,2.79,2.79,0,0,1,2,.87,3.83,3.83,0,0,1,1.08,2.22Z"/></svg>