<svg id="Layer_1" data-name="Layer 1" xmlns="http://www.w3.org/2000/svg" viewBox="0 0 32 32"><title>wd_logo</title><polygon points="30.18 7.26 29.88 7.6 28.83 6.72 29.14 6.35 30.18 7.26"/><polygon points="29.58 7.95 22.22 16.45 21.95 16.22 29.26 7.68 29.58 7.95"/><path d="M23.9,25.35a3,3,0,0,0,2.45-1.46,2.52,2.52,0,0,1-2.45,2.42Z"/><rect x="14.17" y="19.57" width="2.4" height="2.4" rx="0.54" ry="0.54"/><rect x="14.17" y="16.04" width="2.4" height="2.4" rx="0.54" ry="0.54"/><rect x="14.17" y="12.52" width="2.4" height="2.4" rx="0.54" ry="0.54"/><path d="M16,12.52H14.71a.54.54,0,0,0-.54.54v1.32a.54.54,0,0,0,.54.54H16a.55.55,0,0,0,.54-.54V13.06A.54.54,0,0,0,16,12.52Zm-2.15.54a.83.83,0,0,1,.83-.83H16a.83.83,0,0,1,.83.83v1.32a.83.83,0,0,1-.83.83H14.71a.83.83,0,0,1-.83-.83Z"/><path d="M16,16H14.71a.54.54,0,0,0-.54.54V17.9a.54.54,0,0,0,.54.54H16a.54.54,0,0,0,.54-.54V16.58A.55.55,0,0,0,16,16Zm-1.32,2.69a.83.83,0,0,1-.83-.83V16.58a.83.83,0,0,1,.83-.83H16a.83.83,0,0,1,.83.83V17.9a.83.83,0,0,1-.83.83Z"/><path d="M16,19.57H14.71a.54.54,0,0,0-.54.54v1.31a.55.55,0,0,0,.54.55H16a.55.55,0,0,0,.54-.55V20.11A.54.54,0,0,0,16,19.57Zm-2.15.54a.83.83,0,0,1,.83-.83H16a.83.83,0,0,1,.83.83v1.31a.83.83,0,0,1-.83.83H14.71a.83.83,0,0,1-.83-.83Z"/><rect x="10.64" y="19.57" width="2.4" height="2.4" rx="0.54" ry="0.54"/><rect x="10.64" y="16.04" width="2.4" height="2.4" rx="0.54" ry="0.54"/><rect x="10.64" y="12.52" width="2.4" height="2.4" rx="0.54" ry="0.54"/><path d="M13,14.38V13.06a.54.54,0,0,0-.54-.54H11.18a.54.54,0,0,0-.54.54v1.32a.54.54,0,0,0,.54.54H12.5A.54.54,0,0,0,13,14.38Zm-2.69-1.32a.83.83,0,0,1,.83-.83H12.5a.83.83,0,0,1,.83.83v1.32a.83.83,0,0,1-.83.83H11.18a.83.83,0,0,1-.83-.83Z"/><path d="M13,17.9V16.58A.54.54,0,0,0,12.5,16H11.18a.54.54,0,0,0-.54.54V17.9a.54.54,0,0,0,.54.54H12.5A.54.54,0,0,0,13,17.9Zm-1.86.83a.83.83,0,0,1-.83-.83V16.58a.84.84,0,0,1,.83-.83H12.5a.83.83,0,0,1,.83.83V17.9a.83.83,0,0,1-.83.83Z"/><path d="M13,21.42V20.11a.54.54,0,0,0-.54-.54H11.18a.54.54,0,0,0-.54.54v1.31a.55.55,0,0,0,.54.55H12.5A.55.55,0,0,0,13,21.42Zm-1.86.83a.83.83,0,0,1-.83-.83V20.11a.83.83,0,0,1,.83-.83H12.5a.83.83,0,0,1,.83.83v1.31a.83.83,0,0,1-.83.83Z"/><rect x="7.11" y="19.57" width="2.4" height="2.4" rx="0.54" ry="0.54"/><rect x="7.11" y="16.04" width="2.4" height="2.4" rx="0.54" ry="0.54"/><rect x="7.11" y="12.52" width="2.4" height="2.4" rx="0.54" ry="0.54"/><path d="M8.76,5.49V7.15A1.18,1.18,0,0,0,9.94,8.33H10a1.18,1.18,0,0,0,1.18-1.18V5.49H21V7a1.18,1.18,0,0,0,1.18,1.18h.09A1.18,1.18,0,0,0,23.43,7V5.49h.35a2.51,2.51,0,0,1,2.5,2.39l-2.45,2.85H5.53V8A2.52,2.52,0,0,1,8.05,5.49ZM8,6.71V6.43a1.89,1.89,0,0,0-1.19.4,1.23,1.23,0,0,0-.41.83H6.7A1,1,0,0,1,7,7,1.65,1.65,0,0,1,8,6.71Z"/><path d="M7.11,14.38a.55.55,0,0,0,.55.54H9a.54.54,0,0,0,.54-.54V13.06A.54.54,0,0,0,9,12.52H7.66a.55.55,0,0,0-.55.54Zm.55.83a.84.84,0,0,1-.84-.83V13.06a.84.84,0,0,1,.84-.83H9a.83.83,0,0,1,.83.83v1.32a.83.83,0,0,1-.83.83Z"/><path d="M9,16H7.66a.55.55,0,0,0-.55.54V17.9a.55.55,0,0,0,.55.54H9a.54.54,0,0,0,.54-.54V16.58A.54.54,0,0,0,9,16Zm-2.15.54a.84.84,0,0,1,.84-.83H9a.83.83,0,0,1,.83.83V17.9a.83.83,0,0,1-.83.83H7.66a.84.84,0,0,1-.84-.83Z"/><path d="M7.66,19.57a.55.55,0,0,0-.55.54v1.31a.55.55,0,0,0,.55.55H9a.55.55,0,0,0,.54-.55V20.11A.54.54,0,0,0,9,19.57Zm-.84.54a.84.84,0,0,1,.84-.83H9a.83.83,0,0,1,.83.83v1.31a.83.83,0,0,1-.83.83H7.66a.84.84,0,0,1-.84-.83Z"/><path d="M6.82,6.83A1.89,1.89,0,0,1,8,6.43v.28A1.65,1.65,0,0,0,7,7a1,1,0,0,0-.32.62H6.41A1.23,1.23,0,0,1,6.82,6.83Z"/><path d="M26.35,23.89a3,3,0,0,1-2.45,1.46v1A2.52,2.52,0,0,0,26.35,23.89ZM28.47,6.42,28.79,6l-.18-.15-.33.38Zm.36.3,1.05.88.3-.34-1-.91Zm.09-1.19L30.48,6.9,31,6.26a.25.25,0,0,0,.06-.2A.24.24,0,0,0,31,5.88l-1.16-1a.33.33,0,0,0-.25-.08.34.34,0,0,0-.24.13Zm-6.7,10.92L29.58,8l-.32-.27L22,16.22Zm-.38.28-1.41-1.17-.62,2.08s0,0,0,0,0,0,0,0ZM21.46,7a.7.7,0,0,0,.7.71h.09A.71.71,0,0,0,23,7V6.92h-1.5Zm.7-3.51a.7.7,0,0,0-.7.7v.37h0V6h0v.68H23V4.22a.7.7,0,0,0-.71-.7ZM21.6,15.93l7.3-8.54L28,6.62l-3.53,4.11L24,11.2l-3.39,3.94ZM9.24,5v.53h0V7.15a.7.7,0,0,0,.7.71H10a.71.71,0,0,0,.71-.71v-1h0V4.65h0v-.3A.71.71,0,0,0,10,3.64H9.94a.7.7,0,0,0-.7.71V5Zm-1.19.53A2.52,2.52,0,0,0,5.53,8v2.72h18.3l2.45-2.85a2.51,2.51,0,0,0-2.5-2.39h-.35V7a1.18,1.18,0,0,1-1.18,1.18h-.09A1.18,1.18,0,0,1,21,7V5.49H11.21V7.15A1.18,1.18,0,0,1,10,8.33H9.94A1.18,1.18,0,0,1,8.76,7.15V5.49Zm0,19.87a3,3,0,0,1-2.57-1.47A2.51,2.51,0,0,0,8,26.31H23.62v-.95ZM5,23.79V7.94A3,3,0,0,1,8,5h.77V4.35A1.18,1.18,0,0,1,9.94,3.17H10a1.18,1.18,0,0,1,1.18,1.18V5H21V4.22a1.18,1.18,0,0,1,1.18-1.17h.09a1.18,1.18,0,0,1,1.18,1.17V5h.41a3,3,0,0,1,2.92,2.37l1.72-2L29,4.68a.84.84,0,0,1,.55-.3.82.82,0,0,1,.6.19l1.15.95a.7.7,0,0,1,.27.5.75.75,0,0,1-.18.54l-.71.82-4.76,5.51L22.5,16.84a.81.81,0,0,1-.31.24l-2.14,1a.59.59,0,0,1-.22,0,.49.49,0,0,1-.47-.64L20,15.36a1.25,1.25,0,0,1,.28-.52l3.13-3.64H5.53V22.38a2.52,2.52,0,0,0,2.52,2.51H23.78a2.52,2.52,0,0,0,2.51-2.51V13.21l.53-.61V23.79a3,3,0,0,1-3,3H8A3,3,0,0,1,5,23.79Z"/></svg>