<svg id="Layer_1" data-name="Layer 1" xmlns="http://www.w3.org/2000/svg" viewBox="0 0 500 250"><title>wd_writing</title><path d="M280.73,35.87a25.7,25.7,0,0,1,3.13,1,12.15,12.15,0,0,1,7.72,10.59c.06.69.32.84.95.83,2.25,0,4.5,0,6.75,0a12.47,12.47,0,0,1,12.64,12.62c0,.59,0,1.18,0,1.77,0,1.58-.18,1.35,1.44,1.39,3.5.08,7-.2,10.51.16a11.47,11.47,0,0,1,6.3,2.7c.54.46.77.4,1.2-.13,1.85-2.34,3.76-4.64,5.62-7,.39-.49.61-.67,1.2-.21q6.15,4.78,12.36,9.51c.52.4.6.65.15,1.2-5.1,6.31-10.16,12.66-15.26,19a3,3,0,0,0-.7,2q0,53.15,0,106.27A12.46,12.46,0,0,1,322,210.31H222.46a12.51,12.51,0,0,1-12.81-12.81c0-.74,0-1.48,0-2.22s-.23-.86-.88-.86c-3.44,0-6.87.06-10.3,0a12.34,12.34,0,0,1-11.61-11.17c-.06-.89-.34-1.09-1.18-1.09a75.5,75.5,0,0,1-8-.1,12.44,12.44,0,0,1-11.22-12.31c0-.33,0-.66,0-1V49.18c0-7,3.73-11.59,10.56-13.13.1,0,.17-.12.25-.18ZM309.9,93.22H227.56c-.33,0-.66,0-1,0-.17,0-.48-.1-.49-.16a9.4,9.4,0,0,1,0-2.31c.12-.62.81-.31,1.24-.31q34.16,0,68.3,0h15.61a1.58,1.58,0,0,0,1.44-.57q7.92-9.82,15.89-19.59c.45-.55.37-.82-.14-1.22a10.3,10.3,0,0,0-6.78-2.21H222.77a13.47,13.47,0,0,0-2.2.13,10,10,0,0,0-8.15,10.2q.09,60,0,120c0,.33,0,.66,0,1a9.64,9.64,0,0,0,9.75,9.33h100a9.61,9.61,0,0,0,9.77-9.84V95a1.55,1.55,0,0,0-.21-1.16l-17,21.23h1.42c1.9,0,1.87,0,1.86,1.89,0,.7-.26.87-.91.85-1.22,0-2.44,0-3.65,0a1.62,1.62,0,0,0-1.48.71c-4.39,5.51-8.82,11-13.22,16.49a18.44,18.44,0,0,0-2.22,3h1.32c6.17,0,12.33,0,18.49,0,1.08,0,1.4.29,1.34,1.35s0,1.54-1.29,1.53c-6.79-.08-13.58,0-20.37-.06-1.19,0-2.28,0-2.89,1.24a1,1,0,0,1-.52.39c-3.81,1.48-7.6,3-11.45,4.4a3.77,3.77,0,0,1-4.87-3.54,12.57,12.57,0,0,1,.43-2.47h-1.36q-23.74,0-47.49,0c-2.1,0-1.78.42-1.85-1.88,0-.73.2-1,.93-.94,1.59,0,3.17,0,4.76,0q22.41,0,44.83,0a1.32,1.32,0,0,0,1.53-1.13c.56-2,1.21-4,1.82-5.92a5,5,0,0,1,.89-1.75c2.36-2.88,4.72-5.77,7.05-8.68a16,16,0,0,0,2-2.69H227c-.21,0-.52,0-.54-.25a6.69,6.69,0,0,1,0-2.19c.17-.58.91-.26,1.38-.26q31.6,0,63.21,0a2,2,0,0,0,1.76-.84c4.24-5.3,8.53-10.56,12.81-15.83ZM249.4,51H200a12.05,12.05,0,0,0-3.17.36,9.79,9.79,0,0,0-7.32,9.86V161.8q0,9.9,0,19.81a9.66,9.66,0,0,0,8.86,10c3.53.36,7.08.06,10.62.14.6,0,.64-.31.63-.76,0-6.2,0-12.4,0-18.6,0-.64-.2-.83-.82-.8-1.18,0-2.36,0-3.54,0-1.91,0-1.74.43-1.78-1.87,0-.7.19-1,.94-1,1.47.06,2.95,0,4.42,0,.55,0,.78-.13.78-.74q0-8.85,0-17.71c0-.62-.28-.73-.8-.72-1.18,0-2.37,0-3.55,0-2,0-1.73.33-1.8-1.86,0-.82.3-1,1-1,1.44.05,2.88,0,4.31,0,.64,0,.81-.19.81-.81q0-10.14,0-20.26c0-.73-.27-.85-.91-.84-1.59,0-3.18,0-4.76,0-.76,0-1-.26-.92-1a2.84,2.84,0,0,0,0-.77c-.13-.86.27-1.06,1.07-1,1.54.06,3.1,0,4.64,0,.69,0,.88-.21.87-.88q0-9.24,0-18.48c0-.64-.2-.83-.82-.81-1.18,0-2.36,0-3.54,0-1.91,0-1.74.42-1.78-1.87,0-.7.18-1,.93-1,1.44.05,2.88,0,4.32,0,.65,0,.9-.14.9-.85q0-10.08,0-20.15c0-.73-.3-.85-.92-.83-1.29,0-2.59,0-3.88,0-2,0-1.73.33-1.8-1.85,0-.82.29-1,1-1,1.66.05,3.32,0,5,0,.54,0,.73-.17.88-.71,1.75-6.44,6.33-9.9,13-9.9h83.57c2.56,0,2.44,0,2.58-2.6.3-5.48-3.93-10.51-10.46-10.49C282.24,51,265.82,51,249.4,51Zm-80.08,58.09v55.13c0,1.95,0,3.91,0,5.86a9.6,9.6,0,0,0,7.91,9.11c2.78.47,5.6.07,8.4.21.9,0,1.18-.19,1.18-1.13-.05-5.61,0-11.22,0-16.83,0-2.17,0-2.23-2.13-2.14-1.07,0-1.51-.18-1.41-1.37.14-1.57-.17-1.36,1.47-1.38a5.45,5.45,0,0,1,1,0c.91.13,1.1-.29,1.1-1.13,0-5.35,0-10.7,0-16,0-2.09,0-2.08-2.07-2.1-1.63,0-1.43.2-1.43-1.39s-.2-1.4,1.4-1.42a5.17,5.17,0,0,1,.88,0c.94.13,1.29-.16,1.25-1.19-.08-2.35,0-4.72,0-7.08,0-4.17,0-8.34,0-12.51,0-.83-.23-1.13-1.06-1s-1.48,0-2.21,0c-.28,0-.67.07-.68-.36,0-.77-.26-1.63.12-2.27.25-.44,1-.12,1.57-.16a6.12,6.12,0,0,1,1.21,0c.83.11,1.06-.2,1.05-1,0-5.65,0-11.29,0-16.94,0-2.15,0-2.22-2.14-2.13-1.1,0-1.44-.23-1.41-1.37s.22-1.6,1.38-1.38c.25,0,.52,0,.77,0,1.08.16,1.45-.19,1.43-1.36-.06-6.16,0-12.32,0-18.49,0-2,0-2-2-2s-2.05,0-2-2.08c0-.61.26-.76.8-.73.7,0,1.41-.06,2.1,0,.92.1,1.14-.3,1.09-1.14a10.16,10.16,0,0,1,.13-2.64,12.4,12.4,0,0,1,12.57-10.29H287.2c.3,0,.59,0,.89,0,.62,0,.81-.17.73-.84a9.67,9.67,0,0,0-9.68-8.68H179.06a8.7,8.7,0,0,0-1.76.13,9.7,9.7,0,0,0-8,10Q169.32,78.94,169.32,109.05ZM347.11,70.24c0-.39-.33-.5-.54-.67-2.54-2-5.11-3.88-7.61-5.89-.76-.61-1.13-.53-1.73.21q-16.32,20.24-32.71,40.42-10.33,12.76-20.69,25.52c-.43.53-.4.81.07,1.26,1.05,1,2.05,2,3.07,3s1,1,1.88-.09q9.5-11.46,19-22.91c.52-.64.95-.84,1.55-.17a2.89,2.89,0,0,0,.59.51c.68.41.62.78.12,1.37q-5.66,6.73-11.26,13.51l-8.4,10.14c-.21.26-.57.44-.22.92,1.22,1.7,1.61,1.73,2.89.13q14.25-17.77,28.53-35.55l25.06-31.25Zm-65,63c-1,3.18-1.95,6.2-2.91,9.21a1.22,1.22,0,0,0,.18,1.43,1.26,1.26,0,0,0,1.53.13l6.89-2.68c1.72-.67,1.72-.67.42-2Z"/><path d="M348.72,224.92c0-2.65,0-2.65,2.73-2.65h8.17a1.79,1.79,0,0,1,1.26.25V225C356.83,225,352.77,225.07,348.72,224.92Z"/><path d="M344.06,225l-1.55,0H155.17c-2,0-2,0-2-2,0-.22,0-.44,0-.66l1.32,0h188a8.61,8.61,0,0,0,.88,0c.57,0,.81.19.77.76S344.09,224.35,344.06,225Z"/><path d="M272.22,165.4H227.84c-.45,0-1.17.26-1.3-.22a7.69,7.69,0,0,1,0-2.3c0-.18.28-.2.47-.2h89.52c.45,0,1.13-.26,1.33.2a4.77,4.77,0,0,1,.07,2.29c0,.22-.25.23-.44.23H272.22Z"/><path d="M272.31,184.63h44.4c.4,0,1-.27,1.17.25a4.67,4.67,0,0,1,0,2.29c0,.09-.32.15-.49.16a8.61,8.61,0,0,1-.88,0H227.92c-.48,0-1.22.31-1.39-.26a7.28,7.28,0,0,1,0-2.19c0-.22.25-.25.43-.25h45.39Z"/><path d="M313.18,108.5a12.77,12.77,0,0,1-1.77-1.54c-.36-.44.28-.75.53-1q11.15-13.66,22.29-27.32c.59-.72,1-.76,1.64-.14,1.2,1.09,1.24,1,.22,2.3Q325,94.32,313.91,107.88C313.73,108.1,313.6,108.39,313.18,108.5Z"/></svg>